<svg id="a8ebc32a-e748-45d9-a61d-aeebf59cfff3" data-name="Layer 1" xmlns="http://www.w3.org/2000/svg" width="1121.00005" height="607.96199" viewBox="0 0 1121.00005 607.96199">
 <title stroke="null">source_code</title>

 <g stroke="null">
  <title stroke="null">background</title>
  <rect stroke="null" fill="none" id="canvas_background" height="602" width="802" y="-1" x="-1"/>
 </g>
 <g stroke="null">
  <title stroke="null">Layer 1</title>
  <path stroke="null" id="svg_1" fill="#3f3d56" d="m166.647921,401.542851a92.17222,92.17222 0 0 1 32.02368,-16.68392c32.65823,-9.34364 66.44317,-0.29958 99.11525,8.44757c17.6391,4.72171 35.87786,9.60454 53.86608,11.6155c28.82416,3.22318 55.69008,-1.27495 77.69306,-13.0071c24.729,-13.18383 42.54045,-35.87523 47.64829,-60.69279a70.48407,70.48407 0 0 0 1.28593,-9.521q-3.65463,2.25441 -7.33528,4.44022c-25.80935,15.32748 -62.0852,29.65826 -88.32908,10.88062c-10.07437,-7.20721 -16.61059,-19.25066 -17.93452,-33.0403c-1.41783,-14.77612 3.3362,-29.50912 12.71615,-39.40907a47.998,47.998 0 0 1 4.90566,-4.50207c19.01181,-15.17609 49.02343,-15.99439 70.07515,-0.995c17.82789,12.70265 28.38926,35.65507 28.05028,58.93481a524.84185,524.84185 0 0 0 44.16619,-30.97039l1.23084,1.57655a526.67316,526.67316 0 0 1 -45.47066,31.79851a72.51073,72.51073 0 0 1 -1.40193,11.21038c-5.22638,25.39384 -23.41987,48.59132 -48.66557,62.05449c-22.36144,11.92331 -49.62963,16.49823 -78.857,13.23013c-18.13781,-2.02774 -36.45006,-6.93064 -54.16067,-11.6715c-33.90127,-9.07553 -65.922,-17.64846 -98.04825,-8.457c-32.29131,9.23821 -58.37466,37.579 -64.90838,70.52114c-6.53632,32.94354 6.75568,69.09513 33.07392,89.95877l-1.24263,1.56781c-26.89056,-21.31772 -40.47084,-58.2563 -33.7937,-91.91573c4.31543,-21.75418 16.97615,-41.5453 34.29719,-55.37063zm311.75247,-82.2679c0.75634,-23.07932 -9.54778,-46.0053 -27.18335,-58.57032c-22.18626,-15.80879 -54.652,-13.45341 -72.36735,5.24286c-8.98829,9.48739 -13.54065,23.634 -12.17693,37.84291c1.2683,13.2143 7.503,24.73436 17.10678,31.60559c25.366,18.1489 60.84664,4.04919 86.14458,-10.97506q4.25478,-2.5263 8.47627,-5.14598z"/>
  <ellipse stroke="null" id="svg_2" fill="#3f3d56" ry="13" rx="278.5" cy="558.819168" cx="278.5"/>
  <ellipse stroke="null" id="svg_3" fill="#3f3d56" ry="13" rx="99" cy="597.819168" cx="268"/>
  <path stroke="null" id="svg_4" fill="#ffb8b8" d="m185.500031,286.319181l0,8s-9.02334,41.82913 5,40c23,-3 6,-37 6,-37l0,-7l-11,-4z"/>
  <polygon stroke="null" id="svg_5" fill="#ffb8b8" points="297.5,511.3191840648651 306.5,536.319153547287 328.5,528.319153547287 318.5,505.3191840648651 297.5,511.3191840648651 "/>
  <polygon stroke="null" id="svg_6" fill="#ffb8b8" points="242.5,536.319153547287 236.5,558.319153547287 259.5,565.319153547287 260.5,542.319153547287 242.5,536.319153547287 "/>
  <path stroke="null" id="svg_7" fill="#2f2e41" d="m222.500031,284.319181l-2,11s-1,8 0,13s73,212 73,212l31,-12l-40,-131l-5,-101l-57,8z"/>
  <path stroke="null" id="svg_8" fill="#2f2e41" d="m261.500031,282.319181l-4,148s-9,10 -7,17s-5,65 -5,65l-6,29l26,8s5,-26 9,-29s27,-93 27,-99s17,-139 17,-139l-42,-17l-15,17z"/>
  <path stroke="null" id="svg_9" fill="#2f2e41" d="m308.500031,520.319181s-11,-12 -17,0a242.98906,242.98906 0 0 1 -15,25s-32,19 0,24c0,0 18,1 27,-5s33,-15 33,-17s-6,-31.4 -12,-28.2s-16,1.2 -16,1.2z"/>
  <path stroke="null" id="svg_10" fill="#2f2e41" d="m253.500031,553.319181s-9,-13 -17,-4s-18,35 -18,35s-18,27 10,26s30,-11 30,-11s4,-26 4,-27s-2,-11.27953 -2,-11.27953l-7,-7.72047z"/>
  <circle stroke="null" id="svg_11" fill="#ffb8b8" r="28" cy="48.819168" cx="247"/>
  <path stroke="null" id="svg_12" fill="#ffb8b8" d="m232.500031,66.319181l4,32l12,30l26,-31l0,-15s-8,-12 -6,-22l-36,6z"/>
  <path stroke="null" id="svg_13" fill="#d0cde1" d="m246.500031,105.319181l-14,-6l-15,177l3,11s8,5 33,1s66,-1 66,-1l3,-91l-49,-107l-27,16z"/>
  <path stroke="null" id="svg_14" fill="#575a89" d="m221.500031,280.319181s19,-165 18,-168s-18,-11.12343 -18,-11.12343s-29,19.12343 -28,26.12343s19,155 19,155l9,-2z"/>
  <path stroke="null" id="svg_15" fill="#575a89" d="m297.500031,268.319181s-30,-117 -31,-143s-1,-29 -1,-29s46,-16 62,0l3,84s5,36 3,47a123.84612,123.84612 0 0 1 -6,21s11,11 1,14s-17,-2 -21,3s-10,3 -10,3z"/>
  <path stroke="null" id="svg_16" fill="#575a89" d="m200.500031,121.319181s-12,0 -11,14s0,79 0,79s-9,55 -6,59s-1,17 -1,17l18,4s2,-14 6,-15s10,-30 10,-30l-16,-128z"/>
  <path stroke="null" id="svg_17" fill="#ffb8b8" d="m335.500031,244.319181l-4.592,8.349s-31.4962,25.082 -15.95213,34.36653s30.54413,-24.71553 30.54413,-24.71553l5,-9l-15,-9z"/>
  <path stroke="null" id="svg_18" fill="#575a89" d="m313.500031,94.319181l14,2s16,11 17,17s33,61 33,61a32.54943,32.54943 0 0 1 3,13c0,7 -11,60 -17,61s-10,11 -10,11l-21,-13a51.04342,51.04342 0 0 1 1,-9c1,-5 5,-15 5,-15l6,-21a7.5,7.5 0 0 1 -3,-6c0,-4 -17,-25 -17,-25l-11,-76z"/>
  <path stroke="null" id="svg_19" fill="#d0cde1" d="m243.383791,115.528651s-25.88376,-7.20947 -23.88376,-12.20947s4,-6 4,-6s3,-8 6,-8s5.568,-2.45633 5.568,-2.45633l11.432,18.45633l-3.11624,10.20947z"/>
  <path stroke="null" id="svg_20" fill="#d0cde1" d="m271.514951,76.819181s9.98505,-2.5 13.98505,0.5s7,3 8,5s14,4 10,7s-57,16 -57,16l25,-18l0.01495,-10.5z"/>
  <ellipse stroke="null" id="svg_22" fill="#ffb8b8" ry="4" rx="2" cy="44.819168" cx="273"/>
  <path stroke="null" id="svg_23" fill="#3f3d56" d="m104.219911,558.550501l-1.07324,-0.40235c-0.23584,-0.08886 -23.7085,-9.082 -34.7041,-29.47363c-10.99609,-20.39258 -5.61182,-44.94531 -5.55615,-45.19043l0.25342,-1.11816l1.07275,0.40234c0.23584,0.08887 23.708,9.082 34.7041,29.47363c10.99609,20.39258 5.61182,44.94532 5.55615,45.19043l-0.25293,1.11817zm-33.76367,-31.94337c9.29639,17.24121 27.84522,26.0791 32.54492,28.09668c0.89356,-5.03711 3.6958,-25.40625 -5.59228,-42.63086c-9.28711,-17.22265 -27.84326,-26.07422 -32.54492,-28.09668c-1.14693,6.15821 -3.94825,26.5254 5.33935,43.74903l0.25293,-1.11817z"/>
  <path stroke="null" id="svg_24" fill="#ff3e7a" d="m76.845761,521.521471c19.76056,11.88861 27.371,35.50267 27.371,35.50267s-24.42779,4.33881 -44.18835,-7.5498s-27.371,-35.50267 -27.371,-35.50267s24.42778,-4.33881 44.18835,7.5498z"/>
  <path stroke="null" id="svg_25" fill="#3f3d56" d="m506.999951,299.657181l457.18388,0c86.60721,0 156.81623,-49.36333 156.81623,-135.97054l0,-0.00032c0,-86.60721 -70.209,-122.70511 -156.81623,-122.70511l-143.55143,0c-173.21442,0 -313.63245,85.46124 -313.63245,258.67566l0,0.00031z"/>
  <path stroke="null" id="svg_26" fill="#ff3e7a" d="m938.663091,278.678551l-380.49414,0l0,-1c0,-68.02539 26.50391,-124.06933 76.64648,-162.07373c46.30371,-35.09473 110.168,-53.645 184.68946,-53.645l119.1582,0c38.00488,0 70.03027,8.35059 92.61621,24.14844c25.58106,17.894 38.55176,44.37451 38.55176,78.70508c0,34.50439 -13.31055,63.6084 -38.49317,84.166c-23.45996,19.15234 -56.37207,29.69921 -92.6748,29.69921zm-378.49219,-2l378.49219,0c77.25977,0 129.168,-44.95508 129.168,-111.86474c0,-64.09424 -47.08008,-100.854 -129.168,-100.854l-119.1582,0c-125.10352,-0.00001 -258.76368,55.91308 -259.33399,212.71874z"/>
  <rect stroke="null" id="svg_27" fill="#ff3e7a" height="13" width="54" y="128.819168" x="701"/>
  <rect stroke="null" id="svg_28" fill="#ff3e7a" height="13" width="19" y="128.819168" x="923"/>
  <rect stroke="null" id="svg_29" fill="#ff3e7a" height="13" width="19" y="128.819168" x="961"/>
  <rect stroke="null" id="svg_30" fill="#ff3e7a" height="13" width="129" y="128.819168" x="774"/>
  <rect stroke="null" id="svg_31" fill="#ff3e7a" height="13" width="54" y="212.819168" x="633"/>
  <rect stroke="null" id="svg_32" fill="#ff3e7a" height="13" width="19" y="212.819168" x="855"/>
  <rect stroke="null" id="svg_33" fill="#ff3e7a" height="13" width="19" y="212.819168" x="893"/>
  <rect stroke="null" id="svg_34" fill="#ff3e7a" height="13" width="129" y="212.819168" x="706"/>
  <rect stroke="null" id="svg_35" fill="#ff3e7a" height="13" width="54" y="157.819168" x="856"/>
  <rect stroke="null" id="svg_36" fill="#ff3e7a" height="13" width="54" y="157.819168" x="929"/>
  <rect stroke="null" id="svg_37" fill="#ff3e7a" height="13" width="19" y="157.819168" x="1002"/>
  <rect stroke="null" id="svg_38" fill="#ff3e7a" height="13" width="19" y="157.819168" x="633"/>
  <rect stroke="null" id="svg_39" fill="#ff3e7a" height="13" width="19" y="157.819168" x="671"/>
  <rect stroke="null" id="svg_40" fill="#ff3e7a" height="13" width="129" y="157.819168" x="709"/>
  <rect stroke="null" id="svg_41" fill="#ff3e7a" transform="rotate(-180 1581.5,524.9429931640625) " height="13" width="54" y="853.923993" x="2364.99997"/>
  <rect stroke="null" id="svg_42" fill="#ff3e7a" transform="rotate(-180 1435.5,524.9429931640625) " height="13" width="54" y="853.923993" x="2145.99997"/>
  <rect stroke="null" id="svg_43" fill="#ff3e7a" transform="rotate(-180 1324.5,524.9429931640624) " height="13" width="19" y="853.923993" x="1996.99997"/>
  <rect stroke="null" id="svg_44" fill="#ff3e7a" transform="rotate(-180 2062.5,524.9429931640625) " height="13" width="19" y="853.923993" x="3103.99997"/>
  <rect stroke="null" id="svg_45" fill="#ff3e7a" transform="rotate(-180 1986.5,524.9429931640625) " height="13" width="19" y="853.923993" x="2989.99997"/>
  <rect stroke="null" id="svg_46" fill="#ff3e7a" transform="rotate(-180 1800.5,524.9429931640625) " height="13" width="129" y="853.923993" x="2655.99997"/>
  <rect stroke="null" id="svg_47" fill="#ff3e7a" height="15" width="19" y="539.819168" x="152"/>
  <rect stroke="null" id="svg_48" fill="#ff3e7a" height="15" width="19" y="583.819168" x="309"/>
  <!-- Created with Method Draw - http://github.com/duopixel/Method-Draw/ -->
  <rect id="svg_86" height="8.219069" width="19.177827" y="20.665159" x="234.996875" stroke-width="null" fill="#ff3e7a"/>
  <g stroke="null" transform="rotate(-6.309242248535156 244.82545471191403,35.92816162109356) matrix(-0.24347005426979137,0,0,0.22504202135270765,1115.2301309771678,-24.436689934329504) " id="svg_83">
   <title stroke="null" transform="translate(9.094947017729282e-13,12.696199417114258) translate(9.094947017729282e-13,0) translate(9.094947017729282e-13,0) translate(0.03293218836188316,-0.6465021371841431) translate(-14.589735984802246,18.261186599731445) translate(1.677795648574829,1.9220393896102905) translate(5.281587600708008,-28.92171859741211) translate(-3.0287373065948486,-0.17410962283611298) translate(0.037087682634592056,-0.85478675365448) translate(-0.03911086916923523,0.8649165630340576) translate(17.248449325561523,-92.24553680419922) translate(-6.398538589477539,-3.611363172531128) translate(0.3186304569244385,-9.837250709533691) translate(1158.85791015625,-229.79690551757812) translate(-997.4979248046875,196.96878051757812) translate(13.104893684387207,-9.386222839355469) translate(-3.8603434562683105,-4.511224269866943) translate(-209.6597442626953,-901.455078125) translate(-0.09192300587892532,1.9450695514678955) translate(2383.60205078125,-2541.63720703125) translate(223.8742218017578,281.51043701171875) translate(-2409.940185546875,3249.434814453125) translate(-47.62122344970703,-64.04883575439453) translate(-9.094947017729282e-13,36.267433166503906) translate(-81.64850616455078,-163.20346069335938) translate(868.4431762695312,-1065.3558349609375) translate(-2912.275390625,-1436.1905517578125) translate(5270.1728515625,0) translate(0,2791.768310546875) ">Layer 1</title>
   <path stroke="#000" id="svg_77" d="m3629.344953,109.186068c0,0 -119.40909,36.48611 -114.10202,33.16919c5.30706,-3.31691 -23.88183,11.27754 -36.48612,17.24798c-12.6043,5.97046 -37.81288,35.15936 -37.81289,34.62865c0.00001,0.53071 -11.94091,40.99712 -11.94091,40.46642c0,0.5307 -3.9803,39.00697 -3.9803,38.47627c0,0.5307 3.31692,15.12514 3.31692,15.12514c0,0 5.30707,18.57475 5.30707,18.04405c0,0.5307 33.83258,78.81001 33.83258,78.2793c0,0.53071 7.96061,9.81809 7.96061,9.81809c0,0 0,-18.57475 -0.00001,-19.10546c0.00001,0.53071 15.92123,-37.94556 15.92122,-38.47627c0.00001,0.53071 29.85228,-45.90617 29.85228,-46.43687c0,0.5307 31.17905,-50.54986 31.17904,-51.08056c0.00001,0.5307 21.22829,-33.96526 21.22829,-34.49597c0,0.53071 11.27753,13.79838 11.27753,13.26768c0,0.5307 12.60429,25.07591 12.60429,24.54521c0,0.5307 11.27753,27.06605 11.27752,26.53535c0.00001,0.5307 36.48613,60.23526 36.48612,59.70455c0.00001,0.53071 16.5846,44.31405 16.5846,43.78335c0,0.5307 4.64369,25.73929 4.64369,25.73929c0,0 7.96061,-11.94091 7.96061,-12.47162c0,0.53071 15.92121,-10.08343 15.92121,-10.61414c0,0.53071 27.19874,-57.84708 27.19874,-58.37778c0,0.5307 7.29722,-66.47107 7.29722,-67.00178c0,0.53071 -2.65353,-29.32157 -2.65353,-29.85228c0,0.53071 -10.61414,-22.68773 -10.61414,-23.21843c0,0.5307 -9.95076,-17.38067 -9.95077,-17.91137c0.00001,0.5307 -4.64368,-13.40036 -4.64368,-13.93106c0,0.5307 -6.63384,-8.09328 -6.63384,-8.62399c0,0.53071 -47.76364,-43.25263 -47.76364,-43.78334c0,0.53071 -5.30707,-2.78621 -5.30707,-3.31692c0,0.53071 -7.96061,-0.13268 -7.96061,-0.13268l-0.00001,0z" stroke-width="0" fill="#0fffff"/>
   <path stroke="#02c9c9" fill="none" stroke-width="1.5" stroke-opacity="0.1" id="svg_76" d="m3573.050363,206.016291c0,-0.589966 0,-0.884949 0,-1.769913c0,-0.294983 0,-1.179947 0,-1.47493c0,-0.884949 0.294983,-0.884949 0.294983,-1.179932c0,-0.884964 0.589966,-1.179947 0.589966,-2.064896c0,-0.294998 0.504486,-1.192596 0.589966,-1.47493c0.308197,-1.01796 0.124725,-1.312119 0.589966,-2.064896c0.346771,-0.561096 0.83316,-0.913818 1.179962,-1.47493c0.46524,-0.752777 0.172791,-0.762772 0.589966,-1.179947c0.625763,-0.625748 -0.46524,-1.312103 0,-2.064896c0.346771,-0.561096 0.589966,-1.179932 0.589966,-1.474915c0,-0.884964 0.172791,-0.762772 0.589966,-1.179947c0.625763,-0.625763 0,-1.179947 0,-2.064896c0,-0.294983 0.243195,-0.913834 0.589966,-1.47493c0.46524,-0.752777 0,-1.179947 0,-2.064896c0,-0.294983 0.243195,-0.913834 0.589966,-1.47493c0.46524,-0.752777 0,-1.179932 0,-2.064896c0,-0.294983 0.589996,-1.179932 0.589996,-1.47493c0,-0.884949 0,-1.179932 0,-2.064896c0,-0.294983 0,-1.179932 0,-2.359879c0,-0.294983 0,-1.179947 0,-1.47493c0,-1.179932 0,-2.064896 0,-3.244827c0,-0.294998 0,-1.179947 0,-1.47493c0,-1.179947 0,-2.064903 0,-3.244843c0,-0.294983 0,-1.179939 0,-1.474922c0,-1.179947 0,-2.064896 0,-2.359886c0,-1.179939 -0.589996,-2.064896 -0.589996,-2.359879c0,-0.884956 0.108124,-1.186569 0,-2.064896c-0.14859,-1.207146 -0.700989,-1.203636 -1.179932,-2.359886c-0.112885,-0.27253 -0.135345,-1.089508 -0.294983,-1.474922c-0.338654,-0.817596 -0.406006,-0.908653 -0.884949,-2.064903c-0.112885,-0.27253 -0.135345,-1.089508 -0.294983,-1.474922c-0.338654,-0.817596 0.517456,-1.346985 0,-2.064896c-0.545441,-0.756767 -1.031372,-1.15274 -1.179962,-2.359886c-0.036041,-0.29277 -0.848907,-1.182152 -0.884949,-1.474922c-0.14859,-1.207138 -0.554169,-1.43914 -1.179932,-2.064896c-0.834351,-0.834351 -0.294983,-1.47493 -0.294983,-2.359886c0,-0.294983 -0.339508,-0.718178 -0.884949,-1.474922c-0.517456,-0.717911 0.222443,-1.346992 -0.295013,-2.064903c-0.545441,-0.756744 -0.676361,-1.266335 -0.884949,-1.474922c-0.208588,-0.208588 -0.294983,-0.884956 -0.294983,-1.179939l-0.884949,0l0,-0.884956"/>
   <path stroke="#02c9c9" fill="none" stroke-width="1.5" stroke-opacity="0.1" id="svg_75" d="m3578.396097,196.748239c0.684937,0 1.422028,0.080338 2.05481,0.342453c0.894897,0.370682 1.159882,0.999176 2.054779,1.369858c0.632782,0.2621 1.159882,0.314255 2.054779,0.684937c0.632813,0.262115 1.369843,0.684921 2.054779,0.684921c0.684937,0 1.421997,0.422836 2.054779,0.684937c0.894897,0.370682 1.249146,1.017975 2.739716,1.369858c0.666626,0.157364 1.388184,0.527557 2.05481,0.684921c1.49057,0.351883 2.106934,1.107742 2.739716,1.369858c0.894897,0.370682 1.570465,0.885544 2.054779,1.369858c0.484314,0.484329 1.388153,0.527573 2.054779,0.684937c1.49057,0.351868 2.054779,0.684921 2.739716,1.369843c0.684937,0.684937 1.159882,0.999176 2.054779,1.369858c1.265594,0.524216 2.106903,0.422821 2.739716,0.684937c0.894897,0.370682 1.421997,0.422821 2.054779,0.684921c0.894897,0.370682 0.885559,0.885544 1.369873,1.369858c0.968628,0.968628 2.106903,0.422821 2.739716,0.684937c0.894897,0.370682 1.159882,0.999176 2.054779,1.369858c0.632813,0.262115 1.159882,0.999176 2.054779,1.369858c0.632813,0.262115 0.885559,0.200607 1.369873,0.684921c0.484314,0.484299 1.570465,0.200607 2.054779,0.684937c0.484314,0.484314 0.474945,0.999176 1.369843,1.369858c0.632782,0.262115 1.422028,0.422806 2.05481,0.684921c0.894897,0.370682 1.421967,0.422821 2.054779,0.684937c0.894897,0.370682 1.159882,0.999176 2.054779,1.369858c0.632813,0.262115 1.369873,0.684921 2.054779,0.684921c0.684937,0 1.570496,0.200607 2.05481,0.684937c0.484314,0.484314 1.159882,0.999176 2.054779,1.369858c0.632782,0.2621 1.159882,0.999161 2.054779,1.369843c0.632813,0.262115 2.054779,0.684937 2.739716,1.369858c0.684937,0.684937 1.497253,1.159286 2.739716,2.054794c0.785797,0.56636 1.268982,0.803482 2.054779,1.369858c1.242462,0.895508 2.106903,1.107742 2.739716,1.369858c0.894897,0.370682 1.369873,1.369858 2.054779,2.054779c0.684937,0.684937 1.844818,1.684113 2.739716,2.054794c0.632813,0.262115 1.369873,0.684937 2.054779,1.369858c0.684937,0.684937 2.05481,1.369858 2.739716,2.054779c0.684937,0.684937 1.497253,1.159286 2.739716,2.054794c0.785797,0.566376 1.107758,0.737061 1.369873,1.369843c0.370697,0.894913 1.421967,1.107742 2.054779,1.369858c0.894897,0.370682 1.159882,1.684113 2.054779,2.054794c0.632782,0.262115 1.369873,0.684921 2.05481,1.369858c0.684906,0.684921 1.684082,0.474945 2.054779,1.369858c0.262115,0.632782 0.474945,1.684097 1.369843,2.054779c0.632813,0.262115 0.885559,0.200607 1.369873,0.684937c0.484314,0.484314 0.422791,0.737061 0.684906,1.369858c0.370697,0.894897 1.107758,0.737061 1.369873,1.369858c0.370697,0.894897 1.369843,1.369858 2.054779,2.054779c0.684937,0.684937 0.684937,1.369858 1.369873,2.054794c0.684906,0.684921 1.369843,1.369858 2.054779,2.054779c0.684937,0.684921 1.369843,1.369858 2.054779,2.054779c0.684937,0.684937 0.684937,1.369858 1.369873,2.054794c0.684906,0.684921 1.107727,1.421997 1.369843,2.054779c0.370697,0.894913 1.369873,1.369873 2.054779,2.054794c0.684937,0.684937 1.369873,1.369858 2.054779,2.054779c0.684937,0.684937 1.369873,1.369858 2.05481,2.054794c0.684906,0.684921 1.369843,1.369858 2.054779,2.054779c0.684937,0.684937 1.159882,1.684113 2.054779,2.054794c0.632813,0.262115 1.107758,0.737061 1.369873,1.369843c0.370667,0.894897 1.159882,1.684113 2.054779,2.054794c0.632813,0.262115 0.885529,0.885529 1.369843,1.369858c0.484314,0.484329 0.885559,0.200592 1.369873,0.684921c0.484314,0.484329 0.474976,0.999176 1.369843,1.369858c0.632813,0.262115 0.885559,0.200607 1.369873,0.684937c0.484314,0.484314 0.200592,0.885529 0.684906,1.369858c0.484314,0.484329 0.885559,0.200592 1.369873,0.684921c0.484314,0.484329 0.999176,1.159897 1.369843,2.054794c0.262115,0.632782 0.885559,0.885529 1.369873,1.369858c0.484314,0.484314 0.200623,0.885529 0.684937,1.369858c0.484314,0.484314 0.31424,1.159897 0.684906,2.054779c0.262115,0.632797 0.684937,0.684937 0.684937,1.369858c0,0.684921 0.422821,1.421997 0.684937,2.054779c0.370697,0.894913 0.200623,1.57048 0.684937,2.054794c0.484314,0.484314 0.422791,0.737061 0.684906,1.369843c0.370697,0.894897 0.200623,1.570496 0.684937,2.05481c0.484314,0.484314 0.422821,0.73703 0.684937,1.369843c0.370697,0.894897 0.422852,1.421997 0.684937,2.054779c0.370667,0.894897 0.422791,1.422028 0.684906,2.05481c0.370697,0.894897 0.885559,0.885529 1.369873,1.369843c0.484314,0.484314 0.200623,0.885559 0.684937,1.369873c0.484314,0.484314 0.31424,1.159882 0.684906,2.054779c0.262085,0.632782 0,1.369843 0.684937,1.369843l0,0.684937"/>
   <path stroke="#02c9c9" fill="none" stroke-width="1.5" stroke-opacity="0.1" id="svg_74" d="m3581.820749,189.898951c0,0 0.703247,-0.157349 1.369843,0c0.7453,0.175934 1.369873,0.342453 2.05481,0.342453c0.684906,0 1.421967,-0.262115 2.054779,0c0.894897,0.370682 1.369843,0.684937 2.054779,0.684937c0.684937,0 1.369873,0 2.054779,0c0.684937,0 1.369873,0 2.05481,0c0.684906,0 1.421967,-0.262115 2.054779,0c0.894897,0.370682 1.369843,0.684921 2.054779,0.684921c0.684937,0 1.369873,0 2.054779,0c0.684937,0 0.885559,0.200607 1.369873,0.684937c0.484314,0.484299 1.369843,0 2.054779,0c0.684937,0 1.369843,0 2.054779,0c0.684937,0 0.684937,0.684921 1.369873,0.684921c0.684906,0 1.369843,0 2.054779,0c0.684937,0 0.885529,0.200607 1.369843,0.684937c0.484314,0.484329 1.369873,0 2.05481,0c0.684906,0 0.684906,0.684921 1.369843,0.684921c0.684937,0 1.369873,0 2.054779,0c0.684937,0 1.159882,0.314255 2.054779,0.684937c0.632782,0.262115 1.369873,0 2.05481,0c0.684906,0 0.684906,0.684921 1.369843,0.684921c0.684937,0 1.369873,0.684937 2.054779,0.684937c0.684937,0 1.421997,-0.262115 2.05481,0c0.894867,0.370682 1.369843,0.684921 2.054779,0.684921c0.684937,0 1.159882,0.314255 2.054779,0.684937c0.632813,0.262115 1.159912,0.31424 2.054779,0.684921c0.632813,0.262115 1.570496,-0.484329 2.05481,0c0.484314,0.484329 0.684906,0.684937 1.369843,0.684937c0.684937,0 1.369843,0.684921 2.054779,0.684921c0.684937,0 1.159882,0.314255 2.054779,0.684937c0.632782,0.262115 0.885559,0.200607 1.369873,0.684921c0.484314,0.484329 1.159882,0.314255 2.054779,0.684937c0.632813,0.262115 1.249146,1.017975 2.739716,1.369858c0.666626,0.157364 1.159882,0.999176 2.054779,1.369858c0.632782,0.262115 1.159912,0.31424 2.05481,0.684921c0.632782,0.2621 1.159882,0.314255 2.054779,0.684937c0.632782,0.2621 1.159882,0.31424 2.054779,0.684921c0.632813,0.262115 1.421967,-0.262115 2.054779,0c0.894897,0.370682 0.885559,0.885529 1.369873,1.369858c0.484314,0.484299 1.159882,0.31424 2.054779,0.684921c0.632813,0.262115 1.159882,0.314255 2.054779,0.684937c0.632813,0.262115 1.369873,0.684921 2.054779,0.684921c0.684937,0 1.570496,0.200607 2.05481,0.684937c0.484314,0.484314 0.474945,0.999176 1.369843,1.369858c0.632813,0.262115 0.737091,0.422806 1.369873,0.684921c0.894897,0.370682 1.369843,1.369858 2.054779,1.369858c0.684906,0 1.570465,0.200607 2.054779,0.684937c0.484314,0.484314 0.200623,0.885529 0.684937,1.369858c0.484314,0.484299 1.570465,0.200592 2.054779,0.684921c0.484314,0.484329 0.474976,0.999176 1.369843,1.369858c0.632813,0.262115 0.737061,0.422821 1.369873,0.684937c0.894897,0.370682 0.885529,0.885529 1.369843,1.369858c0.484314,0.484329 0.737061,0.422806 1.369873,0.684921c0.894897,0.370682 1.159882,0.999176 2.054779,1.369858c0.632813,0.262115 0.737061,0.422821 1.369873,0.684937c0.894867,0.370682 1.570465,0.885513 2.054779,1.369843c0.484314,0.484329 0.200623,0.885544 0.684937,1.369858c0.484314,0.484299 0.885529,0.200607 1.369843,0.684937c0.484314,0.484329 0.737061,0.422821 1.369843,0.684921c0.894897,0.370682 1.421997,0.422821 2.05481,0.684937c0.894867,0.370682 1.570465,0.200592 2.054779,0.684921c0.484314,0.484329 0.885529,0.200638 1.369843,0.684937c0.484314,0.484314 0.474976,0.999176 1.369873,1.369858c0.632813,0.262115 0.885529,0.200607 1.369843,0.684921c0.484314,0.484329 1.369873,0.684937 2.05481,0.684937c0.684906,0 0.684906,0.684921 1.369843,0.684921c0.684937,0 0.684937,0.684937 1.369873,0.684937c0.684906,0 0.684906,0.684921 1.369843,0.684921c0.684937,0 1.159882,0.314255 2.054779,0.684937c0.632813,0.262115 0.684937,0.684921 1.369873,0.684921c0.684906,0 0.684906,0.684937 1.369843,0.684937c0.684937,0 0.885559,0.200607 1.369873,0.684921c0.484314,0.484299 0.885529,0.200607 1.369843,0.684937c0.484314,0.484329 0.885559,0.200607 1.369873,0.684921c0.484314,0.484299 1.570465,0.200607 2.054779,0.684937c0.484314,0.484314 0.474945,0.999176 1.369843,1.369858c0.632782,0.262115 0.885559,0.200592 1.369873,0.684921c0.484314,0.484314 0.684937,0.684937 1.369843,1.369858c0.684937,0.684937 0.885559,0.885529 1.369873,1.369858c0.484314,0.484329 0.885529,0.200623 1.369843,0.684921c0.484314,0.484329 0.200623,0.885544 0.684937,1.369858c0.484314,0.484329 0.885529,0.200607 1.369843,0.684937c0.484314,0.484329 0.684937,0.684921 1.369873,0.684921l0,0.684937l0.684937,0"/>
   <path stroke="#02c9c9" fill="none" stroke-width="1.5" stroke-opacity="0.1" id="svg_73" d="m3580.123972,182.443674c1.030914,0 2.061859,0 3.092804,0c1.030914,0 2.061859,0 3.092773,0c1.030945,0 2.06189,0 3.092804,0c1.030945,0 2.061859,0 3.092804,0c2.061859,0 3.092804,0 4.123718,0c1.030945,0 2.06189,0 3.092804,0c1.030945,0 2.061859,0 3.092804,0c1.030945,0 2.061859,0 3.092804,0c1.030914,0 2.061859,0 3.092804,0c1.030914,0 2.061859,0 3.092773,0c1.030945,0 1.030945,0.515472 2.06189,0.515472c1.030914,0 2.3638,-0.728973 3.092773,0c0.728973,0.728973 1.030945,1.03093 2.06189,1.03093c1.030914,0 2.061859,0 3.092773,0c1.030945,0 1.030945,1.03093 2.06189,1.03093c1.030914,0 1.332886,0.301956 2.061859,1.030945c0.728973,0.728973 2.061859,0 3.092804,0c1.030914,0 1.030914,1.03093 2.061859,1.03093c1.030945,0 2.061859,0 3.092804,0c1.030914,0 2.14035,0.636398 3.092804,1.03093c1.346954,0.557938 2.061859,1.03093 4.123718,1.03093c1.030945,0 2.061859,1.03093 3.092804,1.03093c1.030914,0 2.061859,0 3.092804,0c1.030914,0 2.3638,-0.728973 3.092773,0c0.728973,0.728989 1.634857,-0.427017 3.092804,1.030945c0.728973,0.728973 1.030945,1.03093 2.061859,1.03093c1.030945,0 2.06189,0 3.092804,0c1.030945,0 1.030945,1.03093 2.061859,1.03093c1.030945,0 2.363831,-0.728973 3.092804,0c0.728973,0.728973 1.109406,0.636414 2.061859,1.03093c1.346985,0.557938 1.332916,1.332886 2.06189,2.061874c0.728973,0.728973 1.745819,0.472992 3.092773,1.03093c0.952454,0.394531 1.332916,0.301956 2.06189,1.03093c0.728973,0.728973 1.332886,0.301956 2.061859,1.03093c0.728973,0.728973 2.363831,-0.728989 3.092804,0c0.728973,0.728973 1.332886,0.301941 2.061859,1.03093c0.728973,0.728989 1.109375,0.636429 2.061859,1.030945c1.346985,0.557938 2.061859,1.03093 3.092804,1.03093c1.030914,0 1.030914,1.03093 2.061859,1.03093c1.030945,0 1.030945,1.03093 2.061859,1.03093c1.030945,0 2.363831,-0.728973 3.092804,0c0.728973,0.728973 0.714874,1.503937 2.061859,2.061874c0.952454,0.394531 2.363831,-0.728973 3.092804,0c0.728973,0.728973 1.030945,1.03093 2.061859,1.03093c1.030945,0 1.030945,1.03093 2.06189,1.03093c1.030914,0 1.030914,1.03093 2.061859,1.03093c1.030914,0 2.14035,0.636398 3.092804,1.03093c1.346985,0.557938 2.3638,0.301971 3.092773,1.030945c0.728973,0.728973 1.332916,0.301941 2.06189,1.03093c0.728973,0.728973 1.332886,0.301941 2.061859,1.03093c0.728973,0.728973 1.030914,1.03093 2.061859,1.03093l1.030945,0l0,1.030945"/>
   <path stroke="#02c9c9" fill="none" stroke-width="1.5" stroke-opacity="0.1" id="svg_72" d="m3581.154886,176.773554c0,-0.515472 1.030945,-0.515472 2.06189,-0.515472c1.030914,0 1.030914,-1.546402 3.092773,-1.546402c1.030945,0 2.089478,0.236847 3.092804,0c1.121796,-0.264816 2.183838,-0.029007 3.092804,-0.515457c1.638641,-0.876968 2.061859,-1.546402 3.092804,-1.546402c1.030914,0 2.061859,-0.515472 3.092804,-0.515472c1.030914,0 1.030914,-1.546402 2.061859,-1.546402c1.030914,0 1.030914,-0.515457 2.061859,-0.515457c1.030945,0 2.061859,-1.546402 3.092804,-1.546402c1.030914,0 2.363831,0.728989 3.092804,0c0.364502,-0.364487 1.030914,-0.515472 2.061859,-0.515472c1.030914,0 2.061859,0 3.092804,0c1.030914,0 2.061859,0 3.092773,0c1.030945,0 1.030945,-1.546394 2.06189,-1.546394c1.030914,0 2.061859,0 3.092773,0c1.030945,0 2.06189,0 3.092804,0c1.030945,0 2.061859,0 3.092804,0c1.030945,0 2.061859,0 3.092804,0c1.030945,0 2.061859,0 3.092804,0c1.030914,0 2.061859,0 3.092804,0c1.030914,0 2.061859,0 3.092773,0c1.030945,0 2.06189,0 3.092804,0c1.030945,0 2.061859,0 3.092804,0c1.030945,0 2.061859,0 3.092804,0c1.030914,0 2.061859,0 3.092804,0c1.030914,0 2.061859,0 3.092773,0c1.030945,0 2.06189,0 3.092804,0c1.030945,0 2.061859,0 3.092804,0c1.030945,0 2.061859,0 3.092804,0c1.030914,0 2.061859,0 3.092804,0c1.030914,0 2.061859,0 3.092773,0c1.030945,0 2.06189,0 3.092804,0c1.030945,0 1.332886,0.301956 2.061859,1.030937c0.728973,0.728989 2.06189,0 3.092804,0c1.030945,0 2.061859,0 3.092804,0c1.030945,0 2.061859,0 3.092804,0c1.030914,0 1.030914,1.03093 2.061859,1.03093c1.030945,0 2.061859,0 3.092804,0c1.030945,0 2.061859,0 3.092804,0c1.030914,0 2.061859,0 3.092804,0l0,1.03093"/>
   <path stroke="#02c9c9" fill="none" stroke-width="1.5" stroke-opacity="0.1" id="svg_71" d="m3431.154184,297.392664c0,-1.030914 0,-1.546387 0,-3.092789c0,-0.515457 0.682312,-1.814529 1.546402,-2.577332c1.393295,-1.229996 0.668549,-2.378265 2.061859,-3.608261c0.864105,-0.762817 1.699509,-0.831879 3.092804,-2.061859c0.86409,-0.762802 1.912491,-2.083984 2.061859,-2.577332c0.538589,-1.778809 1.699493,-2.378296 3.092804,-3.608276c0.86409,-0.762802 2.363815,-1.33287 3.092804,-2.061859c0.364487,-0.364487 1.197769,-1.814529 2.061859,-2.577332c1.393295,-1.229996 2.363815,-1.332886 3.092804,-2.061874c1.09346,-1.09346 0.881561,-1.568512 1.03093,-2.061859c0.538574,-1.778793 2.228699,-1.299057 3.092789,-2.061859c1.393326,-1.22998 1.912506,-1.568527 2.061874,-2.061874c0.538574,-1.778793 1.912491,-1.568512 2.061859,-2.061859c0.538574,-1.778793 0.968414,-2.514801 2.061874,-3.608261c0.728973,-0.728973 0.968384,-0.968399 2.061859,-2.061874c0.728973,-0.728973 1.152924,-0.028992 2.061874,-0.515457c1.638626,-0.876968 1.03093,-2.061874 2.061859,-2.061874c1.03093,0 1.058502,-1.309555 2.061859,-1.546402c1.121796,-0.264816 0.968399,-0.968384 2.061874,-2.061859c0.728973,-0.728973 2.183838,-0.029022 3.092789,-0.515472c1.638626,-0.876953 1.454178,-2.731293 3.092804,-3.608261c0.908951,-0.48645 2.554214,-0.283051 3.092804,-2.061859c0.149384,-0.493347 1.523285,-0.283081 2.061859,-2.061874c0.149368,-0.493347 0.423233,-1.184891 2.061859,-2.061859c0.908951,-0.486465 1.152924,-0.029022 2.061874,-0.515472c1.638626,-0.876968 1.152908,-1.575409 2.061859,-2.061859c1.638626,-0.876968 2.363831,-1.332901 3.092804,-2.061874c1.09346,-1.09346 0.666443,-1.697372 1.03093,-2.061859c0.728973,-0.728973 0.968399,-0.452927 2.061874,-1.546402c0.728973,-0.728973 1.03093,-0.515457 2.061859,-0.515457c1.03093,0 1.058502,-1.30954 2.061859,-1.546402c1.121796,-0.264816 0.968399,-0.968399 2.061874,-2.061874c0.728973,-0.728973 1.697372,-0.15097 2.061859,-0.515457c0.728973,-0.728973 2.089447,-1.30954 3.092804,-1.546402c1.12178,-0.264816 0.968399,-0.968399 2.061859,-2.061859c0.728973,-0.728973 2.486847,0.465012 3.092804,-0.515472c0.812988,-1.315445 0.940094,-1.797043 2.061859,-2.061859c1.003357,-0.236862 1.030945,-1.546402 2.061859,-1.546402c1.030945,0 2.363831,0.213501 3.092804,-0.515472c1.093475,-1.093475 1.332886,-0.817429 2.061859,-1.546402c0.364471,-0.364487 1.332916,0.213531 2.06189,-0.515457c1.093475,-1.093475 0.940063,-1.797058 2.061859,-2.061874c1.003326,-0.236862 1.08606,-1.072647 3.092804,-1.546387c1.121765,-0.264816 0.968384,-0.968399 2.061859,-2.061874c0.728973,-0.728973 1.697388,-0.15097 2.061859,-0.515457c0.728973,-0.728989 1.058533,-1.30954 2.061859,-1.546402c1.121796,-0.264816 0.968384,-0.968399 2.061859,-2.061874c0.728973,-0.728989 1.030945,-0.515457 2.06189,-0.515457c1.030914,0 1.058502,-1.30954 2.061859,-1.546402c1.121765,-0.264816 2.363831,-1.332886 3.092804,-2.061874c0.364471,-0.364487 1.523285,-0.283051 2.061859,-2.061859c0.149384,-0.493347 0.668549,-0.831879 2.061859,-2.061859c0.864105,-0.762817 1.030945,-2.061874 2.061859,-2.061874c1.030945,0 1.523285,-0.283066 2.061859,-2.061859c0.149384,-0.493362 0.217957,-0.746429 1.030945,-2.061874c0.605988,-0.980484 0.940094,-2.312515 2.061859,-2.577332c1.003357,-0.236862 0.666443,-1.697372 1.030945,-2.061859c0.728973,-0.728973 1.332886,-0.817413 2.061859,-1.546402c0.364471,-0.364487 1.030945,-0.515457 1.030945,-2.061859c0,-0.515472 0.217926,-0.746429 1.030914,-2.061874c0.605988,-0.980484 0.881561,-2.083969 1.030945,-2.577332c0.538574,-1.778793 1.523285,-1.829453 2.061859,-3.608261c0.149384,-0.493347 1.030945,-2.577332 1.030945,-4.639191c0,-1.546402 1.030914,-3.608276 1.030914,-4.123734c0,-2.061874 1.030945,-3.608269 1.030945,-5.670135l0,-2.061859l0,-0.515472l0,-1.546394"/>
   <path stroke="#02c9c9" fill="none" stroke-width="1.5" stroke-opacity="0.05" id="svg_70" d="m3506.927744,147.907434c-1.03093,0 -0.817429,0.301949 -1.546402,1.03093c-1.093475,1.093468 -1.546402,1.030937 -2.061859,1.030937c-1.546402,0 -1.546402,1.03093 -2.061874,1.03093c-1.546402,0 -1.697372,0.666443 -2.061859,1.03093c-0.728989,0.728981 -1.697388,0.666443 -2.061874,1.030937c-0.728973,0.728981 -1.081375,1.455894 -2.061859,2.061867c-1.315445,0.812988 -1.697388,0.666435 -2.061874,1.03093c-0.728973,0.728981 -0.817398,1.332886 -1.546387,2.061867c-0.364487,0.364494 -0.515472,1.03093 -2.061874,1.03093c-0.515457,0 -0.968384,-0.062531 -2.061859,1.030937c-0.728973,0.728981 0.213516,1.332886 -0.515472,2.061867c-1.093475,1.093468 -1.568512,0.881561 -2.061859,1.03093c-1.778793,0.538574 -2.378281,1.699501 -3.608261,3.092796c-0.762817,0.864098 -1.814529,2.228706 -2.577332,3.092796c-1.22998,1.393311 -1.868729,1.244141 -4.123734,3.092804c-1.437286,1.178299 -3.965164,2.789139 -5.670135,5.154663c-0.673935,0.935043 -2.893753,2.730408 -4.123734,4.123734c-0.762802,0.86409 -2.384186,2.27507 -4.639191,4.123734c-1.437286,1.178299 -1.868744,2.275055 -4.123734,4.123718c-1.437286,1.178299 -2.292816,1.248886 -3.608261,2.061874c-0.980484,0.605957 -0.283081,2.554214 -2.061874,3.092789c-0.493347,0.149368 -2.212845,0.666458 -2.577332,1.030945c-0.728973,0.728973 -1.697372,1.697372 -2.061859,2.061859c-0.728973,0.728973 -1.546402,1.03093 -1.546402,2.061859c0,1.030945 0.213516,1.332901 -0.515457,2.061874c-1.093475,1.093475 -1.797058,0.940079 -2.061874,2.061859c-0.473724,2.006714 -1.797043,3.001953 -2.061859,4.123734c-0.236862,1.003357 -0.669434,1.454163 -1.546402,3.092804c-0.48645,0.908951 0.94249,2.665771 -0.515472,4.123734c-1.09346,1.09346 -1.797043,0.940079 -2.061859,2.061859c-0.236862,1.003357 0,2.061859 -1.546402,3.092804l0,1.03093l0,1.03093l-0.515457,0"/>
   <path stroke="#02c9c9" fill="none" stroke-width="1.5" stroke-opacity="0.05" id="svg_69" d="m3598.680765,230.382044c0,1.030945 0.636383,1.109421 1.030914,2.061874c0.557953,1.346985 2.061859,2.061859 3.092804,4.123734c1.030945,2.061859 2.061859,4.123718 3.092804,6.185593c1.030914,2.061859 1.93573,4.191772 3.092804,6.185593c1.865723,3.214935 2.876129,5.235535 4.123718,8.247467c0.882172,2.129761 2.210632,5.086761 3.092804,7.216522c1.247589,3.011932 2.061859,6.185593 3.092804,9.278397c1.030914,3.092804 2.597351,6.225525 3.092773,9.278397c0.522217,3.218002 1.845215,6.266464 3.092804,9.278397c0.882172,2.129761 2.061859,6.185593 2.061859,8.247452l1.030945,2.061859l1.030945,3.092804"/>
   <path stroke="#02c9c9" fill="none" stroke-width="1.5" stroke-opacity="0.05" id="svg_68" d="m3627.546854,283.990549c0,1.03093 0.178436,1.910049 1.030945,3.092804c1.3479,1.870102 1.93573,5.222702 3.092804,7.216522c1.865692,3.21492 2.87616,5.23555 4.123718,8.247452c0.882172,2.129791 2.730804,6.387421 5.154663,10.309326c2.709961,4.384827 5.35083,7.094391 7.216553,10.309357c1.157043,1.993805 2.798065,5.372864 5.154663,8.247437c1.848663,2.255005 4.354858,5.054474 5.154663,7.216553c1.474731,3.986603 3.092773,8.247437 4.123718,12.371185c1.030945,4.123718 2.935303,10.351929 4.123718,14.433044c1.822968,6.260193 3.50415,11.235229 5.154663,18.556793c1.379059,6.117432 2.774506,13.476135 4.123749,18.556793c1.673523,6.301758 3.092804,13.40213 4.123718,18.556793l2.061859,6.185577"/>
   <path stroke="#02c9c9" fill="none" stroke-width="1.5" stroke-opacity="0.05" id="svg_67" d="m3484.762689,173.68075c-2.061874,2.061859 -3.358673,3.319153 -6.185593,6.185593c-3.337021,3.383682 -7.763046,8.221848 -10.309326,11.340271c-4.175064,5.113174 -8.298004,8.872635 -11.855728,14.433044c-2.484833,3.883575 -4.858185,9.175995 -6.701065,13.40213c-1.760422,4.037018 -3.395828,9.36853 -5.670135,14.43306c-1.888702,4.205856 -2.364883,8.337616 -4.639191,13.40213c-1.888718,4.205856 -4.421249,9.142609 -6.185593,13.402115c-2.495178,6.02388 -4.123734,10.309326 -6.185608,15.464005l-1.546402,3.092789"/>
   <path stroke="#02c9c9" fill="none" stroke-width="1.5" stroke-opacity="0.1" fill-opacity="null" id="svg_66" d="m3578.577555,199.454065c0,0 0.301971,0.301956 1.030945,1.03093c0.364502,0.364487 1.596863,1.455917 2.577332,2.061874c1.31543,0.812973 2.514801,-0.062546 3.608276,1.03093c0.728973,0.728973 -0.213531,1.332886 0.515442,2.061859c1.093475,1.093475 2.514801,-0.062515 3.608276,1.030945c0.728973,0.728973 -0.213501,1.332886 0.515472,2.061859c1.093475,1.09346 1.332886,0.301956 2.061859,1.03093c1.093475,1.09346 1.332886,0.301956 2.061859,1.03093c1.093475,1.093475 1.568542,0.881577 2.061859,1.030945c1.778809,0.538574 2.514801,0.968399 3.608276,2.061859c0.728973,0.728973 -0.213501,1.332886 0.515472,2.061874c1.093475,1.09346 1.568512,0.881546 2.061859,1.03093c1.778778,0.538574 1.332886,1.332886 2.061859,2.061859c1.093475,1.093475 1.829468,1.523285 3.608276,2.061874c0.493347,0.149368 0.746429,0.217957 2.061859,1.03093c0.980469,0.605957 1.332886,1.332886 2.061859,2.061859c0.364502,0.364487 0.968384,-0.062531 2.061859,1.03093c0.728973,0.728989 0.831909,0.668549 2.06189,2.061874c0.762787,0.86409 1.332886,1.332886 2.061859,2.061859c0.364502,0.364487 0.968384,-0.062531 2.061859,1.03093c0.728973,0.728989 1.184906,0.423264 2.061859,2.061874c0.48645,0.908951 -0.213501,1.332886 0.515472,2.061859c1.093475,1.09346 1.568512,0.881561 2.061859,1.03093c1.778809,0.538589 1.697388,1.697403 2.061859,2.061874c0.728973,0.728973 0.817444,1.332886 1.546417,2.061859c0.364502,0.364487 0.968384,-0.062531 2.061859,1.03093c0.728973,0.728989 0.831879,0.668579 2.061859,2.061874c0.762817,0.86409 0.968414,0.968384 2.06189,2.061859c0.728973,0.728989 -0.213531,1.332901 0.515442,2.061874c1.093475,1.093475 1.697388,0.666443 2.06189,1.03093c0.728973,0.728973 1.797028,0.940079 2.061859,2.061859c0.236877,1.003372 1.697357,1.697388 2.061859,2.061874c0.728973,0.728973 1.797028,1.971008 2.061859,3.092789c0.236877,1.003372 1.697388,1.697403 2.061859,2.061874c0.728973,0.728973 0.817444,2.363815 1.546417,3.092789c0.364502,0.364487 0.831879,0.668579 2.061859,2.061874c0.762817,0.86409 0.968384,0.968399 2.061859,2.061859c0.728973,0.728973 -0.213501,1.332886 0.515472,2.061874c1.093475,1.09346 1.697357,0.666443 2.061859,1.03093c0.728973,0.728973 1.797058,1.971008 2.061859,3.092789c0.236847,1.003372 1.797058,0.940094 2.06189,2.061874c0.236847,1.003357 0.817413,2.363815 1.546387,3.092804c0.364502,0.364487 0.968384,-0.062531 2.061859,1.03093c0.728973,0.728973 0.029022,1.152908 0.515472,2.061859c0.876953,1.638611 1.697357,1.697388 2.061859,2.061874c0.728973,0.728973 1.30957,1.058502 1.546417,2.061859c0.264801,1.12178 0.968384,0.968384 2.061859,2.061859c0.728973,0.728989 0.15097,1.697388 0.515472,2.061874c0.728973,0.728973 1.546387,1.03093 1.546387,2.061859c0,1.03093 0.029022,1.152924 0.515472,2.061874c0.876953,1.638611 1.30954,2.089432 1.546387,3.092789c0.264832,1.12178 0.968384,0.968414 2.061859,2.061874c0.728973,0.728973 0.15097,1.697357 0.515472,2.061859c0.728973,0.728973 0.817444,2.363831 1.546417,3.092804c0.364471,0.364471 -0.213531,1.332886 0.515442,2.061859c1.093475,1.093475 1.797058,0.940094 2.06189,2.061859c0.236877,1.003357 0.817413,1.332886 1.546387,2.061859c0.364502,0.364502 -0.213501,1.332916 0.515472,2.06189c1.093475,1.093475 0.817413,1.332886 1.546387,2.061859c0.364502,0.364502 -0.213501,1.332886 0.515472,2.061859c1.093475,1.093475 0.817413,1.332886 1.546387,2.061859c0.364502,0.364502 0.029022,1.152924 0.515472,2.061859c0.876984,1.638641 1.697388,1.697418 2.061859,2.06189c0.728973,0.728973 0.452942,0.968384 1.546417,2.061859c0.728973,0.728973 0.15097,1.697357 0.515472,2.061859c0.728973,0.728973 0.452911,0.968384 1.546387,2.061859c0.728973,0.728973 0.15097,1.697388 0.515472,2.06189c0.728973,0.728973 -0.728973,2.3638 0,3.092773c1.093475,1.093475 1.546387,1.030945 1.546387,2.06189c0,1.030914 0.515472,2.061859 0.515472,3.092773c0,1.030945 0,2.06189 0,3.092804c0,1.030945 1.546417,1.030945 1.546417,2.061859c0,1.030945 0,2.06189 0,3.092804c0,1.030945 0,2.061859 0,3.092804c0,1.030945 -0.236847,2.089447 0,3.092804c0.264801,1.121765 0.515442,2.061859 0.515442,3.092804c0,1.030914 0,2.061859 0,3.092773l1.546417,0l0,1.030945"/>
  </g>
 </g>
</svg>