<svg id="e4bbe722-77af-4dff-9d23-13f94132c30a" data-name="Layer 1" xmlns="http://www.w3.org/2000/svg" width="921" height="653" viewBox="0 0 921.71991 653.40956">
 <title>hacker_mindset</title>

 <g>
  <title>background</title>
  <rect x="-1" y="-1" width="923.71991" height="655.40956" id="canvas_background" fill="none"/>
 </g>
 <g>
  <title>Layer 1</title>
  <rect stroke="null" x="524.103814" y="275.664196" width="396.75193" height="202" fill="#3f3d56" id="svg_23"/>
  <ellipse cx="82.812294" cy="568.282978" rx="85" ry="6" fill="#d0cde1" id="svg_1"/>
  <ellipse cx="340.812294" cy="632.782978" rx="221" ry="10.5" fill="#d0cde1" id="svg_2"/>
  <polygon points="455.81234860420227,208.28342151641846 459.81234860420227,201.28342151641846 439.81234860420227,197.28342151641846 437.81234860420227,207.28342151641846 440.81234860420227,215.28342151641846 455.81234860420227,208.28342151641846 " fill="#ff3e7a" id="svg_3"/>
  <polygon points="455.81234860420227,208.28342151641846 459.81234860420227,201.28342151641846 439.81234860420227,197.28342151641846 437.81234860420227,207.28342151641846 440.81234860420227,215.28342151641846 455.81234860420227,208.28342151641846 " opacity="0.2" id="svg_4"/>
  <circle cx="444.312294" cy="177.782978" r="26" fill="#ffb8b8" id="svg_5"/>
  <polygon points="422.31234860420227,177.78342151641846 401.31234860420227,212.78342151641846 432.31234860420227,230.78342151641846 448.31234860420227,193.78342151641846 422.31234860420227,177.78342151641846 " fill="#ffb8b8" id="svg_6"/>
  <path d="m420.31231,218.78298l-27,-11s-41,7 -45,20s-4,118 -4,118s-10,26 4,27c0,0 -4,6 0,7s45,0 61,5s48,9 48,4l0,-9s7,-7 3,-19s-9,-38 -9,-38s30,-66 27,-74s-39.627,-32.73752 -39.627,-32.73752l-18.373,2.73752z" fill="#ff3e7a" id="svg_7"/>
  <polygon points="358.31234860420227,345.78342151641846 359.31234860420227,353.78342151641846 373.31234860420227,336.78342151641846 368.31234860420227,336.78342151641846 358.31234860420227,345.78342151641846 " fill="#ffb8b8" id="svg_8"/>
  <path d="m420.31231,218.78298l-29,-7s-6,-5 -6,-11s9,-15 15,-21a5.53494,5.53494 0 0 1 4.02,-1.67005c5.94,-0.05 13.14,7.74006 13.14,7.74006l-7.99,13.32995l-0.36,0.59l11.19,19.01004z" fill="#ff3e7a" id="svg_9"/>
  <path d="m442.66531,206.84167l17.147,-5.55869s5.5,21.5 -0.5,22.5s-39,-2 -39,-2l22.353,-14.94131z" fill="#ff3e7a" id="svg_10"/>
  <path d="m350.31231,374.78298l-13,74s-5,9 -3,13s3,4 0,6s-7,0 -6,5a51.04342,51.04342 0 0 1 1,9l-28,96s-18,8 -5,13s26,9 29,4s0,-11 0,-11l46,-110s7,-10 7,-16s23,-49 23,-49s1,43 2,46s-2,9 -2,13s-2,4 0,6s2,25 2,25s-12,89 -5,90s27,-1 27,-5s-3,-5 -3,-5l13,-76s-1,-5 1,-9s2,-4 2,-6s-1,-3 0,-4a4.93754,4.93754 0 0 0 1,-3s-2,-6 -1,-7s23,-76 16,-85s-104,-14 -104,-14z" fill="#2f2e41" id="svg_11"/>
  <path d="m399.31231,585.78298l-7,16s-16,18 -4,22s16,3 16,3s5,1 5,3s40,17 43,4s-31,-37 -31,-37l0,-12l-22,1z" fill="#2f2e41" id="svg_12"/>
  <path d="m322.17759,593.18909l1.51424,17.39847s9.40163,22.17227 -3.24739,22.12362s-16.119,-2.2756 -16.119,-2.2756s-5.05717,-0.65191 -5.69692,1.243s-43.33621,3.31188 -42.02021,-9.96472s41.20659,-25.13994 41.20659,-25.13994l3.83841,-11.36952l20.52428,7.98469z" fill="#2f2e41" id="svg_13"/>
  <path d="m354.31231,223.78298s-6,-1 -10,7s-34,72 -19,92s29,26 29,26l3,1l15,-16l-5,-7s0,-7 -4,-8s-4,2 -5,-2s4,-1 -1,-5s-1,-6 -1,-6l-2,-82z" fill="#ff3e7a" id="svg_15"/>
  <polygon points="460.31234860420227,357.28342151641846 459.31234860420227,365.28342151641846 445.31234860420227,348.28342151641846 450.31234860420227,348.28342151641846 460.31234860420227,357.28342151641846 " fill="#ffb8b8" id="svg_16"/>
  <path d="m458.81231,245.28298s14,-7 18,1s31.5,68 16.5,88s-29,26 -29,26l-3,1l-15,-16l5,-7s0,-7 4,-8s4,2 5,-2s-4,-1 1,-5s1,-6 1,-6l-3.5,-72z" fill="#ff3e7a" id="svg_17"/>
  <polygon points="363.81234860420227,263.28342151641846 352.81234860420227,307.28342151641846 365.81234860420227,323.28342151641846 359.81234860420227,303.28342151641846 363.81234860420227,263.28342151641846 " opacity="0.2" id="svg_18"/>
  <path d="m417.47231,185.85299l-7.99,13.32995c-5.02,-1.74 -5.44,-13.38995 -5.15,-21.07c5.94,-0.04999 13.14,7.74005 13.14,7.74005z" opacity="0.2" id="svg_19"/>
  <path d="m247.57647,605.5492c0.17358,17.79415 -10.34427,24.10956 -23.39225,24.23685q-0.45462,0.00443 -0.905,-0.00133q-0.90726,-0.01071 -1.796,-0.06514c-11.78438,-0.71893 -20.9982,-7.1609 -21.15964,-23.70942c-0.16706,-17.12566 21.50989,-38.95143 23.13581,-40.56545l0.00287,-0.00148c0.06177,-0.06151 0.09339,-0.09227 0.09339,-0.09227s23.84725,22.4055 24.02082,40.19824z" fill="#d0cde1" id="svg_20"/>
  <path d="m213.58701,519.7162c0.12253,12.56057 -7.30184,17.01851 -16.51218,17.10836q-0.32091,0.00314 -0.63879,-0.00094q-0.64042,-0.00756 -1.2678,-0.046c-8.31838,-0.50748 -14.82226,-5.05475 -14.93621,-16.73606c-0.11793,-12.0887 15.18345,-27.49513 16.33116,-28.63444l0.002,-0.001c0.0436,-0.04342 0.06592,-0.06513 0.06592,-0.06513s16.83338,15.81561 16.9559,28.37521z" fill="#d0cde1" id="svg_21"/>
  <ellipse cx="196.812294" cy="535.057668" rx="60" ry="4.23529" fill="#d0cde1" id="svg_22"/>
  <rect x="618.080103" y="337.702258" width="40.17978" height="3.34831" fill="#ff3e7a" id="svg_24"/>
  <rect x="671.653143" y="337.702258" width="40.17978" height="3.34831" fill="#ff3e7a" id="svg_25"/>
  <rect x="749.501453" y="368.674168" width="40.17978" height="3.34831" fill="#ff3e7a" id="svg_26"/>
  <rect x="803.911573" y="368.674168" width="40.17978" height="3.34831" fill="#ff3e7a" id="svg_27"/>
  <rect x="726.063253" y="337.702258" width="118.02809" height="3.34831" fill="#ff3e7a" id="svg_28"/>
  <rect x="618.080103" y="368.674168" width="118.02809" height="3.34831" fill="#ff3e7a" id="svg_29"/>
  <rect x="618.080103" y="399.646078" width="118.02809" height="3.34831" fill="#ff3e7a" id="svg_30"/>
  <rect x="762.057633" y="399.646078" width="82.03371" height="3.34831" fill="#ff3e7a" id="svg_31"/>
  <polygon stroke="null" points="585.526611328125,421.7228317260742 571.390625,407.58785247802734 585.526611328125,393.4518356323242 588.3546142578125,396.2798385620117 577.046630859375,407.58785247802734 588.3546142578125,418.8948287963867 585.526611328125,421.7228317260742 " fill="#ff3e7a" id="svg_32"/>
  <polygon points="860.1710834503174,351.1304016113281 857.3430805206299,348.3023986816406 868.6510639190674,336.993408203125 857.3430805206299,325.6864013671875 860.1710834503174,322.8583984375 874.3070697784424,336.993408203125 860.1710834503174,351.1304016113281 " fill="#ff3e7a" id="svg_33"/>
  <rect x="1011.873485" y="1725.8848" width="28.86361" height="4.00006" transform="rotate(-73.13997650146484 1026.3051757812495,1727.8847656249998) " fill="#ff3e7a" id="svg_34"/>
  <path d="m90.27946,541.55484l74.0679,-110.14639l-73.91642,121.996l0.15457,12.39424q-8.11088,0.06185 -16.06418,-0.27013l3.6736,-159.31973l-0.10065,-1.22909l0.13556,-0.23748l0.35161,-15.05475l-81.11309,-117.76675l81.01738,106.49915l0.28751,3.1821l2.77474,-120.37228l-70.05985,-122.09715l70.25938,100.95121l-0.73336,-249.38034l0.00157,-0.83l0.02384,0.81631l4.65074,196.54523l63.85118,-79.83679l-63.64218,96.76873l1.39359,107.67021l58.75622,-105.082l-58.54025,120.91136l0.77576,59.87006l85.4474,-146.378l-85.18764,167.26411l1.73507,133.13217z" fill="#d0cde1" id="svg_35"/>
  <!-- Created with Method Draw - http://github.com/duopixel/Method-Draw/ -->
  <!-- Created with Method Draw - http://github.com/duopixel/Method-Draw/ -->
  <rect fill="#ff3e7a" stroke-width="null" x="447.696134" y="157.361814" width="23.744265" height="10.958892" id="svg_98" transform="rotate(13.465218544006348 459.568267822266,162.84126281738284) "/>
  <g id="svg_97" transform="rotate(34.13799285888672 448.54718017578125,178.4013671875) " stroke="null">
   <g id="svg_95" transform="matrix(0.21247280370781152,0,0,0.20273273334979777,-1344.9736223771856,-425.2738485383503) " stroke="null">
    <title>background</title>
    <rect fill="none" id="svg_93" height="655.40956" width="923.71991" y="2649.985535" x="7979.317522" stroke="null"/>
   </g>
   <g id="svg_96" transform="matrix(0.21247280370781152,0,0,0.20273273334979777,-1344.9736223771856,-425.2738485383503) " stroke="null">
    <title>Layer 1</title>
    <path stroke-opacity="0.1" id="svg_92" d="m8433.53404,2803.66635c0,0 -60,20 -60,20c0,0 -36,21 -36.35995,20.29522c0.35995,0.70478 -27.64005,23.70478 -28,23c0.35995,0.70478 -28.64005,32.70478 -28.64005,32.70478c0,0 -17,28 -17.35995,27.29522c0.35995,0.70478 -6.64005,25.70478 -6.64005,25.70478c0,0 1,28 1,28c0,0 8,24 8,24c0,0 14,24 14,24c0,0 17,35 16.64005,34.29522c0.35995,0.70478 29.35995,29.70478 29,29c0.35995,0.70478 18.35995,16.70478 18,16c0.35995,0.70478 13.35995,-46.29522 13,-47c0.35995,0.70478 25.35995,-43.29522 25.35995,-43.29522c0,0 22,-44 21.64005,-44.70478c0.35995,0.70478 14.35995,-37.29522 14,-38c0.35995,0.70478 22.35995,-51.29522 22,-52c0.35995,0.70478 26.35995,13.70478 26,13c0.35995,0.70478 20.35995,16.70478 20.35995,16.70478c0,0 24,27 23.64005,26.29522c0.35995,0.70478 16.35995,40.70478 16,40c0.35995,0.70478 10.35995,36.70478 10.35995,36.70478c0,0 2,8 2,8c0,0 8,-22 8,-24c0,-2 4,-36 3.64005,-36.70478c0.35995,0.70478 -4.64005,-47.29522 -5,-48c0.35995,0.70478 -3.64005,-33.29522 -4,-34c0.35995,0.70478 -6.64005,-23.29522 -6.64005,-25.29522c0,-2 -12,-32 -12.35995,-32.70478c0.35995,0.70478 -17.64005,-19.29522 -18,-20c0.35995,0.70478 -31.64005,-3.29522 -32,-4c0.35995,0.70478 -37.64005,4.70478 -37.64005,4.70478z" stroke-width="0" fill="#00ffff" stroke="#099999"/>
    <path d="m8718.31746,2940.18552c0,1 0,2 0,3c0,2 0,4 0,8c0,2 0,5 0,7c0,2 -0.48627,3.82376 -1,6c-0.45953,1.9465 0,3 0,4l-1,1l0,1l0,1" id="svg_91" fill-opacity="null" stroke-opacity="null" stroke-width="0" fill="none" stroke="#fff"/>
    <path d="m8441.56282,2872.13184c0.95239,0 1.73694,0.4631 3.8096,0.95239c0.92691,0.2188 1.90479,0 2.85718,0c0.95239,0 2.85718,0.9524 3.80957,0.9524c0.95242,0 0.95242,0.95239 1.90481,0.95239c0.9524,0 2.18375,-0.67345 2.85718,0c0.67343,0.67344 0.9524,0.95239 1.90479,0.95239c0.95239,0 0.95239,0.9524 1.90478,0.9524c0.9524,0 1.90482,0.95239 2.85721,0.95239c0.95239,0 1.9773,-0.36447 2.85718,0c1.24435,0.51543 1.90478,0.9524 2.85718,0.9524c0.95239,0 1.90481,0.95239 2.8572,0.95239c0.9524,0 1.9773,0.58794 2.85718,0.95241c1.24436,0.51542 2.90814,1.46715 4.762,1.90478c2.07263,0.48929 2.6893,2.36791 4.76196,2.8572c0.92691,0.21881 1.97729,0.58792 2.85718,0.95239c1.24435,0.51543 1.23138,1.23134 1.90481,1.90478c0.67343,0.67345 1.61283,0.43697 2.85718,0.9524c0.87988,0.36447 1.23132,0.27896 1.90479,0.9524c0.67346,0.67345 0.95239,0.9524 1.90478,0.9524c0.95239,0 1.0249,0.58792 1.90479,0.95239c1.24438,0.51543 1.23132,1.23135 1.90478,1.9048c0.67346,0.67345 0.95239,0.95239 1.90479,0.95239c0.95245,0 1.23138,0.27895 1.90484,0.9524c0.67346,0.67344 0.27893,1.23134 0.95239,1.90478c0.67347,0.67345 1.6128,1.38938 2.85718,1.9048c0.87989,0.36447 0.9524,0.95239 1.90479,1.90479c0.95239,0.95239 1.23132,2.18374 1.90478,2.85719c0.67346,0.67345 1.23133,0.27895 1.90479,0.95239c0.67346,0.67345 0.27893,2.18376 0.95239,2.8572c0.67346,0.67343 0.27893,1.23135 0.95239,1.90478c0.67347,0.67343 1.23133,0.27896 1.90479,0.95239c0.67346,0.67343 0.27893,1.23136 0.95239,1.90479c0.67346,0.67346 1.38941,2.56521 1.90485,3.8096c0.3645,0.87988 0.27893,1.23135 0.95239,1.90478c0.67346,0.67344 0.58795,1.02491 0.95239,1.90479c0.51545,1.24435 1.38935,1.61282 1.90479,2.85721c0.36444,0.87991 0.95239,0.95239 0.95239,1.90478c0,0.9524 0.27893,2.18375 0.95239,2.85718c0.67347,0.67343 1.23133,0.27896 1.90479,0.95239c0.67346,0.67343 0.27893,1.23136 0.95239,1.90479c0.67346,0.67346 0.9524,0.95242 0.9524,1.90481c0,0.9524 0.27893,1.23136 0.95239,1.90479c0.67346,0.67343 0.27893,1.23135 0.95239,1.90478c0.67346,0.67344 1.23132,0.27897 1.90479,0.9524c0.67346,0.67343 0.27893,2.18374 0.95239,2.85721c0.67346,0.67343 0.27893,1.23135 0.95239,1.90478c0.67346,0.67343 1.38935,0.66043 1.90479,1.90479c0.36444,0.87988 0.95245,0.95239 0.95245,1.90478c0,0.95239 0.58795,1.0249 0.95239,1.90479c0.51545,1.24435 1.38935,1.61285 1.90479,2.8572c0.36444,0.87989 0.27893,1.23136 0.95239,1.90479c0.67346,0.67343 0.27893,1.23135 0.9524,1.90478c0.67346,0.67343 -0.36445,1.97727 0,2.85718c0.51544,1.24439 0.27893,2.18378 0.95239,2.85721c0.67346,0.67343 0.95239,0.95239 0.95239,1.90478l0,0.9524" id="svg_90" fill-opacity="null" stroke-opacity="0.1" fill="none" stroke="#099999"/>
    <path d="m8442.99141,2861.65548c0.47619,0 1.42862,0 3.3334,0c0.9524,0 1.90479,0 2.85718,0c1.90479,0 2.85718,0 3.8096,0c0.9524,0 1.90479,0 2.85718,0c0.95239,0 1.90479,0 2.85718,0c0.95239,0 1.90478,0 2.85718,0c0.95242,0 1.90481,0 2.8572,0c0.9524,0 1.90479,0 2.85718,0c0.9524,0 1.90479,0 2.85718,0c0.95242,0 1.90482,0 2.85721,0c0.95239,0 1.97729,-0.36447 2.85718,0c1.24435,0.51542 1.61282,1.38936 2.85717,1.90479c0.87992,0.36449 1.90482,0 2.85721,0c0.9524,0 0.9524,0.95239 1.90479,0.95239c0.95239,0 1.61282,0.43697 2.85718,0.95239c0.87988,0.36447 1.23135,0.27895 1.90478,0.9524c0.67346,0.67346 1.61285,0.43696 2.85721,0.9524c0.87988,0.36449 2.18371,-0.67344 2.85718,0c0.67346,0.67345 0.95239,0.95241 1.90478,0.95241c0.95239,0 0.95239,0.95238 1.90479,0.95238c0.95239,0 0.95239,0.95239 1.90478,0.95239c0.95239,0 0.95239,0.95241 1.90479,0.95241c0.95245,0 1.97735,0.58793 2.85724,0.9524c1.24438,0.51543 1.61279,1.38936 2.85717,1.90479c0.87989,0.36447 1.9773,0.58792 2.85718,0.95239c1.24439,0.51543 1.61279,1.38936 2.85718,1.90479c0.87988,0.36447 1.61279,1.38937 2.85718,1.90479c0.87988,0.36447 0.95239,0.95239 1.90478,0.95239c0.9524,0 1.0249,0.58792 1.90485,0.95241c1.24438,0.51542 1.23132,1.23134 1.90478,1.90478c0.67347,0.67345 2.18372,0.27895 2.85718,0.9524c0.67346,0.67344 0.6604,1.38935 1.90479,1.9048c0.87988,0.36447 1.0249,0.58792 1.90478,0.95239c1.24439,0.51543 1.23132,1.23134 1.90479,1.90478c0.67346,0.67345 0.95239,0.9524 1.90478,0.9524c0.95239,0 0.6604,1.38937 1.90479,1.9048c0.87988,0.36447 1.23132,0.27894 1.90478,0.95239c0.67346,0.67345 0.27893,1.23135 0.95239,1.9048c0.67347,0.67349 1.23139,0.27895 1.90485,0.95239c0.67346,0.67345 0.95239,0.9524 0.95239,1.90479l0.9524,0" id="svg_89" fill-opacity="null" stroke-opacity="0.1" fill="none" stroke="#099999"/>
    <path d="m8447.27721,2852.13152c0,0 0.97787,0.2188 1.90478,0c1.03632,-0.24464 0.89462,-0.89462 1.90479,-1.90478c0.67343,-0.67345 1.56808,-0.13948 1.90481,-0.4762c0.67343,-0.67345 1.93027,-1.20979 2.85718,-1.42861c1.03632,-0.24465 1.34338,-1.09463 2.85718,-1.90479c0.83969,-0.44939 1.93026,0.21881 2.85718,0c1.03634,-0.24463 1.34341,-1.09463 2.8572,-1.90479c0.83969,-0.4494 1.90479,0 2.85718,0c0.95239,0 1.90479,0 2.85718,0c0.95242,0 0.95242,-0.47619 1.90482,-0.47619c0.95239,0 1.90478,0 2.85717,0c0.9524,0 1.90479,0 2.85718,0c0.95239,0 1.90482,0 2.85721,0c0.95239,0 1.90478,0 2.85718,0c0.95239,0 1.90478,0 2.85718,0c0.95239,0 1.90478,0 2.8572,0c0.9524,0 1.90479,0 2.85718,0c0.95239,0 1.90479,0 2.85718,0c0.95239,0 1.90478,0 2.85718,0c0.95239,0 1.90478,0 2.85718,0c0.95239,0 1.90484,0 2.85723,0c0.9524,0 1.90479,0 2.85718,0c0.9524,0 1.90479,0 2.85718,0c0.95239,0 0.95239,0.47619 1.90479,0.47619c0.95239,0 1.90478,0 2.85717,0c0.9524,0 0.9524,0.9524 1.90479,0.9524c0.95239,0 1.23132,0.27895 1.90478,0.95239c0.67347,0.67345 1.90485,0 2.85724,0c0.9524,0 0.9524,0.95241 1.90479,0.95241c0.95239,0 1.23132,0.27894 1.90478,0.95238c0.67346,0.67345 0.9524,0.95239 1.90479,0.95239l0.95239,0l0,0.95241" id="svg_88" fill-opacity="null" stroke-opacity="0.1" fill="none" stroke="#099999"/>
    <path d="m8422.51491,2855.9411c-0.4762,0 -1.92523,0.81439 -2.38098,0.95239c-1.64328,0.49754 -2.19712,0.61761 -3.33341,1.9048c-0.70468,0.79826 -1.40408,1.09463 -1.90478,1.90478c-1.1196,1.81156 -2.67328,1.57003 -3.80957,2.8572c-0.70468,0.79826 -2.20258,3.05413 -4.2858,4.76197c-1.32779,1.08854 -3.7323,2.30372 -5.23816,3.80959c-0.75293,0.75293 -2.48181,2.72104 -3.8096,3.80957c-2.08322,1.70784 -2.32455,3.90021 -3.80957,4.76199c-1.84192,1.06893 -1.75836,1.99337 -2.38098,2.85718c-1.57511,2.18532 -2.17459,2.44504 -3.8096,3.80959c-1.82801,1.5256 -1.56806,2.52047 -1.90479,2.85719c-0.67343,0.67345 -1.2001,2.05891 -1.90478,2.85718c-1.13629,1.28717 -1.54032,1.97729 -1.90479,2.85719c-1.03088,2.48874 -2.11816,2.10614 -3.3334,2.85719c-0.90579,0.5598 -1.6763,3.01131 -2.38098,3.80957c-1.1363,1.28717 -1.44904,1.7668 -1.90479,1.9048c-1.64328,0.49755 -0.99899,2.29738 -1.90481,2.8572c-1.21524,0.75104 -2.00083,0.24359 -3.33338,1.90478c-1.22854,1.53156 -1.6763,3.0113 -2.38098,3.80957c-1.13629,1.28717 -3.10492,3.01136 -3.8096,3.8096c-1.13629,1.28717 -2.34433,1.45371 -3.33337,2.85718c-1.13102,1.60492 -2.30372,2.30371 -3.80957,3.8096c-0.75293,0.75293 -2.59552,2.59549 -3.80961,3.80957c-2.42813,2.42813 -3.58108,4.91614 -4.28576,5.71439c-1.13629,1.28717 -1.40412,2.04703 -1.90482,2.85718c-1.1196,1.81155 -2.32321,0.89462 -3.33337,1.90478c-0.67343,0.67343 -0.7685,1.57004 -1.90479,2.85721c-0.70468,0.79828 -1.6763,2.05893 -2.38098,2.85718c-1.13629,1.28717 -1.69012,2.35962 -3.3334,2.85718c-0.45575,0.138 -0.7685,0.61761 -1.90479,1.90478c-0.70468,0.79825 -0.89462,0.89465 -1.90478,1.90482c-0.67343,0.67343 -0.0268,1.06509 -0.4762,1.90478c-0.81015,1.5138 -1.23135,2.18375 -1.90478,2.85718c-1.0102,1.01019 -1.20014,1.10654 -1.90482,1.90478c-1.13629,1.28717 -0.99899,2.2974 -1.90479,2.85721c-1.21524,0.75107 -1.66015,0.86847 -1.90478,1.90479c-0.21881,0.92691 -0.99899,2.29736 -1.90479,2.85718c-1.21524,0.75106 -1.2001,2.05892 -1.90481,2.8572c-1.13629,1.28714 -2.52323,1.34339 -3.33338,2.85718c-0.4494,0.83969 -0.76849,1.57001 -1.90478,2.85718c-0.70468,0.79825 -2.13635,1.82086 -2.38098,2.85718c-0.21881,0.92694 -1.20014,2.05896 -1.90482,2.85721c-1.13629,1.28717 -1.44903,1.76678 -1.90478,1.90478c-1.64328,0.49756 -1.66016,1.82086 -1.90479,2.85718c-0.21881,0.92691 -0.75512,1.23135 -1.42859,1.90481c-0.33673,0.33674 -1.09463,0.391 -1.90478,1.90479c-0.4494,0.83969 -0.89462,0.89459 -1.90482,1.90478c-0.67343,0.67344 -0.76849,1.57001 -1.90478,2.85718c-0.70468,0.79825 -0.77878,1.02564 -1.90479,1.90482c-1.54757,1.20831 -2.48178,2.72104 -3.80957,3.80957c-2.08322,1.70782 -3.31842,4.0058 -4.28579,5.71438c-1.32721,2.34412 -2.67856,3.15705 -3.80957,4.76197c-0.98908,1.40347 -3.33341,2.85718 -3.33341,3.8096l-0.4762,0l0,0.95239l-1.42858,0" id="svg_87" fill-opacity="null" stroke-opacity="0.1" fill="none" stroke="#099999"/>
    <path d="m8437.27705,2882.60819c0,-0.47621 -0.33673,-2.04427 0,-2.381c0.33674,-0.33671 0.86878,-0.99901 1.42859,-1.90478c0.75107,-1.21523 0.27896,-1.23134 0.9524,-1.90479c1.01016,-1.01018 -1.01017,-2.32322 0,-3.33339c0.67343,-0.67344 0.95239,-0.47619 0.95239,-1.9048c0,-0.47619 0.27896,-1.23134 0.95239,-1.90478c0.33673,-0.33672 0.27896,-1.23134 0.95239,-1.90479c0.33674,-0.33673 0,-1.9048 0,-2.38099c0,-1.42859 0,-1.90479 0,-3.33339c0,-0.4762 0,-1.90479 0,-2.38098c0,-1.42861 0,-1.9048 0,-3.33339c0,-0.4762 0,-1.90479 0,-2.381c0,-1.42859 0,-1.90478 0,-3.33337c0,-0.4762 0,-1.9048 0,-2.381c0,-1.42859 0,-1.90479 0,-3.33339c0,-0.4762 0.33674,-2.04427 0,-2.38098c-0.67343,-0.67345 -0.95239,-1.42859 -0.95239,-1.9048c0,-1.42859 -0.47619,-1.42859 -0.47619,-1.90479c0,-1.42858 -1.42859,-1.42858 -1.42859,-1.90478c0,-1.4286 -0.4762,-1.9048 -0.4762,-3.33339c0,-0.4762 -0.5481,-1.15938 -1.42859,-2.381c-0.8353,-1.15893 -0.29397,-1.46484 -0.47619,-1.90478c-0.77314,-1.86655 -1.56806,-1.56809 -1.90479,-1.9048c-1.01016,-1.01016 -0.41843,-0.89459 -1.42862,-1.90479c-1.01016,-1.01016 0.53397,-2.32321 -0.47619,-3.33339c-1.01017,-1.01016 -0.83997,-0.83998 -1.90479,-1.90478c-1.06482,-1.0648 -1.72256,-1.94106 -1.90478,-2.381c-0.77314,-1.86654 -1.90479,-1.90478 -1.90479,-3.33337l-1.42859,-0.47621l-0.47623,-1.42859l0,-0.4762" id="svg_86" fill-opacity="null" stroke-opacity="0.1" fill="none" stroke="#099999"/>
    <path d="m8275.84596,3017.84838c0,-0.47619 -0.05777,-0.89462 0.95239,-1.90478c0.67344,-0.67342 0.9524,-0.4762 1.90479,-0.4762l0,-1.42859l0.95239,-0.47618" id="svg_85" fill-opacity="null" stroke-opacity="0.1" fill="none" stroke="#099999"/>
    <path d="m8422.51491,2854.98871c0.95239,0 2.18374,0.67344 2.85718,0c0.67343,-0.67344 1.345,-0.52281 1.90481,-1.4286c0.75104,-1.21524 1.34497,-2.90379 1.90479,-3.80957c0.75106,-1.21524 0.4631,-3.16554 0.95239,-5.23819c0.10941,-0.46346 1.39001,-2.43194 0.95239,-4.28579c-0.48929,-2.07265 -1.21011,-3.18739 -0.95239,-3.80956c0.72894,-1.75981 0,-3.33339 0,-3.80959l0,-1.4286l0,-0.47621l0,-1.42859" id="svg_84" fill-opacity="null" stroke-opacity="0.1" fill="none" stroke="#099999"/>
   </g>
  </g>
  <rect stroke="null" transform="rotate(-31.56352424621582 602.4954223632812,404.49877929687494) " id="svg_14" height="29.250906" width="2.928377" y="389.873316" x="601.031232" fill-opacity="null" stroke-opacity="null" stroke-width="null" fill="#ff3e7a"/>
 </g>
</svg>