<svg id="b52d7e2d-d80f-4111-b6ed-d15502ee1edd" data-name="Layer 1" xmlns="http://www.w3.org/2000/svg" width="711.1879" height="669.68268" viewBox="0 0 711.1879 669.68268">
 <title>feeling_proud</title>

 <g>
  <title>background</title>
  <rect x="-1" y="-1" width="430.313253" height="425.493976" id="canvas_background" fill="none"/>
 </g>
 <g>
  <title>Layer 1</title>
  <polygon points="516.3259887695312,420.2576904296875 516.3259887695312,605.2526550292969 547.27001953125,655.6826477050781 549.625,659.5186462402344 671.7219848632812,659.5186462402344 674.1890258789062,420.2576904296875 516.3259887695312,420.2576904296875 " fill="#e6e6e6" id="svg_1"/>
  <polygon points="516.3259887695312,420.2576904296875 516.3259887695312,605.2526550292969 547.27001953125,655.6826477050781 549.1690063476562,420.2576904296875 516.3259887695312,420.2576904296875 " opacity="0.1" id="svg_2"/>
  <polygon points="221.56597900390625,415.3236999511719 221.56597900390625,600.3196716308594 190.62197875976562,650.7496643066406 188.26698303222656,654.5846252441406 66.16999816894531,654.5846252441406 63.70299530029297,415.3236999511719 221.56597900390625,415.3236999511719 " fill="#e6e6e6" id="svg_3"/>
  <polygon points="221.56597900390625,415.3236999511719 221.56597900390625,600.3196716308594 190.62197875976562,650.7496643066406 188.72299194335938,415.3236999511719 221.56597900390625,415.3236999511719 " opacity="0.1" id="svg_4"/>
  <polygon points="711.18798828125,411.62469482421875 711.18798828125,422.72369384765625 47.66999435424805,422.72369384765625 47.66999435424805,406.690673828125 109.33499908447266,374.62469482421875 656.9229736328125,374.62469482421875 711.18798828125,411.62469482421875 " fill="#e6e6e6" id="svg_5"/>
  <polygon points="711.18798828125,411.62469482421875 711.18798828125,422.72369384765625 47.66999435424805,422.72369384765625 47.66999435424805,406.690673828125 711.18798828125,411.62469482421875 " opacity="0.1" id="svg_6"/>
  <polygon points="142.63497924804688,467.1226806640625 113.03500366210938,467.1226806640625 100.7020034790039,458.48968505859375 156.20098876953125,458.48968505859375 142.63497924804688,467.1226806640625 " fill="#3f3d56" id="svg_7"/>
  <polygon points="142.63497924804688,502.888671875 113.03500366210938,502.888671875 100.7020034790039,494.25567626953125 156.20098876953125,494.25567626953125 142.63497924804688,502.888671875 " fill="#3f3d56" id="svg_8"/>
  <polygon points="142.63498651981354,546.3839893341064 113.0350033044815,546.3839893341064 100.70200312137604,537.7499561309814 156.2009960412979,537.7499561309814 142.63498651981354,546.3839893341064 " fill="#3f3d56" id="svg_9"/>
  <polygon points="142.63498651981354,596.9489917755127 113.0350033044815,596.9489917755127 100.70200312137604,588.3159351348877 156.2009960412979,588.3159351348877 142.63498651981354,596.9489917755127 " fill="#3f3d56" id="svg_10"/>
  <polygon points="595.2570190429688,472.0556945800781 624.8569946289062,472.0556945800781 637.1900024414062,463.4226989746094 581.6909790039062,463.4226989746094 595.2570190429688,472.0556945800781 " fill="#3f3d56" id="svg_11"/>
  <polygon points="595.2570190429688,507.8216857910156 624.8569946289062,507.8216857910156 637.1900024414062,499.1886901855469 581.6909790039062,499.1886901855469 595.2570190429688,507.8216857910156 " fill="#3f3d56" id="svg_12"/>
  <polygon points="595.2570263147354,551.316972732544 624.8570019006729,551.316972732544 637.1900097131729,542.6839771270752 581.6909862756729,542.6839771270752 595.2570263147354,551.316972732544 " fill="#3f3d56" id="svg_13"/>
  <polygon points="595.2570263147354,601.8819751739502 624.8570019006729,601.8819751739502 637.1900097131729,593.2489795684814 581.6909862756729,593.2489795684814 595.2570263147354,601.8819751739502 " fill="#3f3d56" id="svg_14"/>
  <path d="m615.413834,160.695946l-249.18543,0a9.4227,9.4227 0 0 0 -9.42389,9.42389l0,167.85773a9.4227,9.4227 0 0 0 9.42389,9.42388l94.5929,0l-3.54389,22.62623s-20.25281,10.75927 -6.01251,11.07574s81.32764,0 81.32764,0s12.97448,0 -7.59479,-11.39221l-3.33362,-22.30976l93.7497,0a9.42266,9.42266 0 0 0 9.42388,-9.42388l0,-167.85773a9.42266,9.42266 0 0 0 -9.42388,-9.42389z" fill="#3f3d56" id="svg_15"/>
  <rect x="365.823356" y="170.664126" width="249.99557" height="139.87094" fill="#f2f2f2" id="svg_16"/>
  <circle cx="490.821136" cy="166.233826" r="1.58225" fill="#f2f2f2" id="svg_17"/>
  <circle cx="490.821136" cy="334.585266" r="6.01255" fill="#f2f2f2" id="svg_18"/>
  <polygon points="601.4085998535156,397.63640904426575 601.4085998535156,400.80144810676575 431.1585693359375,400.80144810676575 431.1585693359375,398.2694046497345 431.392578125,397.63640904426575 435.58856201171875,386.24444127082825 597.9276428222656,386.24444127082825 601.4085998535156,397.63640904426575 " fill="#3f3d56" id="svg_19"/>
  <path d="m392.858684,394.717918c-0.31011,1.3259 -1.481,2.72467 -4.1265,4.04741c-9.4935,4.74675 -28.797,-1.2658 -28.797,-1.2658s-14.87315,-2.53161 -14.87315,-9.17706a11.86592,11.86592 0 0 1 1.30377,-0.77528c3.99133,-2.11163 17.2253,-7.32222 40.69051,0.22062a9.78618,9.78618 0 0 1 4.46035,2.923a4.667,4.667 0 0 1 1.34202,4.02711z" fill="#3f3d56" id="svg_20"/>
  <path d="m393.35294,394.61062c-11.62,4.45247 -21.97744,4.78472 -32.607,-2.59805a23.34328,23.34328 0 0 0 -13.88583,-4.57268c3.99133,-2.11163 17.2253,-7.32222 40.69051,0.22062a9.78618,9.78618 0 0 1 4.46035,2.923a4.667,4.667 0 0 1 1.34197,4.02711z" opacity="0.1" id="svg_21"/>
  <ellipse cx="383.419006" cy="391.020702" rx="4.11385" ry="1.2658" fill="#f2f2f2" id="svg_22" stroke="null"/>
  <polygon points="601.9023571014404,397.80286979675293 601.9023571014404,400.9678783416748 431.65238761901855,400.9678783416748 431.65238761901855,398.4358654022217 431.88639640808105,397.80286979675293 601.9023571014404,397.80286979675293 " opacity="0.1" id="svg_23"/>
  <path d="m82.137694,115.144876s3.4534,28.7784 -9.20909,31.08068s11.51136,41.4409 11.51136,41.4409l57.55681,6.90682l-13.81364,-46.04545s-9.20909,-3.45341 -3.4534,-26.47613s-42.59204,-6.90682 -42.59204,-6.90682z" fill="#ffb8b8" id="svg_25"/>
  <polygon points="47.02799570560455,602.4869556427002 51.63299524784088,665.7999439239502 75.8059993982315,665.7999439239502 68.90000116825104,602.4869556427002 47.02799570560455,602.4869556427002 " fill="#ffb8b8" id="svg_26"/>
  <polygon points="224.302978515625,489.8396911621094 227.7559814453125,542.7916564941406 254.2329864501953,531.2806701660156 243.87197875976562,487.5376892089844 224.302978515625,489.8396911621094 " fill="#ffb8b8" id="svg_27"/>
  <path d="m29.760994,367.819276s1.15113,66.7659 8.058,88.63749s5.75568,23.02272 4.60455,26.47613s-2.30228,1.15114 -2.30228,6.90682s-2.30227,96.69544 0,104.7534s-6.90681,21.87159 0,23.02272s39.13863,0 40.28977,-6.90682s-9.20909,-9.20909 -4.60454,-13.81363s11.51136,-98.99772 11.51136,-98.99772l16.11591,-65.61476l29.92954,-34.53409l63.31244,0l19.56932,75.975s-8.058,21.87159 -2.30228,21.87159s40.28977,6.90682 40.28977,-18.41818s-11.51136,-100.14886 -13.81361,-102.45113s1.15113,-10.36023 -2.30228,-13.81364s-43.74317,-27.62727 -58.70794,-32.23181s-35.95778,-10.08487 -35.95778,-10.08487l-113.68995,49.2235z" fill="#2f2e41" id="svg_28"/>
  <path d="m254.232554,522.071526s-17.267,-5.75568 -25.325,11.51137s-4.60454,21.87159 -4.60454,21.87159s26.47613,9.20909 31.08068,4.60454c2.00333,-2.00334 8.36471,-2.69926 14.91273,-2.84621c9.97289,-0.22381 12.62625,-14.33323 3.20748,-17.61885q-0.42145,-0.147 -0.85317,-0.25539c-9.20909,-2.30227 -18.41818,-17.26705 -18.41818,-17.26705z" fill="#2f2e41" id="svg_29"/>
  <circle cx="108.038256" cy="99.604536" r="34.534092" fill="#ffb8b8" id="svg_30"/>
  <path d="m63.143944,160.614756s56.40567,11.51136 70.21931,-6.90682s19.56931,51.80113 19.56931,51.80113l6.90682,73.67272l-10.36023,40.28977s-54.1034,43.74318 -71.37044,47.19658s-43.74318,5.75569 -43.74318,5.75569s8.058,-127.77613 8.058,-130.0784s20.72041,-81.73067 20.72041,-81.73067z" fill="#ff3e7a" id="svg_31"/>
  <path d="m80.298274,139.025576s-12.54979,-7.18923 -16.0032,-0.28241s-35.68522,24.17385 -39.13863,24.17385s6.90682,95.54431 2.30227,107.05567s-26.47613,95.54433 -13.81363,102.45114s3.45341,-6.90682 16.11591,10.36022s74.82385,17.267 78.27726,10.36023s-27.62727,-58.708 -21.87159,-107.05567s14.96477,-115.11362 6.90682,-124.32271s-12.77521,-22.74032 -12.77521,-22.74032z" fill="#2f2e41" id="svg_32"/>
  <path d="m121.851944,146.801116l1.60341,-5.518s47.89544,15.87824 50.19772,26.23847s1.15113,82.88181 -6.90682,88.63749s-19.56932,14.96477 -11.51136,28.7784s17.267,28.77841 24.17386,29.92954s19.56931,9.20909 16.1159,17.267s-44.89431,-6.90682 -44.89431,-6.90682s-27.62727,-20.72045 -26.47613,-52.95227s-2.30227,-125.47381 -2.30227,-125.47381z" fill="#2f2e41" id="svg_33"/>
  <path d="m162.141654,282.635196l-27.62727,51.80113s-40.28976,41.4409 -17.267,46.04545s35.68522,-37.9875 35.68522,-37.9875l29.92955,-42.592l-20.7205,-17.26708z" fill="#ffb8b8" id="svg_34"/>
  <path d="m162.141654,162.917016l10.72528,2.84686s24.95995,63.919 19.20427,107.66222s-9.20909,34.53409 -9.20909,34.53409s-9.20909,-20.72046 -29.92955,-16.11591l9.20909,-128.92726z" fill="#2f2e41" id="svg_36"/>
  <path d="m48.622884,657.432306c-2.77592,3.77228 -2.21935,9.16459 -4.67828,13.15075c-2.13144,3.45526 -6.14837,5.26695 -8.81439,8.32869a22.32616,22.32616 0 0 0 -2.26617,3.25987c-2.47311,4.14255 -4.4833,9.45174 -2.04761,13.61641c1.95936,3.35022 6.07786,4.65961 9.855,5.552c4.77407,1.128 9.73436,2.03071 14.56354,1.16876s9.54882,-3.819 11.27067,-8.41239a32.50011,32.50011 0 0 1 1.2051,-3.4007c2.61747,-5.15294 10.82749,-5.20864 13.50628,-10.33c1.87466,-3.584 0.15138,-7.91623 -1.57118,-11.57578l-5.26109,-11.1771c-1.74592,-3.70919 -8.82362,-1.57608 -12.51339,-2.46492c-4.81224,-1.15915 -9.78658,-2.43633 -13.24848,2.28441z" fill="#2f2e41" id="svg_37"/>
  <path d="m10.191674,305.657916l48.34772,74.82386s29.92954,37.98749 39.13863,20.72045s-32.23181,-46.04545 -32.23181,-46.04545l-31.08068,-57.55676l-24.17386,8.0579z" fill="#ffb8b8" id="svg_38"/>
  <path d="m34.365534,165.219296l-9.20909,-2.30228s-18.41818,5.75568 -23.02272,29.92954s-1.15114,120.86931 4.60454,122.02044s28.42725,-16.83663 32.05624,-13.02286s-7.88238,-15.75554 -4.429,-26.11577s0.00003,-110.50907 0.00003,-110.50907z" fill="#2f2e41" id="svg_39"/>
  <g id="f3c2397c-d780-4cc6-97d8-1503d8277a2c">
   <rect id="ad41612f-86f7-46b2-a964-3a5da7bcf3cf" x="437.406916" y="216.602426" width="29.75235" height="7.1626" fill="#ff3e7a"/>
   <rect id="b9a0b375-cc2a-4c59-8850-661af54e4f62" x="559.722146" y="216.602426" width="10.46842" height="7.1626" fill="#ff3e7a"/>
   <rect id="e174c2ab-9bc5-41ec-b37c-b06fbf8a9878" x="580.658986" y="216.602426" width="10.46842" height="7.1626" fill="#ff3e7a"/>
   <rect id="ba2479ac-4c7d-43b4-a028-73b1e20e4002" x="477.627676" y="216.602426" width="71.07506" height="7.1626" fill="#ff3e7a"/>
   <rect id="ac60ef86-00f2-480b-8171-28b6fdfc1958" x="399.940986" y="262.883876" width="29.75235" height="7.1626" fill="#ff3e7a"/>
   <rect id="b3d8298d-cd65-487a-8b19-4cee946356e7" x="522.256206" y="262.883876" width="10.46842" height="7.1626" fill="#ff3e7a"/>
   <rect id="ed27f15f-f0c4-4569-8330-a6688f8e356c" x="543.193046" y="262.883876" width="10.46842" height="7.1626" fill="#ff3e7a"/>
   <rect id="f685c005-adaf-4d60-acda-005b037d82a6" x="440.161756" y="262.883876" width="71.07506" height="7.1626" fill="#ff3e7a"/>
   <rect id="eca7c7fc-83f8-48ca-a588-6606db47af3f" x="522.807176" y="232.580556" width="29.75235" height="7.1626" fill="#ff3e7a"/>
   <rect id="a71b5b2f-f8b9-481d-a301-5e3357e5fe42" x="563.027946" y="232.580556" width="29.75235" height="7.1626" fill="#ff3e7a"/>
   <rect id="abb3a25a-f854-41fc-8391-e6ad9fbe2417" x="399.940986" y="232.580556" width="10.46842" height="7.1626" fill="#ff3e7a"/>
   <rect id="add2b425-b775-4eb5-9c25-8c4c14f957c9" x="420.877836" y="232.580556" width="10.46842" height="7.1626" fill="#ff3e7a"/>
   <rect id="b7159612-3b84-4b0b-a885-612eaab04c06" x="441.814656" y="232.580556" width="71.07506" height="7.1626" fill="#ff3e7a"/>
   <rect id="edfc7301-4de5-47dc-80e2-1ae2da982d6d" x="461.098586" y="248.007696" width="29.75235" height="7.1626" fill="#ff3e7a"/>
   <rect id="e1009f91-6275-4375-80fa-0d778e331fdc" x="420.877826" y="248.007696" width="29.75235" height="7.1626" fill="#ff3e7a"/>
   <rect id="a060fb9f-1f1a-4862-9a69-16dd49199e18" x="399.940996" y="248.007696" width="10.46842" height="7.1626" fill="#ff3e7a"/>
   <rect id="b6754d5f-104f-449c-b9a9-cf9ac82bf5fe" x="582.311886" y="248.007696" width="10.46842" height="7.1626" fill="#ff3e7a"/>
   <rect id="e6ed1ccd-2cfd-450f-a339-07df3a1ee6bb" x="500.768406" y="248.007696" width="71.07506" height="7.1626" fill="#ff3e7a"/>
  </g>
  <!-- Created with Method Draw - http://github.com/duopixel/Method-Draw/ -->
  <rect fill="#ff3e7a" stroke-width="null" x="95.882149" y="57.505832" width="31.654624" height="15.827312" id="svg_53"/>
  <!-- Created with Method Draw - http://github.com/duopixel/Method-Draw/ -->
  <g stroke="null" id="svg_81">
   <g stroke="null" transform="matrix(-0.32340630637990103,0,0,0.2932714563973965,685.1027355557316,-32.60145706812827) " id="svg_79">
    <title stroke="null" transform="translate(2.103459596633911,4.63919734954834) translate(5.35515022277832,0) translate(-3.2291088104248047,-3.4442427158355713) translate(933.6046142578125,-121.86418151855469) translate(308.70233154296875,153.20068359375) translate(0,3.3425519466400146) translate(0,0.000006359222879837034) translate(0,-33.49711227416992) translate(0,0.000003133537120447727) translate(0,0.7748600840568542) translate(0.000014782994185225107,0) translate(-0.000014375915270647965,0) translate(0.000014782994185225107,0) translate(-0.000014375915270647965,0) translate(0.000014782994185225107,0) translate(-0.000014375915270647965,0) translate(0.000014782994185225107,0) translate(-0.000014375915270647965,0) translate(22.518693923950195,0) translate(-1648.3033447265625,0) translate(1617.239501953125,0) translate(-2.795053720474243,-1.4407517910003662) translate(-12.840707778930664,3.3094663619995117) translate(0,-13.237865447998047) translate(40.11073303222656,56.82353591918945) translate(-119.06727600097656,-81.31423950195312) translate(-2006.52294921875,-2200.4619140625) translate(2331.7431640625,0) translate(0,2381.906494140625) ">background</title>
    <rect stroke="null" fill="none" id="svg_77" height="482" width="642" y="147.736492" x="1467.61921"/>
    <g stroke="null" display="none" id="svg_75">
     <rect stroke="null" fill="url(#gridpattern)" stroke-width="0" y="148.736492" x="1468.61921" height="703" width="711" id="svg_76"/>
    </g>
   </g>
   <g stroke="null" transform="matrix(-0.32340630637990103,0,0,0.2932714563973965,685.1027355557316,-32.60145706812827) " id="svg_80">
    <title stroke="null" transform="translate(2.103459596633911,4.63919734954834) translate(5.35515022277832,0) translate(-3.2291088104248047,-3.4442427158355713) translate(933.6046142578125,-121.86418151855469) translate(308.70233154296875,153.20068359375) translate(0,3.3425519466400146) translate(0,0.000006359222879837034) translate(0,-33.49711227416992) translate(0,0.000003133537120447727) translate(0,0.7748600840568542) translate(0.000014782994185225107,0) translate(-0.000014375915270647965,0) translate(0.000014782994185225107,0) translate(-0.000014375915270647965,0) translate(0.000014782994185225107,0) translate(-0.000014375915270647965,0) translate(0.000014782994185225107,0) translate(-0.000014375915270647965,0) translate(22.518693923950195,0) translate(-1648.3033447265625,0) translate(1617.239501953125,0) translate(-2.795053720474243,-1.4407517910003662) translate(-12.840707778930664,3.3094663619995117) translate(0,-13.237865447998047) translate(40.11073303222656,56.82353591918945) translate(-119.06727600097656,-81.31423950195312) translate(-2006.52294921875,-2200.4619140625) translate(2331.7431640625,0) translate(0,2381.906494140625) ">Layer 1</title>
    <path stroke="#000" id="svg_74" d="m1841.96394,218.159962c0,0 -119.40909,36.48611 -114.10202,33.16919c5.30706,-3.31691 -23.88183,11.27754 -36.48612,17.24798c-12.6043,5.97046 -37.81288,35.15936 -37.81289,34.62865c0.00001,0.53071 -11.94091,40.99712 -11.94091,40.46642c0,0.5307 -3.9803,39.00697 -3.9803,38.47627c0,0.5307 3.31692,15.12514 3.31692,15.12514c0,0 5.30707,18.57475 5.30707,18.04405c0,0.5307 33.83258,78.81001 33.83258,78.2793c0,0.53071 7.96061,9.81809 7.96061,9.81809c0,0 0,-18.57475 -0.00001,-19.10546c0.00001,0.53071 15.92123,-37.94556 15.92122,-38.47627c0.00001,0.53071 29.85228,-45.90617 29.85228,-46.43687c0,0.5307 31.17905,-50.54986 31.17904,-51.08056c0.00001,0.5307 21.22829,-33.96526 21.22829,-34.49597c0,0.53071 11.27753,13.79838 11.27753,13.26768c0,0.5307 12.60429,25.07591 12.60429,24.54521c0,0.5307 11.27753,27.06605 11.27752,26.53535c0.00001,0.5307 36.48613,60.23526 36.48612,59.70455c0.00001,0.53071 16.5846,44.31405 16.5846,43.78335c0,0.5307 4.64369,25.73929 4.64369,25.73929c0,0 7.96061,-11.94091 7.96061,-12.47162c0,0.53071 15.92121,-10.08343 15.92121,-10.61414c0,0.53071 27.19874,-57.84708 27.19874,-58.37778c0,0.5307 7.29722,-66.47107 7.29722,-67.00178c0,0.53071 -2.65353,-29.32157 -2.65353,-29.85228c0,0.53071 -10.61414,-22.68773 -10.61414,-23.21843c0,0.5307 -9.95076,-17.38067 -9.95077,-17.91137c0.00001,0.5307 -4.64368,-13.40036 -4.64368,-13.93106c0,0.5307 -6.63384,-8.09328 -6.63384,-8.62399c0,0.53071 -47.76364,-43.25263 -47.76364,-43.78334c0,0.53071 -5.30707,-2.78621 -5.30707,-3.31692c0,0.53071 -7.96061,-0.13268 -7.96061,-0.13268l-0.00001,0z" stroke-width="0" fill="#0fffff"/>
    <path stroke="#02c9c9" fill="none" stroke-width="1.5" stroke-opacity="0.1" id="svg_73" d="m1785.66935,314.990185c0,-0.589966 0,-0.884949 0,-1.769913c0,-0.294983 0,-1.179947 0,-1.47493c0,-0.884949 0.294983,-0.884949 0.294983,-1.179932c0,-0.884964 0.589966,-1.179947 0.589966,-2.064896c0,-0.294998 0.504486,-1.192596 0.589966,-1.47493c0.308197,-1.01796 0.124725,-1.312119 0.589966,-2.064896c0.346771,-0.561096 0.83316,-0.913818 1.179962,-1.47493c0.46524,-0.752777 0.172791,-0.762772 0.589966,-1.179947c0.625763,-0.625748 -0.46524,-1.312103 0,-2.064896c0.346771,-0.561096 0.589966,-1.179932 0.589966,-1.474915c0,-0.884964 0.172791,-0.762772 0.589966,-1.179947c0.625763,-0.625763 0,-1.179947 0,-2.064896c0,-0.294983 0.243195,-0.913834 0.589966,-1.47493c0.46524,-0.752777 0,-1.179947 0,-2.064896c0,-0.294983 0.243195,-0.913834 0.589966,-1.47493c0.46524,-0.752777 0,-1.179932 0,-2.064896c0,-0.294983 0.589996,-1.179932 0.589996,-1.47493c0,-0.884949 0,-1.179932 0,-2.064896c0,-0.294983 0,-1.179932 0,-2.359879c0,-0.294983 0,-1.179947 0,-1.47493c0,-1.179932 0,-2.064896 0,-3.244827c0,-0.294998 0,-1.179947 0,-1.47493c0,-1.179947 0,-2.064903 0,-3.244843c0,-0.294983 0,-1.179939 0,-1.474922c0,-1.179947 0,-2.064896 0,-2.359886c0,-1.179939 -0.589996,-2.064896 -0.589996,-2.359879c0,-0.884956 0.108124,-1.186569 0,-2.064896c-0.14859,-1.207146 -0.700989,-1.203636 -1.179932,-2.359886c-0.112885,-0.27253 -0.135345,-1.089508 -0.294983,-1.474922c-0.338654,-0.817596 -0.406006,-0.908653 -0.884949,-2.064903c-0.112885,-0.27253 -0.135345,-1.089508 -0.294983,-1.474922c-0.338654,-0.817596 0.517456,-1.346985 0,-2.064896c-0.545441,-0.756767 -1.031372,-1.15274 -1.179962,-2.359886c-0.036041,-0.29277 -0.848907,-1.182152 -0.884949,-1.474922c-0.14859,-1.207138 -0.554169,-1.43914 -1.179932,-2.064896c-0.834351,-0.834351 -0.294983,-1.47493 -0.294983,-2.359886c0,-0.294983 -0.339508,-0.718178 -0.884949,-1.474922c-0.517456,-0.717911 0.222443,-1.346992 -0.295013,-2.064903c-0.545441,-0.756744 -0.676361,-1.266335 -0.884949,-1.474922c-0.208588,-0.208588 -0.294983,-0.884956 -0.294983,-1.179939l-0.884949,0l0,-0.884956"/>
    <path stroke="#02c9c9" fill="none" stroke-width="1.5" stroke-opacity="0.1" id="svg_72" d="m1791.015084,305.722133c0.684937,0 1.422028,0.080338 2.05481,0.342453c0.894897,0.370682 1.159882,0.999176 2.054779,1.369858c0.632782,0.2621 1.159882,0.314255 2.054779,0.684937c0.632813,0.262115 1.369843,0.684921 2.054779,0.684921c0.684937,0 1.421997,0.422836 2.054779,0.684937c0.894897,0.370682 1.249146,1.017975 2.739716,1.369858c0.666626,0.157364 1.388184,0.527557 2.05481,0.684921c1.49057,0.351883 2.106934,1.107742 2.739716,1.369858c0.894897,0.370682 1.570465,0.885544 2.054779,1.369858c0.484314,0.484329 1.388153,0.527573 2.054779,0.684937c1.49057,0.351868 2.054779,0.684921 2.739716,1.369843c0.684937,0.684937 1.159882,0.999176 2.054779,1.369858c1.265594,0.524216 2.106903,0.422821 2.739716,0.684937c0.894897,0.370682 1.421997,0.422821 2.054779,0.684921c0.894897,0.370682 0.885559,0.885544 1.369873,1.369858c0.968628,0.968628 2.106903,0.422821 2.739716,0.684937c0.894897,0.370682 1.159882,0.999176 2.054779,1.369858c0.632813,0.262115 1.159882,0.999176 2.054779,1.369858c0.632813,0.262115 0.885559,0.200607 1.369873,0.684921c0.484314,0.484299 1.570465,0.200607 2.054779,0.684937c0.484314,0.484314 0.474945,0.999176 1.369843,1.369858c0.632782,0.262115 1.422028,0.422806 2.05481,0.684921c0.894897,0.370682 1.421967,0.422821 2.054779,0.684937c0.894897,0.370682 1.159882,0.999176 2.054779,1.369858c0.632813,0.262115 1.369873,0.684921 2.054779,0.684921c0.684937,0 1.570496,0.200607 2.05481,0.684937c0.484314,0.484314 1.159882,0.999176 2.054779,1.369858c0.632782,0.2621 1.159882,0.999161 2.054779,1.369843c0.632813,0.262115 2.054779,0.684937 2.739716,1.369858c0.684937,0.684937 1.497253,1.159286 2.739716,2.054794c0.785797,0.56636 1.268982,0.803482 2.054779,1.369858c1.242462,0.895508 2.106903,1.107742 2.739716,1.369858c0.894897,0.370682 1.369873,1.369858 2.054779,2.054779c0.684937,0.684937 1.844818,1.684113 2.739716,2.054794c0.632813,0.262115 1.369873,0.684937 2.054779,1.369858c0.684937,0.684937 2.05481,1.369858 2.739716,2.054779c0.684937,0.684937 1.497253,1.159286 2.739716,2.054794c0.785797,0.566376 1.107758,0.737061 1.369873,1.369843c0.370697,0.894913 1.421967,1.107742 2.054779,1.369858c0.894897,0.370682 1.159882,1.684113 2.054779,2.054794c0.632782,0.262115 1.369873,0.684921 2.05481,1.369858c0.684906,0.684921 1.684082,0.474945 2.054779,1.369858c0.262115,0.632782 0.474945,1.684097 1.369843,2.054779c0.632813,0.262115 0.885559,0.200607 1.369873,0.684937c0.484314,0.484314 0.422791,0.737061 0.684906,1.369858c0.370697,0.894897 1.107758,0.737061 1.369873,1.369858c0.370697,0.894897 1.369843,1.369858 2.054779,2.054779c0.684937,0.684937 0.684937,1.369858 1.369873,2.054794c0.684906,0.684921 1.369843,1.369858 2.054779,2.054779c0.684937,0.684921 1.369843,1.369858 2.054779,2.054779c0.684937,0.684937 0.684937,1.369858 1.369873,2.054794c0.684906,0.684921 1.107727,1.421997 1.369843,2.054779c0.370697,0.894913 1.369873,1.369873 2.054779,2.054794c0.684937,0.684937 1.369873,1.369858 2.054779,2.054779c0.684937,0.684937 1.369873,1.369858 2.05481,2.054794c0.684906,0.684921 1.369843,1.369858 2.054779,2.054779c0.684937,0.684937 1.159882,1.684113 2.054779,2.054794c0.632813,0.262115 1.107758,0.737061 1.369873,1.369843c0.370667,0.894897 1.159882,1.684113 2.054779,2.054794c0.632813,0.262115 0.885529,0.885529 1.369843,1.369858c0.484314,0.484329 0.885559,0.200592 1.369873,0.684921c0.484314,0.484329 0.474976,0.999176 1.369843,1.369858c0.632813,0.262115 0.885559,0.200607 1.369873,0.684937c0.484314,0.484314 0.200592,0.885529 0.684906,1.369858c0.484314,0.484329 0.885559,0.200592 1.369873,0.684921c0.484314,0.484329 0.999176,1.159897 1.369843,2.054794c0.262115,0.632782 0.885559,0.885529 1.369873,1.369858c0.484314,0.484314 0.200623,0.885529 0.684937,1.369858c0.484314,0.484314 0.31424,1.159897 0.684906,2.054779c0.262115,0.632797 0.684937,0.684937 0.684937,1.369858c0,0.684921 0.422821,1.421997 0.684937,2.054779c0.370697,0.894913 0.200623,1.57048 0.684937,2.054794c0.484314,0.484314 0.422791,0.737061 0.684906,1.369843c0.370697,0.894897 0.200623,1.570496 0.684937,2.05481c0.484314,0.484314 0.422821,0.73703 0.684937,1.369843c0.370697,0.894897 0.422852,1.421997 0.684937,2.054779c0.370667,0.894897 0.422791,1.422028 0.684906,2.05481c0.370697,0.894897 0.885559,0.885529 1.369873,1.369843c0.484314,0.484314 0.200623,0.885559 0.684937,1.369873c0.484314,0.484314 0.31424,1.159882 0.684906,2.054779c0.262085,0.632782 0,1.369843 0.684937,1.369843l0,0.684937"/>
    <path stroke="#02c9c9" fill="none" stroke-width="1.5" stroke-opacity="0.1" id="svg_71" d="m1794.439736,298.872845c0,0 0.703247,-0.157349 1.369843,0c0.7453,0.175934 1.369873,0.342453 2.05481,0.342453c0.684906,0 1.421967,-0.262115 2.054779,0c0.894897,0.370682 1.369843,0.684937 2.054779,0.684937c0.684937,0 1.369873,0 2.054779,0c0.684937,0 1.369873,0 2.05481,0c0.684906,0 1.421967,-0.262115 2.054779,0c0.894897,0.370682 1.369843,0.684921 2.054779,0.684921c0.684937,0 1.369873,0 2.054779,0c0.684937,0 0.885559,0.200607 1.369873,0.684937c0.484314,0.484299 1.369843,0 2.054779,0c0.684937,0 1.369843,0 2.054779,0c0.684937,0 0.684937,0.684921 1.369873,0.684921c0.684906,0 1.369843,0 2.054779,0c0.684937,0 0.885529,0.200607 1.369843,0.684937c0.484314,0.484329 1.369873,0 2.05481,0c0.684906,0 0.684906,0.684921 1.369843,0.684921c0.684937,0 1.369873,0 2.054779,0c0.684937,0 1.159882,0.314255 2.054779,0.684937c0.632782,0.262115 1.369873,0 2.05481,0c0.684906,0 0.684906,0.684921 1.369843,0.684921c0.684937,0 1.369873,0.684937 2.054779,0.684937c0.684937,0 1.421997,-0.262115 2.05481,0c0.894867,0.370682 1.369843,0.684921 2.054779,0.684921c0.684937,0 1.159882,0.314255 2.054779,0.684937c0.632813,0.262115 1.159912,0.31424 2.054779,0.684921c0.632813,0.262115 1.570496,-0.484329 2.05481,0c0.484314,0.484329 0.684906,0.684937 1.369843,0.684937c0.684937,0 1.369843,0.684921 2.054779,0.684921c0.684937,0 1.159882,0.314255 2.054779,0.684937c0.632782,0.262115 0.885559,0.200607 1.369873,0.684921c0.484314,0.484329 1.159882,0.314255 2.054779,0.684937c0.632813,0.262115 1.249146,1.017975 2.739716,1.369858c0.666626,0.157364 1.159882,0.999176 2.054779,1.369858c0.632782,0.262115 1.159912,0.31424 2.05481,0.684921c0.632782,0.2621 1.159882,0.314255 2.054779,0.684937c0.632782,0.2621 1.159882,0.31424 2.054779,0.684921c0.632813,0.262115 1.421967,-0.262115 2.054779,0c0.894897,0.370682 0.885559,0.885529 1.369873,1.369858c0.484314,0.484299 1.159882,0.31424 2.054779,0.684921c0.632813,0.262115 1.159882,0.314255 2.054779,0.684937c0.632813,0.262115 1.369873,0.684921 2.054779,0.684921c0.684937,0 1.570496,0.200607 2.05481,0.684937c0.484314,0.484314 0.474945,0.999176 1.369843,1.369858c0.632813,0.262115 0.737091,0.422806 1.369873,0.684921c0.894897,0.370682 1.369843,1.369858 2.054779,1.369858c0.684906,0 1.570465,0.200607 2.054779,0.684937c0.484314,0.484314 0.200623,0.885529 0.684937,1.369858c0.484314,0.484299 1.570465,0.200592 2.054779,0.684921c0.484314,0.484329 0.474976,0.999176 1.369843,1.369858c0.632813,0.262115 0.737061,0.422821 1.369873,0.684937c0.894897,0.370682 0.885529,0.885529 1.369843,1.369858c0.484314,0.484329 0.737061,0.422806 1.369873,0.684921c0.894897,0.370682 1.159882,0.999176 2.054779,1.369858c0.632813,0.262115 0.737061,0.422821 1.369873,0.684937c0.894867,0.370682 1.570465,0.885513 2.054779,1.369843c0.484314,0.484329 0.200623,0.885544 0.684937,1.369858c0.484314,0.484299 0.885529,0.200607 1.369843,0.684937c0.484314,0.484329 0.737061,0.422821 1.369843,0.684921c0.894897,0.370682 1.421997,0.422821 2.05481,0.684937c0.894867,0.370682 1.570465,0.200592 2.054779,0.684921c0.484314,0.484329 0.885529,0.200638 1.369843,0.684937c0.484314,0.484314 0.474976,0.999176 1.369873,1.369858c0.632813,0.262115 0.885529,0.200607 1.369843,0.684921c0.484314,0.484329 1.369873,0.684937 2.05481,0.684937c0.684906,0 0.684906,0.684921 1.369843,0.684921c0.684937,0 0.684937,0.684937 1.369873,0.684937c0.684906,0 0.684906,0.684921 1.369843,0.684921c0.684937,0 1.159882,0.314255 2.054779,0.684937c0.632813,0.262115 0.684937,0.684921 1.369873,0.684921c0.684906,0 0.684906,0.684937 1.369843,0.684937c0.684937,0 0.885559,0.200607 1.369873,0.684921c0.484314,0.484299 0.885529,0.200607 1.369843,0.684937c0.484314,0.484329 0.885559,0.200607 1.369873,0.684921c0.484314,0.484299 1.570465,0.200607 2.054779,0.684937c0.484314,0.484314 0.474945,0.999176 1.369843,1.369858c0.632782,0.262115 0.885559,0.200592 1.369873,0.684921c0.484314,0.484314 0.684937,0.684937 1.369843,1.369858c0.684937,0.684937 0.885559,0.885529 1.369873,1.369858c0.484314,0.484329 0.885529,0.200623 1.369843,0.684921c0.484314,0.484329 0.200623,0.885544 0.684937,1.369858c0.484314,0.484329 0.885529,0.200607 1.369843,0.684937c0.484314,0.484329 0.684937,0.684921 1.369873,0.684921l0,0.684937l0.684937,0"/>
    <path stroke="#02c9c9" fill="none" stroke-width="1.5" stroke-opacity="0.1" id="svg_70" d="m1792.742959,291.417568c1.030914,0 2.061859,0 3.092804,0c1.030914,0 2.061859,0 3.092773,0c1.030945,0 2.06189,0 3.092804,0c1.030945,0 2.061859,0 3.092804,0c2.061859,0 3.092804,0 4.123718,0c1.030945,0 2.06189,0 3.092804,0c1.030945,0 2.061859,0 3.092804,0c1.030945,0 2.061859,0 3.092804,0c1.030914,0 2.061859,0 3.092804,0c1.030914,0 2.061859,0 3.092773,0c1.030945,0 1.030945,0.515472 2.06189,0.515472c1.030914,0 2.3638,-0.728973 3.092773,0c0.728973,0.728973 1.030945,1.03093 2.06189,1.03093c1.030914,0 2.061859,0 3.092773,0c1.030945,0 1.030945,1.03093 2.06189,1.03093c1.030914,0 1.332886,0.301956 2.061859,1.030945c0.728973,0.728973 2.061859,0 3.092804,0c1.030914,0 1.030914,1.03093 2.061859,1.03093c1.030945,0 2.061859,0 3.092804,0c1.030914,0 2.14035,0.636398 3.092804,1.03093c1.346954,0.557938 2.061859,1.03093 4.123718,1.03093c1.030945,0 2.061859,1.03093 3.092804,1.03093c1.030914,0 2.061859,0 3.092804,0c1.030914,0 2.3638,-0.728973 3.092773,0c0.728973,0.728989 1.634857,-0.427017 3.092804,1.030945c0.728973,0.728973 1.030945,1.03093 2.061859,1.03093c1.030945,0 2.06189,0 3.092804,0c1.030945,0 1.030945,1.03093 2.061859,1.03093c1.030945,0 2.363831,-0.728973 3.092804,0c0.728973,0.728973 1.109406,0.636414 2.061859,1.03093c1.346985,0.557938 1.332916,1.332886 2.06189,2.061874c0.728973,0.728973 1.745819,0.472992 3.092773,1.03093c0.952454,0.394531 1.332916,0.301956 2.06189,1.03093c0.728973,0.728973 1.332886,0.301956 2.061859,1.03093c0.728973,0.728973 2.363831,-0.728989 3.092804,0c0.728973,0.728973 1.332886,0.301941 2.061859,1.03093c0.728973,0.728989 1.109375,0.636429 2.061859,1.030945c1.346985,0.557938 2.061859,1.03093 3.092804,1.03093c1.030914,0 1.030914,1.03093 2.061859,1.03093c1.030945,0 1.030945,1.03093 2.061859,1.03093c1.030945,0 2.363831,-0.728973 3.092804,0c0.728973,0.728973 0.714874,1.503937 2.061859,2.061874c0.952454,0.394531 2.363831,-0.728973 3.092804,0c0.728973,0.728973 1.030945,1.03093 2.061859,1.03093c1.030945,0 1.030945,1.03093 2.06189,1.03093c1.030914,0 1.030914,1.03093 2.061859,1.03093c1.030914,0 2.14035,0.636398 3.092804,1.03093c1.346985,0.557938 2.3638,0.301971 3.092773,1.030945c0.728973,0.728973 1.332916,0.301941 2.06189,1.03093c0.728973,0.728973 1.332886,0.301941 2.061859,1.03093c0.728973,0.728973 1.030914,1.03093 2.061859,1.03093l1.030945,0l0,1.030945"/>
    <path stroke="#02c9c9" fill="none" stroke-width="1.5" stroke-opacity="0.1" id="svg_69" d="m1793.773873,285.747448c0,-0.515472 1.030945,-0.515472 2.06189,-0.515472c1.030914,0 1.030914,-1.546402 3.092773,-1.546402c1.030945,0 2.089478,0.236847 3.092804,0c1.121796,-0.264816 2.183838,-0.029007 3.092804,-0.515457c1.638641,-0.876968 2.061859,-1.546402 3.092804,-1.546402c1.030914,0 2.061859,-0.515472 3.092804,-0.515472c1.030914,0 1.030914,-1.546402 2.061859,-1.546402c1.030914,0 1.030914,-0.515457 2.061859,-0.515457c1.030945,0 2.061859,-1.546402 3.092804,-1.546402c1.030914,0 2.363831,0.728989 3.092804,0c0.364502,-0.364487 1.030914,-0.515472 2.061859,-0.515472c1.030914,0 2.061859,0 3.092804,0c1.030914,0 2.061859,0 3.092773,0c1.030945,0 1.030945,-1.546394 2.06189,-1.546394c1.030914,0 2.061859,0 3.092773,0c1.030945,0 2.06189,0 3.092804,0c1.030945,0 2.061859,0 3.092804,0c1.030945,0 2.061859,0 3.092804,0c1.030945,0 2.061859,0 3.092804,0c1.030914,0 2.061859,0 3.092804,0c1.030914,0 2.061859,0 3.092773,0c1.030945,0 2.06189,0 3.092804,0c1.030945,0 2.061859,0 3.092804,0c1.030945,0 2.061859,0 3.092804,0c1.030914,0 2.061859,0 3.092804,0c1.030914,0 2.061859,0 3.092773,0c1.030945,0 2.06189,0 3.092804,0c1.030945,0 2.061859,0 3.092804,0c1.030945,0 2.061859,0 3.092804,0c1.030914,0 2.061859,0 3.092804,0c1.030914,0 2.061859,0 3.092773,0c1.030945,0 2.06189,0 3.092804,0c1.030945,0 1.332886,0.301956 2.061859,1.030937c0.728973,0.728989 2.06189,0 3.092804,0c1.030945,0 2.061859,0 3.092804,0c1.030945,0 2.061859,0 3.092804,0c1.030914,0 1.030914,1.03093 2.061859,1.03093c1.030945,0 2.061859,0 3.092804,0c1.030945,0 2.061859,0 3.092804,0c1.030914,0 2.061859,0 3.092804,0l0,1.03093"/>
    <path stroke="#02c9c9" fill="none" stroke-width="1.5" stroke-opacity="0.1" id="svg_68" d="m1643.773171,406.366558c0,-1.030914 0,-1.546387 0,-3.092789c0,-0.515457 0.682312,-1.814529 1.546402,-2.577332c1.393295,-1.229996 0.668549,-2.378265 2.061859,-3.608261c0.864105,-0.762817 1.699509,-0.831879 3.092804,-2.061859c0.86409,-0.762802 1.912491,-2.083984 2.061859,-2.577332c0.538589,-1.778809 1.699493,-2.378296 3.092804,-3.608276c0.86409,-0.762802 2.363815,-1.33287 3.092804,-2.061859c0.364487,-0.364487 1.197769,-1.814529 2.061859,-2.577332c1.393295,-1.229996 2.363815,-1.332886 3.092804,-2.061874c1.09346,-1.09346 0.881561,-1.568512 1.03093,-2.061859c0.538574,-1.778793 2.228699,-1.299057 3.092789,-2.061859c1.393326,-1.22998 1.912506,-1.568527 2.061874,-2.061874c0.538574,-1.778793 1.912491,-1.568512 2.061859,-2.061859c0.538574,-1.778793 0.968414,-2.514801 2.061874,-3.608261c0.728973,-0.728973 0.968384,-0.968399 2.061859,-2.061874c0.728973,-0.728973 1.152924,-0.028992 2.061874,-0.515457c1.638626,-0.876968 1.03093,-2.061874 2.061859,-2.061874c1.03093,0 1.058502,-1.309555 2.061859,-1.546402c1.121796,-0.264816 0.968399,-0.968384 2.061874,-2.061859c0.728973,-0.728973 2.183838,-0.029022 3.092789,-0.515472c1.638626,-0.876953 1.454178,-2.731293 3.092804,-3.608261c0.908951,-0.48645 2.554214,-0.283051 3.092804,-2.061859c0.149384,-0.493347 1.523285,-0.283081 2.061859,-2.061874c0.149368,-0.493347 0.423233,-1.184891 2.061859,-2.061859c0.908951,-0.486465 1.152924,-0.029022 2.061874,-0.515472c1.638626,-0.876968 1.152908,-1.575409 2.061859,-2.061859c1.638626,-0.876968 2.363831,-1.332901 3.092804,-2.061874c1.09346,-1.09346 0.666443,-1.697372 1.03093,-2.061859c0.728973,-0.728973 0.968399,-0.452927 2.061874,-1.546402c0.728973,-0.728973 1.03093,-0.515457 2.061859,-0.515457c1.03093,0 1.058502,-1.30954 2.061859,-1.546402c1.121796,-0.264816 0.968399,-0.968399 2.061874,-2.061874c0.728973,-0.728973 1.697372,-0.15097 2.061859,-0.515457c0.728973,-0.728973 2.089447,-1.30954 3.092804,-1.546402c1.12178,-0.264816 0.968399,-0.968399 2.061859,-2.061859c0.728973,-0.728973 2.486847,0.465012 3.092804,-0.515472c0.812988,-1.315445 0.940094,-1.797043 2.061859,-2.061859c1.003357,-0.236862 1.030945,-1.546402 2.061859,-1.546402c1.030945,0 2.363831,0.213501 3.092804,-0.515472c1.093475,-1.093475 1.332886,-0.817429 2.061859,-1.546402c0.364471,-0.364487 1.332916,0.213531 2.06189,-0.515457c1.093475,-1.093475 0.940063,-1.797058 2.061859,-2.061874c1.003326,-0.236862 1.08606,-1.072647 3.092804,-1.546387c1.121765,-0.264816 0.968384,-0.968399 2.061859,-2.061874c0.728973,-0.728973 1.697388,-0.15097 2.061859,-0.515457c0.728973,-0.728989 1.058533,-1.30954 2.061859,-1.546402c1.121796,-0.264816 0.968384,-0.968399 2.061859,-2.061874c0.728973,-0.728989 1.030945,-0.515457 2.06189,-0.515457c1.030914,0 1.058502,-1.30954 2.061859,-1.546402c1.121765,-0.264816 2.363831,-1.332886 3.092804,-2.061874c0.364471,-0.364487 1.523285,-0.283051 2.061859,-2.061859c0.149384,-0.493347 0.668549,-0.831879 2.061859,-2.061859c0.864105,-0.762817 1.030945,-2.061874 2.061859,-2.061874c1.030945,0 1.523285,-0.283066 2.061859,-2.061859c0.149384,-0.493362 0.217957,-0.746429 1.030945,-2.061874c0.605988,-0.980484 0.940094,-2.312515 2.061859,-2.577332c1.003357,-0.236862 0.666443,-1.697372 1.030945,-2.061859c0.728973,-0.728973 1.332886,-0.817413 2.061859,-1.546402c0.364471,-0.364487 1.030945,-0.515457 1.030945,-2.061859c0,-0.515472 0.217926,-0.746429 1.030914,-2.061874c0.605988,-0.980484 0.881561,-2.083969 1.030945,-2.577332c0.538574,-1.778793 1.523285,-1.829453 2.061859,-3.608261c0.149384,-0.493347 1.030945,-2.577332 1.030945,-4.639191c0,-1.546402 1.030914,-3.608276 1.030914,-4.123734c0,-2.061874 1.030945,-3.608269 1.030945,-5.670135l0,-2.061859l0,-0.515472l0,-1.546394"/>
    <path stroke="#02c9c9" fill="none" stroke-width="1.5" stroke-opacity="0.05" id="svg_67" d="m1719.546731,256.881328c-1.03093,0 -0.817429,0.301949 -1.546402,1.03093c-1.093475,1.093468 -1.546402,1.030937 -2.061859,1.030937c-1.546402,0 -1.546402,1.03093 -2.061874,1.03093c-1.546402,0 -1.697372,0.666443 -2.061859,1.03093c-0.728989,0.728981 -1.697388,0.666443 -2.061874,1.030937c-0.728973,0.728981 -1.081375,1.455894 -2.061859,2.061867c-1.315445,0.812988 -1.697388,0.666435 -2.061874,1.03093c-0.728973,0.728981 -0.817398,1.332886 -1.546387,2.061867c-0.364487,0.364494 -0.515472,1.03093 -2.061874,1.03093c-0.515457,0 -0.968384,-0.062531 -2.061859,1.030937c-0.728973,0.728981 0.213516,1.332886 -0.515472,2.061867c-1.093475,1.093468 -1.568512,0.881561 -2.061859,1.03093c-1.778793,0.538574 -2.378281,1.699501 -3.608261,3.092796c-0.762817,0.864098 -1.814529,2.228706 -2.577332,3.092796c-1.22998,1.393311 -1.868729,1.244141 -4.123734,3.092804c-1.437286,1.178299 -3.965164,2.789139 -5.670135,5.154663c-0.673935,0.935043 -2.893753,2.730408 -4.123734,4.123734c-0.762802,0.86409 -2.384186,2.27507 -4.639191,4.123734c-1.437286,1.178299 -1.868744,2.275055 -4.123734,4.123718c-1.437286,1.178299 -2.292816,1.248886 -3.608261,2.061874c-0.980484,0.605957 -0.283081,2.554214 -2.061874,3.092789c-0.493347,0.149368 -2.212845,0.666458 -2.577332,1.030945c-0.728973,0.728973 -1.697372,1.697372 -2.061859,2.061859c-0.728973,0.728973 -1.546402,1.03093 -1.546402,2.061859c0,1.030945 0.213516,1.332901 -0.515457,2.061874c-1.093475,1.093475 -1.797058,0.940079 -2.061874,2.061859c-0.473724,2.006714 -1.797043,3.001953 -2.061859,4.123734c-0.236862,1.003357 -0.669434,1.454163 -1.546402,3.092804c-0.48645,0.908951 0.94249,2.665771 -0.515472,4.123734c-1.09346,1.09346 -1.797043,0.940079 -2.061859,2.061859c-0.236862,1.003357 0,2.061859 -1.546402,3.092804l0,1.03093l0,1.03093l-0.515457,0"/>
    <path stroke="#02c9c9" fill="none" stroke-width="1.5" stroke-opacity="0.05" id="svg_66" d="m1811.299752,339.355938c0,1.030945 0.636383,1.109421 1.030914,2.061874c0.557953,1.346985 2.061859,2.061859 3.092804,4.123734c1.030945,2.061859 2.061859,4.123718 3.092804,6.185593c1.030914,2.061859 1.93573,4.191772 3.092804,6.185593c1.865723,3.214935 2.876129,5.235535 4.123718,8.247467c0.882172,2.129761 2.210632,5.086761 3.092804,7.216522c1.247589,3.011932 2.061859,6.185593 3.092804,9.278397c1.030914,3.092804 2.597351,6.225525 3.092773,9.278397c0.522217,3.218002 1.845215,6.266464 3.092804,9.278397c0.882172,2.129761 2.061859,6.185593 2.061859,8.247452l1.030945,2.061859l1.030945,3.092804"/>
    <path stroke="#02c9c9" fill="none" stroke-width="1.5" stroke-opacity="0.05" id="svg_65" d="m1840.165841,392.964443c0,1.03093 0.178436,1.910049 1.030945,3.092804c1.3479,1.870102 1.93573,5.222702 3.092804,7.216522c1.865692,3.21492 2.87616,5.23555 4.123718,8.247452c0.882172,2.129791 2.730804,6.387421 5.154663,10.309326c2.709961,4.384827 5.35083,7.094391 7.216553,10.309357c1.157043,1.993805 2.798065,5.372864 5.154663,8.247437c1.848663,2.255005 4.354858,5.054474 5.154663,7.216553c1.474731,3.986603 3.092773,8.247437 4.123718,12.371185c1.030945,4.123718 2.935303,10.351929 4.123718,14.433044c1.822968,6.260193 3.50415,11.235229 5.154663,18.556793c1.379059,6.117432 2.774506,13.476135 4.123749,18.556793c1.673523,6.301758 3.092804,13.40213 4.123718,18.556793l2.061859,6.185577"/>
    <path stroke="#02c9c9" fill="none" stroke-width="1.5" stroke-opacity="0.05" id="svg_64" d="m1697.381676,282.654644c-2.061874,2.061859 -3.358673,3.319153 -6.185593,6.185593c-3.337021,3.383682 -7.763046,8.221848 -10.309326,11.340271c-4.175064,5.113174 -8.298004,8.872635 -11.855728,14.433044c-2.484833,3.883575 -4.858185,9.175995 -6.701065,13.40213c-1.760422,4.037018 -3.395828,9.36853 -5.670135,14.43306c-1.888702,4.205856 -2.364883,8.337616 -4.639191,13.40213c-1.888718,4.205856 -4.421249,9.142609 -6.185593,13.402115c-2.495178,6.02388 -4.123734,10.309326 -6.185608,15.464005l-1.546402,3.092789"/>
    <path stroke="#02c9c9" fill="none" stroke-width="1.5" stroke-opacity="0.1" fill-opacity="null" id="svg_63" d="m1791.196542,308.427959c0,0 0.301971,0.301956 1.030945,1.03093c0.364502,0.364487 1.596863,1.455917 2.577332,2.061874c1.31543,0.812973 2.514801,-0.062546 3.608276,1.03093c0.728973,0.728973 -0.213531,1.332886 0.515442,2.061859c1.093475,1.093475 2.514801,-0.062515 3.608276,1.030945c0.728973,0.728973 -0.213501,1.332886 0.515472,2.061859c1.093475,1.09346 1.332886,0.301956 2.061859,1.03093c1.093475,1.09346 1.332886,0.301956 2.061859,1.03093c1.093475,1.093475 1.568542,0.881577 2.061859,1.030945c1.778809,0.538574 2.514801,0.968399 3.608276,2.061859c0.728973,0.728973 -0.213501,1.332886 0.515472,2.061874c1.093475,1.09346 1.568512,0.881546 2.061859,1.03093c1.778778,0.538574 1.332886,1.332886 2.061859,2.061859c1.093475,1.093475 1.829468,1.523285 3.608276,2.061874c0.493347,0.149368 0.746429,0.217957 2.061859,1.03093c0.980469,0.605957 1.332886,1.332886 2.061859,2.061859c0.364502,0.364487 0.968384,-0.062531 2.061859,1.03093c0.728973,0.728989 0.831909,0.668549 2.06189,2.061874c0.762787,0.86409 1.332886,1.332886 2.061859,2.061859c0.364502,0.364487 0.968384,-0.062531 2.061859,1.03093c0.728973,0.728989 1.184906,0.423264 2.061859,2.061874c0.48645,0.908951 -0.213501,1.332886 0.515472,2.061859c1.093475,1.09346 1.568512,0.881561 2.061859,1.03093c1.778809,0.538589 1.697388,1.697403 2.061859,2.061874c0.728973,0.728973 0.817444,1.332886 1.546417,2.061859c0.364502,0.364487 0.968384,-0.062531 2.061859,1.03093c0.728973,0.728989 0.831879,0.668579 2.061859,2.061874c0.762817,0.86409 0.968414,0.968384 2.06189,2.061859c0.728973,0.728989 -0.213531,1.332901 0.515442,2.061874c1.093475,1.093475 1.697388,0.666443 2.06189,1.03093c0.728973,0.728973 1.797028,0.940079 2.061859,2.061859c0.236877,1.003372 1.697357,1.697388 2.061859,2.061874c0.728973,0.728973 1.797028,1.971008 2.061859,3.092789c0.236877,1.003372 1.697388,1.697403 2.061859,2.061874c0.728973,0.728973 0.817444,2.363815 1.546417,3.092789c0.364502,0.364487 0.831879,0.668579 2.061859,2.061874c0.762817,0.86409 0.968384,0.968399 2.061859,2.061859c0.728973,0.728973 -0.213501,1.332886 0.515472,2.061874c1.093475,1.09346 1.697357,0.666443 2.061859,1.03093c0.728973,0.728973 1.797058,1.971008 2.061859,3.092789c0.236847,1.003372 1.797058,0.940094 2.06189,2.061874c0.236847,1.003357 0.817413,2.363815 1.546387,3.092804c0.364502,0.364487 0.968384,-0.062531 2.061859,1.03093c0.728973,0.728973 0.029022,1.152908 0.515472,2.061859c0.876953,1.638611 1.697357,1.697388 2.061859,2.061874c0.728973,0.728973 1.30957,1.058502 1.546417,2.061859c0.264801,1.12178 0.968384,0.968384 2.061859,2.061859c0.728973,0.728989 0.15097,1.697388 0.515472,2.061874c0.728973,0.728973 1.546387,1.03093 1.546387,2.061859c0,1.03093 0.029022,1.152924 0.515472,2.061874c0.876953,1.638611 1.30954,2.089432 1.546387,3.092789c0.264832,1.12178 0.968384,0.968414 2.061859,2.061874c0.728973,0.728973 0.15097,1.697357 0.515472,2.061859c0.728973,0.728973 0.817444,2.363831 1.546417,3.092804c0.364471,0.364471 -0.213531,1.332886 0.515442,2.061859c1.093475,1.093475 1.797058,0.940094 2.06189,2.061859c0.236877,1.003357 0.817413,1.332886 1.546387,2.061859c0.364502,0.364502 -0.213501,1.332916 0.515472,2.06189c1.093475,1.093475 0.817413,1.332886 1.546387,2.061859c0.364502,0.364502 -0.213501,1.332886 0.515472,2.061859c1.093475,1.093475 0.817413,1.332886 1.546387,2.061859c0.364502,0.364502 0.029022,1.152924 0.515472,2.061859c0.876984,1.638641 1.697388,1.697418 2.061859,2.06189c0.728973,0.728973 0.452942,0.968384 1.546417,2.061859c0.728973,0.728973 0.15097,1.697357 0.515472,2.061859c0.728973,0.728973 0.452911,0.968384 1.546387,2.061859c0.728973,0.728973 0.15097,1.697388 0.515472,2.06189c0.728973,0.728973 -0.728973,2.3638 0,3.092773c1.093475,1.093475 1.546387,1.030945 1.546387,2.06189c0,1.030914 0.515472,2.061859 0.515472,3.092773c0,1.030945 0,2.06189 0,3.092804c0,1.030945 1.546417,1.030945 1.546417,2.061859c0,1.030945 0,2.06189 0,3.092804c0,1.030945 0,2.061859 0,3.092804c0,1.030945 -0.236847,2.089447 0,3.092804c0.264801,1.121765 0.515442,2.061859 0.515442,3.092804c0,1.030914 0,2.061859 0,3.092773l1.546417,0l0,1.030945"/>
   </g>
  </g>
 </g>
</svg>