<svg id="59725d3d-bdd8-4af0-9b66-49b8d09410bc" data-name="Layer 1" xmlns="http://www.w3.org/2000/svg" xmlns:xlink="http://www.w3.org/1999/xlink" width="1041.32" height="554.17" viewBox="0 0 1041.32 554.17">

 <title>programming</title>
 <g>
  <title>background</title>
  <rect fill="none" id="canvas_background" height="602" width="802" y="-1" x="-1"/>
 </g>
 <g>
  <title>Layer 1</title>
  <path id="svg_1" opacity="0.1" fill="#ff3e7a" d="m961.480004,438.209996q-1.74,3.75 -3.47,7.4q-2.7,5.67 -5.33,11.12c-0.78,1.61 -1.56,3.19 -2.32,4.77c-8.6,17.57 -16.63,33.11 -23.45,45.89a73.21,73.21 0 0 1 -63.81,38.7l-151.65,1.65l-1.6,0l-13,0.14l-11.12,0.12l-34.1,0.37l-1.38,0l-17.36,0.19l-0.53,0l-107,1.16l-95.51,1l-11.11,0.12l-69,0.75l-0.08,0l-44.75,0.48l-0.48,0l-141.5,1.53l-42.33,0.46a88.07,88.07 0 0 1 -26.67,-3.82a86.39,86.39 0 0 1 -39.09,-24.75c-18.18,-20.03 -31.43,-43.4 -40.33,-68.76q-1.93,-5.49 -3.6,-11.12c-30.81,-104.15 6.75,-238.52 74.35,-328.44q4.25,-5.64 8.64,-11l0.07,-0.08c20.79,-25.52 44.1,-46.84 68.93,-62c44,-26.91 92.75,-34.49 140.7,-11.9c40.57,19.12 78.45,28.11 115.17,30.55c3.71,0.24 7.42,0.42 11.11,0.53c84.23,2.65 163.17,-27.7 255.87,-47.29c3.69,-0.78 7.39,-1.55 11.12,-2.28c66.13,-13.16 139.49,-20.1 226.73,-5.51a189.09,189.09 0 0 1 26.76,6.4q5.77,1.86 11.12,4c41.64,16.94 64.35,48.24 74,87.46q1.37,5.46 2.37,11.11c17.11,94.34 -33,228.16 -76.37,321.05z"/>
  <g id="svg_2" opacity="0.1">
   <path id="svg_3" fill="#ff3e7a" d="m162.900004,44.089996l0,509.62l-42.33,0.46a88.07,88.07 0 0 1 -26.67,-3.82l0,-444.26l0.07,0c20.79,-25.55 44.1,-46.87 68.93,-62z"/>
   <path id="svg_4" fill="#ff3e7a" d="m1037.900004,117.169996l-952.64,0q4.25,-5.64 8.64,-11l0,-0.08l941.63,0q1.37,5.43 2.37,11.08z"/>
   <path id="svg_5" fill="#ff3e7a" d="m961.480004,18.599996l0,427l-3.47,0q-2.7,5.67 -5.33,11.12c-0.78,1.61 -1.56,3.19 -2.32,4.77l0,-446.93q5.77,1.86 11.12,4.04z"/>
   <path id="svg_6" fill="#ff3e7a" d="m696.870004,13.669996l0,534.25l-11.12,0.12l0,-532.09c3.69,-0.78 7.39,-1.55 11.12,-2.28z"/>
   <path id="svg_7" fill="#ff3e7a" d="m429.880004,63.239996l0,487.58l-11.11,0.12l0,-488.23c3.71,0.24 7.42,0.38 11.11,0.53z"/>
   <path id="svg_8" fill="#ff3e7a" d="m958.010004,445.609996q-2.7,5.67 -5.33,11.12l-938.17,0q-1.93,-5.49 -3.6,-11.12l947.1,0z"/>
  </g>
  <rect id="svg_9" fill="#3f3d56" height="57.66" width="19" y="265.83" x="211.6"/>
  <rect id="svg_10" fill="#3f3d56" height="61" width="19" y="262.83" x="722.93"/>
  <polygon id="svg_11" fill="#65617d" points="863.1 533.65 863.1 546.65 711.18 548.05 709.56 548.08 651.82 548.61 650.44 548.63 632.89 548.78 632.37 548.78 525.39 549.77 349.78 551.4 349.63 551.4 304.98 551.82 304.5 551.83 106.1 553.65 106.1 538.65 152.75 510.65 246.35 509.87 248.35 509.86 249.01 509.85 251.01 509.82 295.95 509.45 297.96 509.44 298.6 509.43 300.6 509.42 315.01 509.3 315.39 509.29 350.94 508.99 351.23 508.99 628.63 506.65 635.42 506.6 636.1 506.6 641.28 506.55 678.93 506.24 680.93 506.21 682.78 506.19 683.74 506.19 695.45 506.1 697.77 506.07 700.88 506.05 710.63 505.96 726.1 505.83 728.1 505.81 731.58 505.79 732.23 505.79 806.94 505.15 863.1 533.65"/>
  <polygon id="svg_12" opacity="0.2" points="863.1 533.65 863.1 546.65 711.18 548.05 709.56 548.08 651.82 548.61 650.44 548.63 632.89 548.78 632.37 548.78 525.39 549.77 349.78 551.4 349.63 551.4 304.98 551.82 304.5 551.83 106.1 553.65 106.1 538.65 152.75 510.65 246.35 509.87 248.35 509.86 249.01 509.85 251.01 509.82 295.95 509.45 297.96 509.44 298.6 509.43 300.6 509.42 315.01 509.3 315.39 509.29 350.94 508.99 351.23 508.99 628.63 506.65 635.42 506.6 636.1 506.6 641.28 506.55 678.93 506.24 680.93 506.21 682.78 506.19 683.74 506.19 695.45 506.1 697.77 506.07 700.88 506.05 710.63 505.96 726.1 505.83 728.1 505.81 731.58 505.79 732.23 505.79 806.94 505.15 863.1 533.65"/>
  <path id="svg_13" fill="#3f3d56" d="m296.100004,483.659996l0,24.49a6.13,6.13 0 0 1 -3.5,5.54a6,6 0 0 1 -2.5,0.6l-34.9,0.74a6,6 0 0 1 -2.7,-0.57a6.12,6.12 0 0 1 -3.57,-5.57l0,-25.23l47.17,0z"/>
  <path id="svg_14" opacity="0.1" d="m296.100004,483.659996l0,24.49a6.13,6.13 0 0 1 -3.5,5.54a6,6 0 0 1 -2.5,0.6l-34.9,0.74a6,6 0 0 1 -2.7,-0.57a6.12,6.12 0 0 1 -3.57,-5.57l0,-25.23l47.17,0z"/>
  <path id="svg_15" fill="#3f3d56" d="m298.100004,483.659996l0,24.49a6.13,6.13 0 0 1 -3.5,5.54a6,6 0 0 1 -2.5,0.6l-34.9,0.74a6,6 0 0 1 -2.7,-0.57a6.12,6.12 0 0 1 -3.57,-5.57l0,-25.23l47.17,0z"/>
  <rect id="svg_16" fill="#3f3d56" height="31.5" width="47.17" y="483.66" x="680.93"/>
  <rect id="svg_17" opacity="0.1" height="31.5" width="47.17" y="483.66" x="680.93"/>
  <rect id="svg_18" fill="#3f3d56" height="31.5" width="47.17" y="483.66" x="678.93"/>
  <polygon id="svg_19" opacity="0.1" points="230.6 265.82 230.6 271.55 211.6 271.06 211.6 265.82 230.6 265.82"/>
  <path id="svg_20" fill="#65617d" d="m355.660004,104.399996l-22.83,164a4.3,4.3 0 0 1 -4.37,3.71l-182.8,-4.74l-3.47,-0.09a4.3,4.3 0 0 1 -4.16,-4.87l25.63,-171.68a4.3,4.3 0 0 1 4.54,-3.63l183.46,12.42a4.29,4.29 0 0 1 4,4.88z"/>
  <polygon id="svg_21" fill="#ff3e7a" points="175.93 99.16 156.6 250.49 324.6 255.82 345.26 109.82 175.93 99.16"/>
  <rect id="svg_22" fill="#65617d" ry="5.33" rx="5.33" height="173.33" width="204.67" y="96.82" x="384.6"/>
  <rect id="svg_23" fill="#ff3e7a" height="144.33" width="186" y="108.49" x="394.26"/>
  <polygon id="svg_24" opacity="0.1" points="741.93 262.82 741.93 266.61 722.93 267 722.93 262.82 741.93 262.82"/>
  <path id="svg_25" fill="#65617d" d="m827.660004,259.619996a3.08,3.08 0 0 1 -3,3.28l-187.2,3.87a3.08,3.08 0 0 1 -3.13,-2.79l-16.09,-167.28a3.08,3.08 0 0 1 2.92,-3.37l185.78,-9.24l2,-0.1a3.07,3.07 0 0 1 3.22,2.8l15.5,172.83z"/>
  <polygon id="svg_26" fill="#ff3e7a" points="628.93 103.16 798.6 94.82 812.93 246.82 644.6 250.82 628.93 103.16"/>
  <path id="svg_27" opacity="0.1" d="m827.660004,259.619996a3.08,3.08 0 0 1 -3,3.28l-17.72,-178.81l2,-0.1a3.07,3.07 0 0 1 3.22,2.8l15.5,172.83z"/>
  <path id="svg_28" opacity="0.1" d="m168.230004,87.089996l-22.57,180.28l-3.47,-0.09a4.3,4.3 0 0 1 -4.16,-4.87l25.63,-171.68a4.3,4.3 0 0 1 4.57,-3.64z"/>
  <rect id="svg_29" opacity="0.1" height="17.08" width="19" y="306.41" x="211.6"/>
  <polygon id="svg_30" opacity="0.1" points="298.1 483.65 298.1 488.62 250.93 489.88 250.93 483.65 298.1 483.65"/>
  <path id="svg_31" fill="#65617d" d="m381.350004,312.359996l0,168.2a4,4 0 0 1 -3.85,3.95l-191.65,5.1l-0.05,0a4,4 0 0 1 -3.95,-3.95l0,-173.3a4,4 0 0 1 3.95,-3.95l191.6,0a4,4 0 0 1 3.95,3.95z"/>
  <path id="svg_32" opacity="0.1" d="m185.850004,308.409996l0,181.2l-0.05,0a4,4 0 0 1 -3.95,-3.95l0,-173.3a4,4 0 0 1 3.95,-3.95l0.05,0z"/>
  <polygon id="svg_33" fill="#d4dfec" points="194.6 319.15 372.1 319.15 372.1 467.4 194.6 471.4 194.6 319.15"/>
  <rect id="svg_34" opacity="0.1" height="17.42" width="19" y="306.41" x="722.93"/>
  <polygon id="svg_35" opacity="0.1" points="726.1 483.65 726.1 490.06 678.93 488.8 678.93 483.65 726.1 483.65"/>
  <path id="svg_36" fill="#65617d" d="m788.350004,312.359996l0,173.3a4,4 0 0 1 -4,3.95l0,0l-191.69,-5.1a4,4 0 0 1 -3.85,-3.95l0,-168.2a4,4 0 0 1 3.95,-3.95l191.6,0a4,4 0 0 1 3.99,3.95z"/>
  <path id="svg_37" opacity="0.1" d="m788.350004,312.359996l0,173.3a4,4 0 0 1 -4,3.95l0,0l0,-181.2l0,0a4,4 0 0 1 4,3.95z"/>
  <polygon id="svg_38" fill="#d4dfec" points="775.6 319.15 598.1 319.15 598.1 467.4 775.6 471.4 775.6 319.15"/>
  <path id="svg_39" fill="#65617d" d="m583.850004,312.359996l0,168.2a4,4 0 0 1 -3.85,3.95l-191.65,5.1l0,0a4,4 0 0 1 -4,-3.95l0,-173.3a4,4 0 0 1 3.95,-3.95l191.6,0a4,4 0 0 1 3.95,3.95z"/>
  <polygon id="svg_40" fill="#d4dfec" points="397.1 319.15 574.6 319.15 574.6 467.4 397.1 471.4 397.1 319.15"/>
  <polygon id="svg_41" opacity="0.1" points="863.1 533.65 863.1 546.65 711.18 548.05 709.56 548.08 651.82 548.61 650.44 548.63 632.89 548.78 632.37 548.78 525.39 549.77 349.78 551.4 349.63 551.4 304.98 551.82 304.5 551.83 106.1 553.65 106.1 538.65 308.61 537.32 309.09 537.32 350.08 537.04 350.27 537.04 633.35 535.17 633.64 535.17 633.81 535.16 634.28 535.16 639.07 535.13 640.53 535.13 715.02 534.63 719.42 534.61 720.4 534.6 863.1 533.65"/>
  <circle stroke="null" id="svg_42" fill="#fbbebe" r="51.329998" cy="272.16" cx="483.26"/>
  <path id="svg_44" fill="#fbbebe" d="m538.600004,377.159996s-99.5,12 -90,0c3.44,-4.34 4.39,-17.2 4.2,-31.85c-0.06,-4.45 -0.22,-9.06 -0.45,-13.65c-1.1,-22 -3.75,-43.5 -3.75,-43.5s87,-41 77,-8.5c-4,13.13 -2.69,31.57 0.35,48.88c0.89,5.05 1.92,10 3,14.7a344.67,344.67 0 0 0 9.65,33.92z"/>
  <path id="svg_45" opacity="0.1" d="m538.600004,377.159996s-99.5,12 -90,0c3.44,-4.34 4.39,-17.2 4.2,-31.85c15.17,-6.48 34.47,-1.65 34.47,-1.65c20.32,-4.05 33.35,-3.26 41.68,-0.42a344.67,344.67 0 0 0 9.65,33.92z"/>
  <path id="svg_46" fill="#ff3e7a" d="m349.740004,552.529996l0,-0.84l175.62,-1.91l107,-1l0.3,0l-0.11,1.48l0.15,-1.48l0.19,0l0,-0.17l1.37,-13.45l0.52,-5.09l0.16,-1.59l0.14,-1.33l6.18,-20.61l6.18,-20.58l5.2,-17.33l7.94,-26.48s-4.5,-10.5 -7,-13.5s-5,-23.5 -5,-23.5s-21.34,-20.33 -30.67,-22.67c-3.91,-1 -11.63,-2.33 -19.83,-4c-3.07,-0.62 -6.22,-1.28 -9.25,-2c-1.71,-0.39 -3.39,-0.8 -5,-1.21a87.91,87.91 0 0 1 -9.25,-2.86a20.7,20.7 0 0 1 -4.5,-2.29c-7.35,-5.39 -25.77,-6 -26.48,-6l0,0a0.42,0.42 0 0 1 0,-0.07l0,-0.09a10.26,10.26 0 0 0 0,-1.26c0,-0.4 0,-0.87 -0.09,-1.4c0,-0.16 0,-0.33 -0.07,-0.5c-0.05,-0.36 -0.11,-0.74 -0.2,-1.14a5,5 0 0 0 -0.12,-0.53a17.21,17.21 0 0 0 -1.25,-3.49c-0.07,-0.16 -0.16,-0.33 -0.24,-0.49a18.25,18.25 0 0 0 -1.7,-2.63c-0.13,-0.17 -0.27,-0.35 -0.42,-0.52a19.58,19.58 0 0 0 -2.72,-2.64c-0.27,-0.21 -0.55,-0.43 -0.84,-0.63a4.67,4.67 0 0 0 -0.51,-0.36l-0.89,-0.58l-0.83,-0.48c-0.73,-0.4 -1.5,-0.79 -2.34,-1.16c-0.26,-0.12 -0.54,-0.23 -0.82,-0.34s-0.72,-0.28 -1.09,-0.42l-0.06,0l-0.75,-0.3c-0.57,-0.19 -1.15,-0.36 -1.76,-0.53l-0.93,-0.24l-1,-0.23l-1,-0.21c-1,-0.2 -2.07,-0.38 -3.19,-0.52l-1.14,-0.14l-1.17,-0.12l-1.21,-0.1l-1.72,-0.1l-2,-0.07a124.68,124.68 0 0 0 -26.24,2.79a72.27,72.27 0 0 0 -18.26,-1.68l-0.87,0l-1,0.06l-0.64,0l-1.29,0.12c-0.43,0 -0.87,0.09 -1.3,0.15s-0.88,0.11 -1.31,0.18l-0.66,0.11c-0.65,0.11 -1.31,0.23 -2,0.37q-0.33,0.06 -0.66,0.15c-0.87,0.19 -1.74,0.42 -2.6,0.68c-0.43,0.12 -0.86,0.26 -1.29,0.41c-0.22,0.06 -0.43,0.14 -0.64,0.22l-0.64,0.23l-0.63,0.25l-0.75,0.3c-0.38,0.16 -0.75,0.33 -1.12,0.51c-0.21,0.09 -0.42,0.19 -0.62,0.3s-0.41,0.2 -0.6,0.31a27.75,27.75 0 0 0 -6.21,4.38l-0.51,0.49l-0.5,0.51c-0.17,0.17 -0.33,0.35 -0.49,0.53a23.82,23.82 0 0 0 -1.82,2.25c-0.16,0.21 -0.31,0.42 -0.46,0.64a26.69,26.69 0 0 0 -1.72,2.92c-0.13,0.24 -0.25,0.49 -0.37,0.73a32.7,32.7 0 0 0 -2,5.25q-0.28,1 -0.51,2s-21.17,9.34 -38.73,16.1c-4.67,1.8 -9.07,3.43 -12.75,4.66c-1.07,0.36 -2.07,0.69 -3,1a26.7,26.7 0 0 1 -6.25,1.44a19.67,19.67 0 0 0 -3,0.28c-8.07,1.31 -21.9,7 -23.41,12.71a3.69,3.69 0 0 0 -0.1,1.4s0,0.07 0,0.11c1,7 -6,6 -6,6s-2.5,18.5 -6,23.5c-2.53,3.6 -4.26,11.63 -4.48,17.69l0,0a19.61,19.61 0 0 0 0.44,5.63c0,0.05 0,0.1 0,0.14c0.4,1.34 -0.56,5 -2.19,9.69c-1.77,5.15 -4.35,11.55 -6.83,17.59c-3.74,9.12 -7.26,17.4 -7.48,19.22c-0.09,0.81 -0.35,2.26 -0.71,4.13c-1.46,7.62 -4.7,22.13 -6.3,28c-1.19,4.38 -2.92,10.38 -4.11,14.5c0,0.12 -0.07,0.24 -0.1,0.35l44.83,-0.44l0,0.84l0.14,0l-0.06,0z"/>
  <path id="svg_47" opacity="0.1" d="m366.100004,434.659996s57,29.5 77.5,26l-77.5,-26z"/>
  <path id="svg_48" opacity="0.1" d="m482.100004,422.659996s55.5,18 74,20.5s-74,-20.5 -74,-20.5z"/>
  <path id="svg_49" opacity="0.1" d="m543.660004,364.739996c-29,5.34 -83.6,4.19 -107.2,3.38c8.65,-31 50.83,-20.46 50.83,-20.46c52.21,-10.42 56.21,11.2 56.37,17.08z"/>
  <path id="svg_50" fill="#ff3e7a" d="m543.660004,362.739996c-29,5.34 -83.6,4.19 -107.2,3.38c8.65,-31 50.83,-20.46 50.83,-20.46c52.21,-10.42 56.21,11.2 56.37,17.08z"/>
  <path id="svg_51" fill="#fbbebe" d="m697.600004,499.409996s34.16,-5.25 34.83,9.75s-17.42,25.48 -17.42,25.48l-17.41,-35.23z"/>
  <path id="svg_52" opacity="0.1" d="m525.950004,328.539996a47,47 0 0 1 -4.5,1.74c-10.78,3.72 -21.65,7.47 -33,8.83s-23.26,0.16 -33.16,-5.5a28.77,28.77 0 0 1 -3,-1.95c-1.1,-22 -3.75,-43.5 -3.75,-43.5s87,-41 77,-8.5c-3.98,13.13 -2.63,31.57 0.41,48.88z"/>
  <path id="svg_54" fill="#ff3e7a" d="m722.930004,529.409996s-0.89,2.12 -2.53,5.19a69,69 0 0 1 -9,13.17l-0.27,0.29l-1.62,0l-57.74,0.53l-1.38,0l-0.17,-0.2l-11.2,-13.29l-4.22,-5.01l-0.17,-0.21l-0.36,-0.42l-0.2,-0.24l-0.26,-0.31l-8.21,-9.74l3,-12.5l5.11,-21.06l0.13,-0.51l1,-4l0.71,-3l2.38,-9.78l8.16,-33.65l14.5,7.5l15.29,27l8.21,14.5l4.5,0c0.85,0 2.8,1.64 4.76,3.53c0.7,0.67 1.4,1.38 2,2c1.78,1.84 3.19,3.42 3.19,3.42s7.29,0.16 9.25,5.9a7,7 0 0 1 0.25,0.85a40.3,40.3 0 0 0 2.53,6.56c1.29,2.81 2.91,6 4.55,9.19c3.05,5.85 6.15,11.42 7.29,13.44l0.14,0.25l0.38,0.6z"/>
  <path id="svg_55" opacity="0.1" d="m637.030004,484.259996l-0.1,1.43l0,0.1l-0.17,2.3l-1.33,18.51l-1.61,22.3l-0.46,6.28l-1,13.44l0,0.17l-107,1l-175.59,1.9l0,0.84l-0.14,0l0,-0.84l0,-0.28l0.45,-14.36l0.86,-28.06l0.74,-23.79l0.07,-2.37a10.53,10.53 0 0 1 11.42,-10.17c4.72,0.4 10.85,0.89 18.18,1.41l3,0.22c42.33,2.94 120.56,6.74 199.5,2c1.66,-0.09 3.33,-0.19 5,-0.31c12.24,-0.77 24.47,-1.76 36.58,-3a10.53,10.53 0 0 1 11.6,11.23l0,0.05z"/>
  <path id="svg_56" fill="#3f3d56" d="m349.740004,552.529996l0,-0.84l175.62,-1.91l107,-1l0.3,0l0,-0.17l1,-13.44l0.43,-6l1.64,-22.61l1.29,-17.9l0,-0.44a10.62,10.62 0 0 0 -0.11,-2.47a0.3,0.3 0 0 0 0,-0.1a10.39,10.39 0 0 0 -2,-4.64a10.54,10.54 0 0 0 -9.42,-4c-12.11,1.24 -24.34,2.23 -36.58,3c-1.67,0.12 -3.34,0.22 -5,0.31c-78.94,4.69 -157.17,0.89 -199.5,-2l-3,-0.22c-7.33,-0.52 -13.46,-1 -18.18,-1.41a10.54,10.54 0 0 0 -11.24,8.53a11,11 0 0 0 -0.18,1.64l-0.68,22.16l-0.93,28.07l-0.44,14.36l0,0.28l0,0.84l-0.02,-0.04z"/>
  <path id="svg_57" opacity="0.1" d="m637.330004,491.269996l-1.23,15.33l-1.83,22.85l-0.46,5.72l-1,12.81l-0.06,0.64l0,0.17l0,0l-0.15,1.48l0.11,-1.48l-0.29,0l-107,1l-175.65,1.9l0,-0.28l0.49,-14.36l1,-28.06l0.64,-18.65a6.36,6.36 0 0 1 3.06,-5.25a6.25,6.25 0 0 1 3.78,-0.9c2.1,0.17 4.68,0.37 7.69,0.59c4.89,0.36 10.92,0.78 17.94,1.22c13,0.82 29.31,1.7 48,2.42c52,2 122.2,2.67 188.88,-3.17c3,-0.26 6.1,-0.55 9.13,-0.84a6.26,6.26 0 0 1 3.48,0.66a5.16,5.16 0 0 1 0.86,0.54a6.14,6.14 0 0 1 2,2.46a3.56,3.56 0 0 1 0.25,0.61a6.28,6.28 0 0 1 0.36,2.59z"/>
  <path id="svg_58" opacity="0.1" d="m298.100004,504.959996l0,3.19a6.13,6.13 0 0 1 -3.5,5.54l-40.1,0.77a6.12,6.12 0 0 1 -3.57,-5.57l0,-3l47.17,-0.93z"/>
  <polygon id="svg_59" fill="#3f3d56" points="298.6 515.57 246.35 516.57 246.35 507.9 298.6 506.9 298.6 515.57"/>
  <polygon id="svg_60" opacity="0.1" points="298.6 515.57 246.35 516.57 246.35 507.9 298.6 506.9 298.6 515.57"/>
  <polygon id="svg_61" fill="#3f3d56" points="300.6 515.57 248.35 516.57 248.35 507.9 300.6 506.9 300.6 515.57"/>
  <path id="svg_72" opacity="0.1" d="m684.100004,483.659996s3.17,11.5 0,21.5s0,-21.5 0,-21.5z"/>
  <path id="svg_73" opacity="0.1" d="m697.600004,495.389996s1.33,14.6 -1.67,17.19s1.67,-17.19 1.67,-17.19z"/>
  <line id="svg_74" stroke-width="2" stroke-miterlimit="10" stroke="#ff3e7a" fill="none" y2="341.86" x2="300.6" y1="342.86" x1="198.99"/>
  <line id="svg_75" stroke-width="2" stroke-miterlimit="10" stroke="#ff3e7a" fill="none" y2="354.34" x2="300.6" y1="355.33" x1="198.99"/>
  <line id="svg_76" stroke-width="2" stroke-miterlimit="10" stroke="#ff3e7a" fill="none" y2="366.81" x2="300.6" y1="367.81" x1="198.99"/>
  <!-- Created with Method Draw - http://github.com/duopixel/Method-Draw/ -->
  <!-- Created with Method Draw - http://github.com/duopixel/Method-Draw/ -->
  <g stroke="null" id="svg_152">
   <g stroke="null" transform="matrix(-0.3961856097574499,0,0,0.4371474802895193,1509.0288140951177,-252.96597638462663) " id="svg_150">
    <title stroke="null" transform="translate(-7.572208404541016,-4.575115203857422) translate(17.668485641479492,30.583271026611328) translate(393.0830078125,5.097211837768555) translate(-104.39410400390625,-91.74981689453125) translate(-173.4915008544922,-37.51167678833008) translate(2241.353759765625,0) translate(0,1099.2403564453125) ">background</title>
    <rect stroke="null" fill="none" id="svg_148" height="402" width="402" y="1000.08423" x="2365.64744"/>
   </g>
   <g stroke="null" transform="matrix(-0.3961856097574499,0,0,0.4371474802895193,1509.0288140951177,-252.96597638462663) " id="svg_151">
    <title stroke="null" transform="translate(-7.572208404541016,-4.575115203857422) translate(17.668485641479492,30.583271026611328) translate(393.0830078125,5.097211837768555) translate(-104.39410400390625,-91.74981689453125) translate(-173.4915008544922,-37.51167678833008) translate(2241.353759765625,0) translate(0,1099.2403564453125) ">Layer 1</title>
    <path stroke="#05b7b7" id="svg_147" d="m2529.69794,1029.901022l-26.5,0c0.5,0 -21.5,19 -21.5,19c0,0 -20,26 -20,26c0,0 -14,18 -14.5,18c0.5,0 -15.5,30 -16,30c0.5,0 -5.5,36 -5.5,36c0,0 4,52 4,52c0,0 16,40 15.5,40c0.5,0 29.5,44 29.5,44c0,0 52,40 51.5,40c0.5,0 40.5,12 40,12c0.5,0 48.5,4 48,4c0.5,0 23.5,-13 23,-13c0.5,0 44.5,-47 44,-47c0.5,0 17.5,-28 17,-28c0.5,0 19.5,-40 19,-40c0.5,0 0.5,-32 0,-32c0.5,0 0.5,-21 0.5,-25c0,-4 -11,-37 -11.5,-37c0.5,0 -26.5,-34 -27,-34c0.5,0 -41.5,-28 -42,-28c0.5,0 -51.5,-20 -52,-20c0.5,0 -38.5,-10 -39,-10c0.5,0 -16.5,-7 -16.5,-7z" fill="#00ffff"/>
    <path stroke="#00e2e2" stroke-opacity="0.1" d="m2549.2881,1048.757302c0,0 -0.89285,-0.89285 -2.67857,-0.89285c-1.78574,0 -4.09449,1.26269 -5.35718,0c-1.89405,-1.89405 -1.78572,-2.67859 -3.57144,-2.67859c-1.78574,0 -3.57146,0 -5.35718,0c-1.78572,0 -2.30875,0.52302 -3.57144,1.78572c-1.2627,1.26269 -1.78573,1.78572 -3.57146,1.78572c-1.78572,0 -2.30875,0.52304 -3.57144,1.78574c-1.2627,1.26269 -0.52304,2.30874 -1.78573,3.57144c-1.2627,1.26269 -0.52303,2.30874 -1.78572,3.57144c-1.2627,1.26269 -1.78572,1.78573 -1.78572,3.57146c0,1.78572 0,3.57144 0,5.35716c0,1.78573 0,3.57146 0,5.35718c0,1.78572 0,3.57144 0,5.35716c0,1.78573 -0.52303,2.30876 -1.78573,3.57146c-1.2627,1.26269 0,3.57144 0,5.35716c0,1.78573 -0.52303,2.30876 -1.78572,3.57145c-1.2627,1.2627 0,3.57145 0,5.35717c0,1.78573 0,3.57145 0,5.35717c0,1.78572 0,3.57145 0,5.35718c0,1.78572 0,3.57144 0,5.35716c0,1.78573 0,3.57146 0,5.35718c0,1.78572 0.89286,1.78572 0.89286,3.57144c0,1.78572 2.67859,1.78572 2.67859,3.57146c0,1.78572 0.89286,3.57144 0.89286,5.35716c0,1.78572 -0.84262,3.78275 0,5.35718c1.51902,2.83833 2.2683,3.61922 2.67858,5.35716c0.4587,1.94309 0.05025,3.78276 0.89286,5.35718c1.51904,2.83833 2.67859,3.57144 2.67859,5.35716c0,1.78574 0.89286,1.78574 0.89286,3.57146c0,1.78572 0.78455,1.67741 2.67859,3.57146c1.26268,1.26269 0,3.57144 0,5.35714c0,1.78574 0.89286,1.78574 0.89286,3.57148c0,1.7857 0,3.57144 0,5.35714c0,1.78574 -1.26268,4.09448 0,5.35718c1.89404,1.89404 2.67858,1.78574 2.67858,3.57144c0,1.78574 0,3.57147 0,5.35718c0,1.78574 0.26151,2.94009 0.89286,3.57144c1.26271,1.2627 1.15954,2.51886 2.67859,5.35718c0.84262,1.57443 0,3.57144 0,5.35718c0,1.78573 -1.26271,4.09448 0,5.35718c0.63134,0.63134 0.89286,1.7857 0.89286,3.57144c0,1.7857 1.15957,2.51883 2.67859,5.35718c0.84259,1.5744 -1.26268,4.09445 0,5.35714c0.63135,0.63135 0.89286,1.78574 0.89286,3.57148c0,1.7857 0,3.57144 0,5.35714c0,1.78574 -1.26268,4.09448 0,5.35718c1.89404,1.89404 2.67859,1.78574 2.67859,3.57144c0,1.78574 0.26152,2.94013 0.89286,3.57147c1.26268,1.2627 -1.26268,4.09446 0,5.35715c1.89405,1.89404 1.41587,2.30878 2.67858,3.57147c0.63135,0.63135 -0.36985,2.30875 0.89287,3.57145c1.89404,1.89404 2.94009,1.15435 3.57144,1.7857c1.26271,1.2627 -1.26268,4.09448 0,5.35718c1.89404,1.89404 1.41591,2.30875 2.67859,3.57144c0.63134,0.63135 1.67741,-0.10831 3.57145,1.78574c1.26271,1.26269 0.26151,2.94009 0.89286,3.57144c1.26271,1.26269 0.78454,1.6774 2.67859,3.57144c1.26271,1.2627 0.26152,2.94013 0.89286,3.57147c1.26268,1.2627 0,3.57145 0,5.35715c0,1.78574 1.41587,2.30878 2.67858,3.57147c0.63135,0.63135 3.57146,0 4.46431,0l-0.89285,0l0,-1.78573" id="svg_146" fill-opacity="0.5" fill="none"/>
    <path stroke="#00e2e2" stroke-opacity="0.1" d="m2560.89531,1272.865642c0,0 0,0 0,0.89285c0,1.78573 0.52301,2.30878 1.78572,3.57147c0.63135,0.63135 1.67741,-0.10834 3.57146,1.78571c1.26271,1.26269 0.2615,2.94009 0.89285,3.57144c1.26271,1.26269 1.41588,2.30878 2.67859,3.57147c0.63135,0.63135 0.89287,1.78571 0.89287,3.57144l-0.89287,0" id="svg_145" fill-opacity="0.5" fill="none"/>
    <path stroke="#00e2e2" stroke-opacity="0.1" d="m2498.39498,1091.614672c1.78572,0 1.41588,-0.52302 2.67858,-1.78572c1.89404,-1.89404 2.67859,-0.89287 3.57146,-0.89287c2.67859,0 4.35598,-0.78453 6.25003,-2.67857c0.63135,-0.63135 1.6774,1.00117 3.57144,-0.89287c1.89404,-1.89404 1.67741,-0.78454 3.57146,-2.67859c0.63134,-0.63135 1.67739,1.00119 3.57144,-0.89285c1.89404,-1.89404 1.6774,-0.78455 3.57144,-2.67859c0.63135,-0.63135 0.89287,-0.89287 3.57146,-0.89287c0.89285,0 0.89285,-2.67859 3.57144,-2.67859c0.89287,0 3.57146,0 4.46431,0c2.67859,0 3.57146,0 6.25003,0c0.89287,0 2.76598,0.7361 4.46431,1.78574c2.27853,1.40822 4.356,-1.89404 6.25005,0c1.26269,1.26269 0.89285,1.78572 3.57144,1.78572c0.89287,0 3.57144,0 4.46431,0c2.67859,0 3.57144,0 6.25003,0c0.89287,0 2.76597,0.7361 4.46431,1.78572c2.27855,1.40822 4.35599,-1.89404 6.25003,0c1.26269,1.2627 0.89287,1.78572 3.57146,1.78572c0.89285,0 0.89285,1.78572 3.57144,1.78572c0.89287,0 3.60975,-0.25874 4.46431,0c3.08113,0.9329 4.35599,-0.1083 6.25003,1.78574c1.26269,1.26269 1.67741,-0.10832 3.57146,1.78572c1.26269,1.2627 1.6774,-0.10832 3.57144,1.78572c1.26269,1.2627 -0.36983,2.30875 0.89287,3.57144c1.89404,1.89405 4.35599,-0.1083 6.25003,1.78574c1.26269,1.26269 -0.36985,2.30875 0.89285,3.57144c1.89404,1.89404 2.30876,0.52303 3.57146,1.78572c1.89404,1.89404 2.71689,1.52698 3.57144,1.78572c3.08113,0.93289 2.30875,2.30876 3.57144,3.57146c1.89404,1.89404 2.94011,1.15437 3.57146,1.78572c1.26269,1.2627 0.78454,1.6774 2.67859,3.57144c1.26271,1.26271 0.26152,2.94011 0.89287,3.57146c1.26269,1.2627 2.67858,1.78572 2.67858,3.57144c0,1.78572 0.26151,2.94011 0.89286,3.57146c1.26269,1.26269 0,3.57144 0,5.35716c0,1.78572 0,3.57144 0,5.35718c0,1.78572 0,3.57144 0,5.35716c0,1.78572 0.78454,1.67742 2.67859,3.57146c1.26269,1.26269 0,3.57144 0,5.35716c0,1.78572 -1.2627,4.09448 0,5.35718c0.63134,0.63135 0.89285,1.78572 0.89285,3.57146c0,1.7857 0.78455,1.67739 2.67859,3.57144c1.26269,1.26269 0,3.57144 0,5.35717c0,1.78571 0,3.57145 0,5.35715c0,1.78574 0.2615,2.94013 0.89285,3.57147c1.2627,1.2627 0,3.57145 0,5.35715c0,1.78574 0,3.57147 0,5.35718c0,1.78573 0,3.57144 0,5.35718c0,1.78573 0,3.57144 0,5.35717c0,1.78571 -0.89285,1.78571 -0.89285,3.57145c0,1.78573 -0.52304,2.30874 -1.78574,3.57144c-1.26269,1.26269 1.2627,4.09448 0,5.35718c-1.26269,1.26269 -1.7857,1.7857 -1.7857,3.57144c0,1.78573 -1.78574,1.78573 -1.78574,3.57144c0,1.78574 -1.78571,3.57144 -1.78571,5.35718c0,1.78573 -0.52304,2.30874 -1.78573,3.57144c-1.2627,1.2627 -0.52304,2.30875 -1.78572,3.57144c-1.26271,1.2627 -2.60503,1.23831 -3.57146,3.57147c-0.68335,1.64978 -0.52301,2.30875 -1.78572,3.57145c-1.2627,1.26269 -2.30875,0.52301 -3.57144,1.7857c-1.26271,1.2627 -2.60503,3.02405 -3.57146,5.35718c-0.68338,1.64981 -0.52304,2.30875 -1.78572,3.57144c-1.2627,1.2627 -2.30873,2.30878 -3.57144,3.57147c-1.2627,1.2627 -2.30875,0.52301 -3.57146,1.78571c-1.26271,1.2627 -0.52304,2.30875 -1.78572,3.57144c-1.2627,1.2627 -2.30873,0.52304 -3.57144,1.78574c-1.2627,1.26269 -2.30875,0.52304 -3.57146,1.78573c-1.26268,1.2627 -0.52301,2.30875 -1.78572,3.57145c-1.2627,1.26269 -4.09447,0.52301 -5.35716,1.7857c-1.26271,1.2627 -0.52303,2.30878 -1.78574,3.57147c-1.26269,1.2627 -2.30876,0.52301 -3.57144,1.78571c-1.2627,1.2627 -2.30873,0.52304 -3.57144,1.78574c-1.26271,1.26269 -3.57146,1.7857 -5.35718,1.7857c-1.78572,0 -1.78572,1.78574 -3.57144,1.78574c-1.78574,0 -3.02402,0.8193 -5.35718,1.78573c-1.6498,0.68338 -3.57144,0 -5.35718,0c-1.78572,0 -3.57144,0 -5.35716,0c-1.78572,0 -3.57144,0 -5.35718,0c-1.78572,0 -3.57144,0 -5.35716,0l0,1.78571" id="svg_144" fill-opacity="0.5" fill="none"/>
    <path stroke="#00e2e2" stroke-opacity="0.1" d="m2569.82393,1290.722872c0,0.89286 1.26271,3.20164 0,4.46433c-1.2627,1.26269 -1.78572,1.78571 -1.78572,3.57144c0,1.78571 0,3.57144 0,5.35718c0,1.78571 0,3.57144 0,5.35715c0,1.78573 0,3.57144 0,5.35717c0,1.78574 1.26271,4.09449 0,5.35718c-1.2627,1.2627 -1.78573,1.78571 -1.78573,3.57144c0,1.78574 -1.78572,1.78574 -1.78572,3.57145c0,1.78573 -1.78573,3.57144 -1.78573,5.35717c0,1.78574 -1.78572,1.78574 -1.78572,3.57145c0,1.78573 -0.52304,2.30874 -1.78572,3.57144c-1.2627,1.26269 -2.30875,0.52304 -3.57145,1.78573c-1.26271,1.2627 -0.52305,2.30875 -1.78573,3.57145c-1.2627,1.26269 -2.30875,0.52304 -3.57144,1.78573c-1.26268,1.2627 1.78572,0.89286 2.67858,-1.78573l2.67859,-0.89286l0.89286,-2.67859" id="svg_143" fill-opacity="0.5" fill="none"/>
    <path stroke="#00e2e2" stroke-opacity="0.1" d="m2582.32399,1277.329962c0,1.78571 0.52302,2.30875 1.78573,3.57144c1.26268,1.2627 0.89286,1.78571 0.89286,3.57145c0,1.78573 1.41591,2.30874 2.67859,3.57144c0.63134,0.63134 1.67739,-0.10831 3.57144,1.78573c1.26268,1.2627 2.05243,2.51883 3.57145,5.35718c0.84259,1.5744 -0.36985,2.30875 0.89286,3.57144c1.89404,1.89405 1.41588,2.30875 2.67859,3.57144c0.63134,0.63135 -0.36982,2.30875 0.89287,3.57145c1.89404,1.89404 1.4159,2.30874 2.67858,3.57144c0.63135,0.63135 0.89286,1.78573 0.89286,3.57144c0,1.78574 0.78454,1.67743 2.67859,3.57147c1.26268,1.2627 0.89286,1.78571 0.89286,3.57144c0,1.78571 0.78454,1.6774 2.67858,3.57145c1.26271,1.26269 -0.41028,3.6192 0,5.35717c0.45871,1.94309 0.89287,3.57145 0.89287,5.35718c0,1.78571 2.67859,1.78571 2.67859,3.57144c0,1.78571 0,3.57145 0,5.35718c0,1.78571 0,3.57144 0,5.35715c0,1.78574 0,3.57147 0,5.35718l0,1.78573l0,1.78571" id="svg_142" fill-opacity="0.5" fill="none"/>
    <path stroke="#00e2e2" stroke-opacity="0.1" d="m2584.10972,1283.579992c0.89286,0 1.6774,-1.00119 3.57145,0.89286c1.26271,1.26269 -0.36982,2.30874 0.89286,3.57144c1.89405,1.89404 2.9401,1.15438 3.57145,1.78573c1.26268,1.2627 2.25015,2.07471 3.57144,3.57144c2.13051,2.41343 2.94011,2.9401 3.57146,3.57145c1.26271,1.26269 1.4159,2.30874 2.67858,3.57144c0.63135,0.63135 1.6774,-0.10831 3.57145,1.78573c1.26271,1.2627 0.26152,2.9401 0.89286,3.57145c1.26272,1.26269 0.78454,1.6774 2.67858,3.57144c1.26271,1.26269 0.89287,1.78573 0.89287,3.57144c0,1.78574 2.67859,1.78574 2.67859,3.57147c0,1.78571 0.89285,1.78571 0.89285,3.57144c0,1.78571 0,3.57145 0,5.35718c0,1.78571 0,3.57144 0,5.35715c0,1.78574 0.78454,1.67743 2.67859,3.57147c1.26268,1.2627 0,3.57144 0,5.35715c0,1.78573 0,3.57147 0,5.35718c0,1.78573 0,3.57144 0,5.35717c0,1.78574 0,3.57145 0,5.35718c0,1.78571 0,3.57144 -1.78572,3.57144l-1.78573,0" id="svg_141" fill-opacity="0.5" fill="none"/>
    <path stroke="#00e2e2" stroke-opacity="0.1" d="m2585.00258,1283.579992c0,-2.67859 0,-3.57147 0,-6.25003c0,-0.89288 1.00119,-1.67743 -0.89286,-3.57147c-1.89404,-1.89404 -2.9401,-0.26151 -3.57145,-0.89285c-1.89405,-1.89405 -2.9401,-2.04724 -3.57144,-2.67859c-0.63135,-0.63135 -2.67859,-0.89286 -3.57145,-0.89286c-2.67859,0 -2.67859,-2.67858 -3.57145,-2.67858c-2.67859,0 -2.9401,-0.26151 -3.57145,-0.89286c-1.89404,-1.89404 -1.67741,-0.78454 -3.57145,-2.67859c-1.89405,-1.89404 -2.94008,-0.2615 -3.57144,-0.89288c-1.89405,-1.89404 -3.57145,0 -3.57145,-2.67856l-2.67859,0" id="svg_140" fill-opacity="0.5" fill="none"/>
    <path stroke="#00e2e2" stroke-opacity="0.1" d="m2556.431,1052.328762c0,0 1.26269,0.52302 0,1.78572c-0.63135,0.63134 -1.6774,-0.10832 -3.57144,1.78572c-1.2627,1.26269 0.36984,2.30874 -0.89287,3.57145c-1.89404,1.89405 -2.9401,1.15438 -3.57144,1.78573c-1.2627,1.26269 -1.4159,2.30874 -2.67859,3.57144c-0.63135,0.63135 -0.89287,1.78572 -3.57144,1.78572c-0.89287,0 -1.29293,0.37752 -3.57146,1.78573c-1.69832,1.04963 -2.30875,2.30875 -3.57144,3.57145c-0.63135,0.63134 -0.89287,1.78572 -3.57146,1.78572c-0.89285,0 -1.6774,-0.10832 -3.57144,1.78572c-1.2627,1.26269 -2.05242,0.73311 -3.57144,3.57146c-0.84261,1.57443 -0.89287,1.78572 -0.89287,3.57144l-2.67859,0" id="svg_139" fill-opacity="0.5" fill="none"/>
    <path stroke="#00e2e2" stroke-opacity="0.1" d="m2582.324,1077.328882c1.78572,0 3.57144,0 5.35716,0c1.78574,0 4.09448,-1.26269 5.35718,0c1.26269,1.2627 1.78572,1.78572 3.57144,1.78572c1.78573,0 2.30876,0.52304 3.57146,1.78574c1.26269,1.26269 1.78572,1.78572 3.57144,1.78572c1.78572,0 1.78572,1.78572 3.57145,1.78572c1.78573,0 3.57145,0 5.35717,0c1.78572,0 1.78572,1.78572 3.57145,1.78572c1.78573,0 2.30875,0.52303 3.57145,1.78572c1.26269,1.2627 3.57144,0 5.35717,0c1.78573,0 3.57145,0 5.35717,0c1.78572,0 1.78572,1.78574 3.57145,1.78574c1.78572,0 2.30875,0.52302 3.57145,1.78572c1.26269,1.26269 3.024,0.81929 5.35716,1.78572c1.64981,0.68336 1.92166,1.10236 3.57145,1.78572c2.33316,0.96643 4.09447,0.52304 5.35717,1.78572c1.26269,1.26271 1.92166,1.10239 3.57144,1.78574c2.33316,0.96643 1.23831,4.39073 3.57147,5.35716c1.64978,0.68335 1.78571,1.78572 3.57144,1.78572c1.78571,0 2.30875,0.52303 3.57144,1.78574c1.2627,1.26269 2.30875,0.52304 3.57145,1.78572c1.26269,1.26269 0.52304,2.30874 1.78573,3.57144c1.2627,1.26268 2.30875,0.52301 3.57144,1.78572c1.2627,1.26271 1.78574,1.78574 1.78574,3.57146c0,1.78572 1.78571,1.78572 1.78571,3.57144c0,1.78572 0.52304,2.30875 1.78573,3.57146c1.2627,1.26269 0.52301,2.30876 1.78571,3.57144c1.26269,1.26269 -1.2627,4.09447 0,5.35716c1.26269,1.26271 1.78573,1.78574 1.78573,3.57146c0,1.78572 0,3.57144 0,5.35716c0,1.78574 0.52304,2.30875 1.78574,3.57146c1.26269,1.26269 0,3.57144 0,5.35716c0,1.78573 0,3.57146 0,5.35718c0,1.78573 0,3.57144 0,5.35717c0,1.78571 0,3.57145 0,5.35718c0,1.78571 0,3.57144 0,5.35715c0,1.78574 0,3.57147 0,5.35718c0,1.78573 1.26269,4.09448 0,5.35718c-0.63138,0.63137 -0.89288,1.78573 -0.89288,3.57144c0,1.78573 -0.78455,1.6774 -2.67859,3.57144c-1.2627,1.26269 1.26269,4.09448 0,5.35718c-0.63135,0.63135 -0.89286,1.78573 -0.89286,3.57144c0,1.78574 -2.67858,1.78574 -2.67858,3.57147c0,1.78571 -0.26151,2.9401 -0.89286,3.57144c-1.26269,1.2627 -2.67859,3.57145 -2.67859,5.35715c0,1.78574 -0.89285,1.78574 -0.89285,3.57147c0,1.78571 -2.67859,1.78571 -2.67859,3.57144c0,1.78571 0.36981,2.30875 -0.89288,3.57145c-1.89401,1.89401 -1.41586,2.30874 -2.67856,3.57144c-0.63138,0.63138 0.36981,2.30874 -0.89288,3.57144c-1.89405,1.89404 -1.4159,2.30878 -2.67859,3.57147c-0.63135,0.63135 -2.0524,0.7331 -3.57144,3.57144c-0.84259,1.57441 -0.05023,1.99701 -0.89286,3.57145c-1.51904,2.83834 -2.94009,2.94009 -3.57144,3.57144c-1.26269,1.26269 -0.78454,1.6774 -2.67859,3.57144c-1.26269,1.2627 0.36985,4.09448 -0.89285,5.35718c-1.89404,1.89404 -3.11276,1.62836 -3.57146,3.57144c-0.41027,1.73798 -1.41588,2.30878 -2.67859,3.57147c-0.63134,0.63135 -1.67741,-0.10833 -3.57145,1.78571c-1.26271,1.26269 0.36982,2.30874 -0.89286,3.57144c-1.89404,1.89404 -2.9401,1.15439 -3.57145,1.78574c-1.26271,1.26269 -1.4159,2.30874 -2.67858,3.57144c-0.63135,0.63135 -0.89287,1.78573 -3.57145,1.78573c-0.89286,0 -1.6774,-0.10833 -3.57145,1.78571c-1.26271,1.2627 0.36985,2.30878 -0.89286,3.57147c-1.89405,1.89405 -3.57145,1.78571 -6.25004,1.78571c-0.89285,0 -1.29289,0.37753 -3.57144,1.78573c-1.69831,1.04963 -2.76597,2.52182 -4.46431,3.57145c-2.27853,1.40823 -2.94011,1.15438 -3.57145,1.78573c-1.26268,1.2627 -2.9401,1.15436 -3.57145,1.78571c-1.26271,1.26269 -2.94009,1.15439 -3.57144,1.78573c-1.26268,1.2627 -2.94011,1.15436 -3.57146,1.78571c-1.26271,1.2627 -2.67858,1.78574 -2.67858,3.57147l-0.89286,0l-2.67859,0l-0.89286,0" id="svg_138" fill-opacity="0.5" fill="none"/>
    <path stroke="#00e2e2" stroke-opacity="0.1" d="m2610.00271,1309.472972c0,0 1.78573,0 3.57145,0c1.78573,0 4.09448,1.26269 5.35717,0c0.63135,-0.63135 2.30875,0.36984 3.57145,-0.89286c1.89404,-1.89404 1.83351,-2.26831 3.57145,-2.67859c1.94309,-0.45871 1.6774,-1.67739 3.57144,-3.57144c1.2627,-1.26269 2.94011,-0.2615 3.57146,-0.89285c1.2627,-1.2627 1.6774,-0.78455 3.57144,-2.67859c1.2627,-1.26269 1.78572,-0.89288 3.57145,-0.89288c1.78572,0 1.83349,-2.26828 3.57145,-2.67856c1.9431,-0.45871 4.09447,-2.30878 5.35718,-3.57147c0.63135,-0.63135 2.63855,-0.4903 3.57144,-3.57144c0.25873,-0.85456 -0.10833,-1.6774 1.78571,-3.57145c1.26269,-1.26269 1.67743,-1.6774 3.57147,-3.57144c1.2627,-1.26269 2.94376,-1.44095 5.35715,-3.57144c1.49673,-1.32132 2.94012,-3.83298 3.57147,-4.46433c1.26269,-1.26269 2.30875,-1.41589 3.57144,-2.67858c0.63135,-0.63135 0.37747,-1.29291 1.78571,-3.57145c1.04962,-1.69833 2.30878,-2.30874 3.57147,-3.57144c0.63138,-0.63138 0.3775,-1.29291 1.78571,-3.57144c1.04962,-1.69833 2.30874,-2.30878 3.57144,-3.57147c0.63135,-0.63135 1.78573,-0.89286 1.78573,-3.57144c0,-0.89286 1.78574,-0.89286 1.78574,-3.57145c0,-0.89285 0.37747,-1.2929 1.78571,-3.57144c1.04962,-1.69833 2.52182,-2.76599 3.57144,-4.46432c1.4082,-2.27857 1.78573,-3.57145 1.78573,-6.25003c0,-0.89286 1.15439,-3.83295 1.78574,-4.4643c1.26269,-1.26269 1.78571,-2.67859 1.78571,-3.57144c0,-2.67859 -1.89405,-4.35602 0,-6.25006c1.26269,-1.2627 1.78573,-0.89285 1.78573,-3.57144c0,-0.89286 0,-3.57145 0,-4.4643c0,-2.67859 0,-3.57144 0,-6.25003c0,-0.89288 0,-3.57144 0,-4.46432c0,-2.67859 0,-3.57145 0,-6.25003c0,-0.89286 0,-3.57145 0,-4.4643c0,-2.67859 0,-3.57147 0,-6.25003c0,-0.89288 0,-3.57147 0,-4.46432c0,-2.67859 0,-3.57145 0,-6.25004c0,-0.89285 0,-3.57144 0,-4.46432c0,-2.67856 0,-3.57144 0,-6.25003c0,-0.89285 0,-3.57144 0,-4.4643c0,-2.67858 0,-3.57145 0,-6.25003c0,-0.89286 0,-3.57145 0,-4.46431c0,-2.67859 0,-3.57145 0,-6.25004c0,-0.89286 0.63135,-3.83296 0,-4.46431c-1.26269,-1.26271 -1.78573,-2.67858 -1.78573,-3.57144c0,-2.67859 1.02505,-3.77533 0,-6.25004c-0.48322,-1.16658 -0.89286,-3.57144 -0.89286,-4.46431c0,-2.67858 0,-3.57144 -2.67859,-3.57144c-0.89285,0 -1.6774,-0.78454 -3.57144,-2.67859c-0.63135,-0.63134 -1.67743,1.00116 -3.57144,-0.89286c-1.89404,-1.89405 -0.26154,-2.9401 -0.89288,-3.57145c-1.89405,-1.89404 -2.69013,-2.53556 -3.57144,-2.67859c-2.78702,-0.45227 -1.6774,-1.67739 -3.57145,-3.57144c-1.89404,-1.89404 -4.35599,1.00118 -6.25003,-0.89287c-1.89404,-1.89404 -1.92053,-1.28094 -3.57144,-3.57144c-1.56619,-2.17299 -1.67743,-0.78454 -3.57147,-2.67859c-0.63135,-0.63134 1.00119,-1.67741 -0.89285,-3.57145c-1.89405,-1.89405 -2.9401,-0.26151 -3.57145,-0.89286c-1.89404,-1.89404 -2.04724,-2.94011 -2.67859,-3.57145c-0.63134,-0.63135 -1.67739,-0.78453 -3.57144,-2.67858c-0.63135,-0.63135 1.00119,-1.67741 -0.89285,-3.57145c-1.89404,-1.89405 -2.94009,-0.26151 -3.57146,-0.89286c-1.89404,-1.89404 -2.04724,-2.94011 -2.67859,-3.57145c-0.63134,-0.63135 -1.67741,-0.78455 -3.57145,-2.67859c-0.63135,-0.63135 -3.83297,0.63134 -4.46431,0c-0.63135,-0.63135 -2.67858,-0.89286 -3.57145,-0.89286c-2.67858,0 -2.67858,-2.67859 -3.57144,-2.67859c-2.67859,0 -4.35599,1.89405 -6.25003,0c-0.63135,-0.63134 -0.89287,-0.89286 -3.57146,-0.89286c-0.89285,0 -3.57144,0 -4.46431,0c-2.67858,0 -1.67739,-0.78453 -3.57144,-2.67858c-1.89404,-1.89404 -3.57145,0 -6.25003,0c-0.89287,0 -0.89287,-0.89287 -3.57146,-0.89287c-0.89285,0 -3.83296,0.63135 -4.46431,0c-1.89404,-1.89404 -2.67858,-2.67858 -3.57144,-2.67858c-2.67859,0 -3.57145,0 -6.25003,0l-0.89287,0" id="svg_137" fill-opacity="0.5" fill="none"/>
    <path stroke="#00e2e2" stroke-opacity="0.1" d="m2604.64554,1326.437342c1.78572,0 5.56848,-0.05023 7.1429,-0.89285c2.83833,-1.51905 2.9401,-2.9401 3.57144,-3.57145c1.2627,-1.26269 3.4141,-3.11273 5.35718,-3.57144c1.73795,-0.41028 2.30875,-1.41589 3.57144,-2.67859c0.63135,-0.63135 2.30875,0.36985 3.57146,-0.89285c1.89404,-1.89404 2.07471,-2.25018 3.57144,-3.57147c2.41339,-2.13053 2.9401,-2.9401 3.57144,-3.57144c1.2627,-1.2627 2.51885,-1.15955 5.35718,-2.67859c1.57442,-0.84262 1.78572,-0.89286 3.57146,-0.89286c1.78571,0 1.78571,-2.67859 3.57144,-2.67859c1.78571,0 1.78571,-0.89285 3.57144,-0.89285c1.78574,0 1.78574,-2.67859 3.57145,-2.67859c1.78573,0 3.41409,-0.43414 5.35717,-0.89285c1.73798,-0.41028 1.6774,-0.78455 3.57145,-2.67859c1.26269,-1.26269 2.94006,-0.2615 3.57144,-0.89288c1.26269,-1.2627 1.67746,-0.78455 3.57147,-2.67856c1.26269,-1.2627 2.94006,-0.26151 3.57144,-0.89288c1.2627,-1.2627 1.6774,-0.78455 3.57144,-2.67859c1.2627,-1.2627 1.78574,-0.89286 3.57145,-0.89286c1.78573,0 1.62835,-3.11273 3.57144,-3.57144c1.73797,-0.41028 2.30877,-1.41589 3.57147,-2.67859c0.63135,-0.63134 0.52301,-2.30874 1.78571,-3.57144c0.63137,-0.63138 0.37756,-1.29291 1.78573,-3.57144c1.04962,-1.69833 2.30875,-2.30878 3.57144,-3.57147c0.63135,-0.63135 1.78574,-0.89286 1.78574,-3.57144c0,-0.89286 1.78571,-0.89286 1.78571,-3.57145c0,-0.89285 0.52304,-2.30874 1.78573,-3.57144c0.63138,-0.63138 0.73609,-2.76599 1.78571,-4.46432c1.4082,-2.27857 0,-3.57145 0,-6.25003c0,-0.89286 0.73611,-2.76597 1.78573,-4.4643c1.40824,-2.27853 0.52304,-2.30874 1.78574,-3.57144c1.89404,-1.89404 -1.89404,-4.35602 0,-6.25006c1.26269,-1.2627 -0.10834,-1.6774 1.78571,-3.57144c1.26269,-1.2627 1.78573,-0.89286 1.78573,-3.57145c0,-0.89285 1.78571,-0.89285 1.78571,-3.57144c0,-0.89285 0.52304,-2.30874 1.78573,-3.57144c0.63138,-0.63138 0.52301,-2.30878 1.78571,-3.57147c0.63135,-0.63135 0,-3.57144 0,-4.4643c0,-2.67858 1.78574,-2.67858 1.78574,-3.57144c0,-2.67859 0,-3.57144 0,-6.25003c0,-0.89288 0,-3.57144 0,-4.46432c0,-2.67859 0,-3.57145 0,-6.25003c0,-0.89286 0.52304,-2.30875 1.78573,-3.57145c0.63135,-0.63134 0,-3.57144 0,-4.46432c0,-2.67856 0,-3.57144 0,-6.25003c0,-0.89286 0,-3.57144 0,-4.4643c0,-2.67859 -0.44061,-3.46301 -0.89288,-6.25003c-0.14304,-0.88135 0,-3.57144 0,-4.46432c0,-2.67859 -2.67859,-3.57144 -2.67859,-6.25003c0,-0.89286 -0.89285,-0.89286 -0.89285,-3.57145c0,-0.89286 -2.67859,-0.89286 -2.67859,-3.57144c0,-0.89287 -0.26151,-3.83296 -0.89286,-4.46431c-1.89404,-1.89404 -3.08822,-2.40487 -3.57144,-3.57145c-1.02505,-2.47471 -0.78454,-1.6774 -2.67859,-3.57145c-1.89404,-1.89404 -0.2615,-2.94011 -0.89285,-3.57145c-1.89404,-1.89405 -0.78455,-1.6774 -2.67859,-3.57145c-1.89404,-1.89404 -0.2615,-2.94007 -0.89288,-3.57144c-1.89404,-1.89404 -2.04721,-2.94011 -2.67856,-3.57145c-0.63138,-0.63137 -1.67743,-0.78454 -3.57147,-2.67858c-0.63135,-0.63135 -0.26151,-2.94011 -0.89285,-3.57146c-0.63135,-0.63134 -0.78455,-1.67739 -2.67859,-3.57144c-0.63135,-0.63135 -1.6774,1.00118 -3.57145,-0.89287c-1.89404,-1.89404 -0.2615,-2.94009 -0.89285,-3.57144c-1.89404,-1.89404 -2.94009,-2.04722 -3.57147,-2.67859c-0.63135,-0.63134 -2.94006,-0.2615 -3.57144,-0.89286c-1.89405,-1.89405 -2.04724,-2.9401 -2.67859,-3.57145c-0.63135,-0.63134 -1.6774,-0.78454 -3.57144,-2.67859c-0.63135,-0.63134 1.00119,-1.67739 -0.89286,-3.57144c-1.89404,-1.89404 -3.22976,-0.06796 -3.57144,-0.89287c-1.44964,-3.49974 -3.46304,-3.11917 -6.25003,-3.57144c-0.88135,-0.14302 -0.89288,-2.67859 -3.57147,-2.67859c-0.89285,0 -1.6774,1.00118 -3.57144,-0.89286c-1.89405,-1.89405 -1.6774,-0.78454 -3.57145,-2.67858c-0.63134,-0.63135 -0.89285,-0.89287 -3.57144,-0.89287c-0.89285,0 -0.89285,-2.67859 -3.57144,-2.67859c-0.89287,0 -0.89287,-0.89285 -3.57146,-0.89285c-0.89286,0 -1.67741,-0.78454 -3.57145,-2.67859c-0.63135,-0.63135 -3.83297,0.63135 -4.46431,0c-0.63135,-0.63135 -2.67858,-0.89287 -3.57145,-0.89287c-2.67858,0 -2.67858,-2.67858 -3.57144,-2.67858c-2.67859,0 -2.67859,-0.89286 -3.57145,-0.89286c-2.67858,0 -1.6774,-0.78454 -3.57145,-2.67859c-1.89404,-1.89404 -4.35598,1.89405 -6.25003,0c-0.63135,-0.63134 -0.89287,-0.89286 -3.57145,-0.89286c-0.89286,0 -0.89286,-2.67858 -3.57145,-2.67858c-0.89286,0 -3.57144,0 -4.46431,0c-2.67859,0 -4.35598,1.89404 -6.25003,0c-0.63135,-0.63135 -0.89287,-0.89287 -3.57145,-0.89287c-0.89286,0 -3.57145,0 -4.46431,0l0,-2.67859l-2.67858,0l-0.89287,0" id="svg_136" fill-opacity="0.5" fill="none"/>
    <path stroke="#00e2e2" d="m2591.145495,1073.650294c0,0 -0.02387,0.20514 -0.89289,0c-1.94305,-0.45869 -3.57141,-0.89285 -5.35718,-0.89285c-1.7857,0 -2.51879,-1.15956 -5.35717,-2.67859c-1.57441,-0.84259 -2.94007,-0.26152 -3.57141,-0.89287c-1.26276,-1.26273 -3.57148,0 -5.35718,0c-1.78574,0 -4.09448,1.26268 -5.35718,0c-1.89404,-1.89404 -1.78574,-2.67857 -3.57144,-2.67857c-1.78574,0 -3.57147,0 -5.35718,0c-1.78574,0 -3.57144,0 -5.35718,0l-1.78573,0l-1.78571,0" id="svg_135" fill-opacity="0.5" stroke-opacity="0.1" fill="none"/>
    <path stroke="#00e2e2" d="m2559.89531,1270.079902c1.78573,1.78574 1.41589,2.30878 2.67859,3.57147c1.89404,1.89405 3.10205,2.5452 3.57144,1.78571c1.04962,-1.6983 -2.27927,-1.87997 -2.67859,-2.67859c-1.99649,-3.99301 -6.5152,-4.11951 -8.92862,-6.25003c-1.4967,-1.32126 -3.41409,-4.00558 -5.35718,-4.46429c-1.73794,-0.41028 -2.30874,-1.4159 -3.57144,-2.67859c-0.63138,-0.63138 1.15436,-0.63138 1.78574,0c0.63134,0.63135 3.57144,1.7857 7.14288,3.57144c3.57144,1.78574 4.1496,4.43976 8.03577,5.35718c2.60693,0.61541 3.57144,2.67856 3.57144,1.7857c0,-0.89285 -2.67859,-0.89285 -4.4643,-0.89285c-1.78573,0 -0.42843,1.18185 0.89286,2.67859c2.13052,2.41342 3.16888,4.42429 6.25003,5.35718c0.85455,0.25873 2.30874,2.30874 3.57144,3.57144c0.63135,0.63138 2.78693,-1.6774 0.89288,-3.57144c-0.63134,-0.63138 -1.74572,-0.49036 -2.67859,-3.57144c-0.25875,-0.85459 -2.30877,-2.30878 -3.57147,-3.57148c-0.63135,-0.63134 -3.67975,-1.67739 -1.7857,-3.57144c0.63134,-0.63135 3.83294,1.15439 4.46429,1.78574c1.2627,1.26269 2.94013,1.15433 3.57147,1.7857c1.2627,1.2627 2.94007,1.15442 3.57141,1.78574c1.2627,1.26269 3.09992,1.68008 2.67859,0.89285c-3.03808,-5.67666 -6.09027,-4.73099 -8.92859,-6.25003c-1.57443,-0.84262 -2.94012,-0.2615 -3.57147,-0.89285c-1.26269,-1.2627 -0.82281,-0.18765 1.78574,0.89285c3.68905,1.52805 5.01242,2.94373 7.14291,5.35718c1.32129,1.49673 3.83295,2.94006 4.4643,3.57144c1.26269,1.2627 2.63079,2.19602 0.89288,1.78574c-1.94312,-0.45871 -5.88019,-2.30872 -7.14295,-3.57144c-0.63134,-0.63138 0.10834,-1.67743 -1.7857,-3.57148c-1.2627,-1.26269 -1.51901,0.84696 0,1.78574c1.69836,1.04962 1.67743,5.46548 3.57147,3.57144c1.2627,-1.26269 -2.52185,-0.98025 -3.57147,-2.67859c-1.4082,-2.27856 -2.94376,-4.1195 -5.35718,-6.25003c-1.4967,-1.32126 -2.51883,-2.0524 -5.35715,-3.57144c-1.57443,-0.84262 -2.30877,-2.15555 -3.57147,-0.89285c-0.63135,0.63135 -0.36981,1.41589 0.89288,2.67859c1.89405,1.89404 3.57145,2.67855 3.57145,1.7857c0,-0.89285 -2.8899,-0.05023 -4.46433,-0.89285c-2.83832,-1.51904 -2.94009,-2.94009 -3.57144,-3.57144c-1.2627,-1.2627 -1.6774,-0.78455 -3.57144,-2.67859c-1.2627,-1.2627 -0.64347,0.51068 0.89285,1.7857c5.00192,4.15122 7.21457,2.95606 9.8215,3.57148c3.88617,0.91739 3.60974,3.31271 4.4643,3.57144c3.08111,0.93289 4.73099,0.73309 6.25003,3.57144c0.84259,1.57443 -0.36981,2.30875 0.89288,3.57144c1.89404,1.89405 2.67859,1.78574 0.89282,1.78574c-1.7857,0 -3.57141,0 -3.57141,1.7857c0,1.78574 0.40036,3.39795 1.78571,7.14292c1.27722,3.4527 1.04608,6.40323 3.57147,8.92862c0.63135,0.63131 -0.36987,2.30874 0.89282,3.57144c1.89405,1.89404 2.94013,1.15436 3.57147,1.78574c1.2627,1.26269 1.02509,0.68893 0,-1.78574c-0.48321,-1.1666 -0.68774,-3.59534 -0.89288,-4.46433c-0.91742,-3.88616 -2.52179,-5.44458 -3.57141,-7.14288c-1.4082,-2.27853 -0.37756,-3.9715 -1.78577,-6.25003c-1.04962,-1.6983 -2.30871,-2.30875 -3.57141,-3.57144c-0.63138,-0.63138 0,0 0,1.7857c0,1.78574 0,3.57148 0,5.35718c0,1.78574 0.52301,2.30875 1.78571,3.57144c1.26269,1.2627 0.25873,3.53318 0,2.67859c-0.93286,-3.08111 -2.63855,-3.16888 -3.57144,-6.25003c-0.25873,-0.85455 0.1083,-1.6774 -1.78574,-3.57144c-1.26269,-1.26269 -2.19598,1.8335 -1.78571,3.57144c0.45871,1.94309 0.05024,3.78275 0.89286,5.35718c1.51904,2.83835 2.94009,2.94009 3.57144,3.57144c1.26269,1.2627 0.78455,5.46549 2.67859,3.57144c1.26269,-1.26269 0.82056,-2.77413 0,-6.25003c-0.91742,-3.88617 -2.1597,-9.30258 -3.57144,-10.71432c-2.82352,-2.82349 -1.15436,-6.51154 -1.78574,-7.14292c-1.26269,-1.26269 -1.87311,-4.62106 -3.57144,-3.57144c-0.75949,0.46939 2.21988,2.52124 2.67859,4.46433c0.41028,1.73794 3.12164,3.4891 3.57144,7.14288c0.21817,1.77237 2.94012,4.7258 3.57147,5.35718c1.2627,1.26269 0.78455,1.6774 2.67859,3.57144c1.2627,1.2627 0.62769,0.34479 -1.78577,-1.78574c-1.4967,-1.32125 -2.0747,-3.14303 -3.57141,-4.46429c-2.41342,-2.13052 -1.67743,-4.35599 -3.57147,-6.25003c-1.26269,-1.2627 -3.91315,-0.82492 -3.57144,0c0.96643,2.33316 2.21988,3.41409 2.67859,5.35718c0.41028,1.73794 1.02505,0.68896 0,-1.78574c-0.48322,-1.16656 -1.62897,-2.76599 -2.67859,-4.46432c-1.4082,-2.27854 0.10834,-4.35599 -1.78571,-6.25003c-1.26269,-1.2627 0,1.78573 3.57144,5.35717c3.57145,3.57145 4.65329,6.88767 7.14289,8.92862c3.906,3.20215 3.83294,4.72586 4.46429,5.35718c1.2627,1.2627 0.89288,3.57144 2.67859,3.57144c1.78571,0 -0.86829,-2.36386 -1.78571,-6.25003c-0.61541,-2.60693 -1.7857,-6.25003 -1.7857,-7.14288c0,-2.67859 0.89276,-6.25003 -1.78577,-6.25003c-1.7857,0 0.6814,3.87811 2.67859,8.92862c2.36768,5.98736 5.83978,7.19064 6.25006,8.92862c0.45874,1.94308 2.30878,2.30874 3.57147,3.57144c0.63135,0.63131 0.45227,-0.78446 0,-3.57144c-0.143,-0.88135 -2.52185,-2.76603 -3.57147,-4.46433c-1.4082,-2.27853 0.10834,-4.35599 -1.7857,-6.25003c-1.26276,-1.26273 -1.78577,-0.89285 -1.78577,0c0,1.78574 0,3.57144 0,5.35718c0,1.7857 2.05243,2.51883 3.57147,5.35718c0.84259,1.5744 -0.36981,4.09445 0.89288,5.35714c1.89405,1.89405 2.94007,2.41706 3.57141,1.78574c0.63135,-0.63135 0,-7.14292 -0.89282,-8.03577c-3.57141,-3.5715 -3.31622,-7.33188 -5.35718,-9.82147c-3.20214,-3.90601 -4.09448,-3.20163 -5.35717,-4.46433c-1.89405,-1.89401 0.43414,-1.0502 0.89282,0.89289c0.41028,1.73794 2.52185,5.44458 3.57147,7.14288c2.34705,3.79755 2.30878,5.88022 3.57147,7.14291c1.89405,1.89405 2.94007,1.15439 3.57141,1.78571c1.2627,1.2627 0,0.89285 0,-1.78571c0,-0.89288 -0.4096,-3.29776 -0.89282,-4.46432c-1.02502,-2.4747 -1.15442,-2.94009 -1.78577,-3.57144c-1.26269,-1.2627 -1.7857,-2.67859 -1.7857,-0.89286c0,1.78571 1.71704,2.72568 3.57147,5.35715c2.12067,3.00922 1.22437,6.91681 3.57141,10.71436c1.04962,1.69833 2.30878,5.88018 3.57147,7.14288c0.63135,0.63132 1.67737,-0.10831 3.57141,1.78574c1.2627,1.26269 1.89405,0.1083 0,-1.78574c-1.26269,-1.2627 -2.63855,-0.49033 -3.57141,-3.57144c-0.25872,-0.85456 -1.78576,-0.89286 -1.78576,0c0,1.78573 2.04724,2.94012 2.67859,3.57144c1.26269,1.26269 2.26831,3.6192 2.67858,5.35718c0.45874,1.94311 1.67743,1.6774 3.57148,3.57144c1.26269,1.26269 0.61541,0.82123 0,-1.78571c-0.91742,-3.8862 -2.63855,-4.06176 -3.57148,-7.14291c-1.03497,-3.41818 -1.7857,-3.57144 -1.7857,-4.46429c0,-2.67859 -1.78571,-2.67859 -1.78571,-0.89286c0,1.78571 1.44086,4.72949 3.57141,7.14289c1.32129,1.49673 1.44092,4.72949 3.57148,7.14288c1.32128,1.49673 1.67742,1.67743 3.57141,3.57144c1.26269,1.2627 -0.89289,3.57147 0.89288,3.57147c1.78577,0 1.02508,-2.8825 0,-5.35718c-0.48322,-1.16659 -2.41986,-3.60974 -2.67859,-4.46432c-0.93286,-3.08112 -1.78577,-0.89282 1.78571,6.25003c0.89288,1.78574 1.67743,1.67743 3.57147,3.57147c1.26269,1.2627 0,0.89286 0,-1.78573c0,-3.57145 -2.07471,-6.71445 -3.57147,-8.03577c-2.41339,-2.13052 -2.63855,-3.16892 -3.57141,-6.25003c-0.25873,-0.85455 -2.05603,0.79642 0.89288,5.35718c1.74792,2.70334 3.57141,3.57144 3.57141,5.35717c0,1.78571 0.89282,3.57145 2.67859,3.57145c0.89282,0 0,-3.57145 0,-7.14289c0,-0.89288 -1.52698,-3.60977 -1.78571,-4.46432c-0.93292,-3.08115 -0.49035,-7.18292 -3.57147,-6.25003c-1.70911,0.51748 0.81928,3.02401 1.78571,5.35718c0.68335,1.64978 -0.36982,5.88018 0.89288,7.14288c1.89404,1.89404 2.67859,1.78573 2.67859,0.89288c0,-2.67859 -1.52698,-2.71689 -1.78571,-3.57147c-0.93292,-3.08115 -2.63861,-3.16892 -3.57147,-6.25003c-0.25873,-0.85455 1.2627,0.52304 0,1.78573c-1.26269,1.2627 -2.30872,-0.52304 -3.57141,-1.78573c-0.63135,-0.63135 -2.30878,-2.30875 -3.57147,-3.57144c-0.63135,-0.63135 -1.78571,-3.57145 -1.78571,-1.78571c0,1.78571 0.89282,1.78571 0.89282,3.57144c0,1.78571 4.3877,3.05396 2.67859,3.57144c-3.08111,0.9329 -3.94543,-4.83828 -5.35718,-6.25003c-2.82348,-2.82345 -2.53363,-6.99798 -5.35711,-9.82147c-1.41175,-1.41177 -2.16327,-1.29294 -3.57147,-3.57147c-1.04963,-1.6983 -1.78571,0 -1.78571,1.78574c0,1.78573 0,5.35717 0,7.14288c0,3.57147 0,5.35718 0,7.14291c0,1.78571 0,3.57144 0,5.35715c0,1.78574 0,0 0,-0.89285c0,-2.67859 -0.37756,-3.9715 -1.78577,-6.25003c-1.04962,-1.69831 -2.30871,-2.30875 -3.57141,-3.57145c-0.63135,-0.63134 -1.78577,-0.89285 -1.78577,0c0,1.78574 0.81934,3.02399 1.78577,5.35718c0.68335,1.64978 0.43414,3.41409 0.89282,5.35715c0.41028,1.73797 0,3.57147 0,5.35718c0,1.78573 0,-1.78571 0,-2.67859c0,-2.67859 0.5965,-3.77625 -0.89282,-7.14289c-1.30237,-2.94409 -1.15808,-4.1195 -3.57147,-6.25003c-1.4967,-1.32129 -2.30875,-4.83413 -3.57144,-3.57144c-1.2627,1.2627 -0.41028,3.6192 0,5.35718c0.45871,1.94308 0.05026,3.78274 0.89285,5.35715c1.51904,2.83834 2.67859,3.57144 2.67859,5.35717c0,1.78574 -0.89282,3.57145 0.89288,3.57145c1.78571,0 1.02509,-2.88251 0,-5.35718c-0.48321,-1.1666 -0.2652,-5.01239 -2.67859,-7.14288c-1.49673,-1.32129 -2.30877,-2.30875 -3.57147,-3.57145c-0.63135,-0.63134 0,0 0,1.78574c0,1.78571 -0.68335,3.70737 0,5.35715c0.96643,2.33319 2.21988,3.41409 2.67859,5.35717c0.82053,3.4759 1.15955,4.30457 2.67859,7.14289c0.84259,1.57443 0,3.57147 0,1.78573c0,-0.89285 0,-3.57144 0,-4.46429c0,-2.67859 2.67859,-6.25006 0,-6.25006c-1.78574,0 -0.41028,3.61923 0,5.35718c0.45874,1.94311 2.15973,2.90768 3.57147,7.14291c0.5647,1.69406 0,3.57144 0,5.35715c0,1.78573 0,3.57147 0,2.67859c0,-2.67859 0,-3.57145 0,-7.14289c0,-2.67859 0,-3.57144 0,-6.25003c0,-3.57144 0,-4.46432 0,-7.14291c0,-0.89285 0.26148,-0.63135 0.89282,0c1.89405,1.89404 1.4159,2.30878 2.67859,3.57147c0.63135,0.63138 0.89289,1.78571 0.89289,0c0,-0.89288 0,-4.46432 0,-7.14291c0,-3.57145 0,-4.4643 0,-7.14289c0,-0.89285 -0.84259,-3.36013 0,-1.78573c1.51904,2.83835 4.33142,3.11191 6.25006,7.14291c1.58215,3.32404 3.41467,7.23029 4.46429,8.92862c2.34705,3.79755 2.94006,4.72583 3.57141,5.35715c1.2627,1.26269 0.32727,0.8728 0,-1.78571c-0.44977,-3.65378 -1.51105,-3.93835 -4.46429,-8.03577c-2.33472,-3.23928 -3.57141,-7.14288 -3.57141,-9.82147c0,-0.89285 -0.52301,-2.30871 -1.78577,-3.57144c-0.63135,-0.63138 -0.41028,0.04776 0,1.78571c0.91742,3.88623 1.54919,7.3262 2.67859,10.71435c1.41174,4.2352 1.88623,5.77979 3.57147,8.92862c1.51904,2.83832 1.41589,4.09448 2.67859,5.35718c0.63135,0.63132 1.67737,3.67975 3.57141,1.7857c0.63135,-0.63134 0.57074,-4.65637 -1.78571,-10.71432c-1.44757,-3.72141 -3.57147,-7.14291 -5.35717,-10.71436c-1.78571,-3.57144 -2.30872,-3.20159 -3.57141,-4.46429c-1.89405,-1.89404 -1.22785,-0.33063 0.89282,2.67859c1.85443,2.63147 4.39563,4.51138 6.25006,7.14288c2.1206,3.00922 2.30871,5.88019 3.57141,7.14289c0.63135,0.63137 -0.7569,2.88809 0.89288,3.57144c3.4997,1.44964 0.02454,-5.04239 -0.89288,-8.92862c-0.82056,-3.47589 -2.07471,-6.71448 -3.57141,-8.03574c-2.41345,-2.13052 -2.30878,-2.30874 -3.57147,-3.57144c-1.89405,-1.89404 0.26153,-1.52426 0.89288,-0.89288c1.26269,1.26269 2.52179,5.44458 3.57141,7.14291c2.34699,3.79758 2.25018,5.64615 3.57147,7.14288c2.13056,2.41343 2.94013,2.94007 3.57147,3.57145c1.2627,1.26269 0,0.89288 0,-1.78571c0,-0.89288 -1.62896,-2.76602 -2.67858,-4.46432c-1.40821,-2.27854 -2.63862,-3.16892 -3.57148,-6.25004c-0.25872,-0.85455 0.89289,-3.57144 -1.7857,-3.57144c-1.78577,0 0,3.57144 0,2.67859l-1.78577,-2.67859l-1.78571,-0.89285" id="svg_134" fill-opacity="0.5" stroke-opacity="0.1" fill="none"/>
    <path stroke="#00e2e2" d="m2533.109445,1069.185984c-3.57144,2.67859 -4.67379,4.60023 -5.35717,6.25005c-0.96643,2.33314 -3.0224,5.68933 -5.35715,8.92861c-1.47662,2.04871 -3.57147,1.78573 -3.57147,3.57145c0,1.78572 0.86401,1.68135 7.14291,0c3.55606,-0.95224 7.14288,1.78572 7.14288,-0.89287c0,-1.78571 -3.57144,0 -5.35717,0c-1.78571,0 -4.09446,-0.36981 -5.35715,0.89287c-1.2627,1.26269 -2.82987,1.44865 -1.78574,0c1.65091,-2.29053 6.25003,-4.46431 8.92862,-7.1429c3.57144,-3.57144 7.15442,-6.99988 8.03577,-7.1429c2.78699,-0.45227 2.94006,-2.94008 3.57144,-3.57144c0.63135,-0.63135 2.63083,-1.30315 0.89285,-0.89287c-1.94311,0.45871 -3.02401,1.71216 -5.35717,2.67859c-1.64978,0.68335 -3.57145,1.78572 -5.35715,1.78572c-1.78574,0 -3.57147,0 -3.57147,1.78574c0,1.78573 2.67859,0 5.35718,0c0.89285,0 5.51394,-0.08739 4.46432,-1.78574c-0.46942,-0.75954 -2.77414,-0.82056 -6.25003,0c-3.8862,0.9174 -6.59549,4.39075 -8.92862,5.35718c-1.64981,0.68338 -3.57147,-0.00002 -3.57147,1.78572c0,0.89288 3.57147,0 7.14291,0c0.89286,0 4.35587,-0.44058 7.14289,-0.89286c3.52533,-0.57208 3.64315,-1.22894 7.14288,-2.67858c0.82492,-0.34169 3.57147,0 1.78573,0c-3.57144,0 -8.92861,1.78572 -10.71432,3.57144c-1.78574,1.78573 -2.30878,2.30874 -3.57147,3.57145c-1.2627,1.26268 -2.30875,0.52303 -3.57144,1.78573c-1.2627,1.26268 -0.89286,0 1.78573,0c0.89285,0 3.25672,-0.86832 7.14288,-1.78573c0.86896,-0.20513 4.96991,0.67331 7.14289,-0.89286c2.29052,-1.65091 2.94012,-2.9401 3.57147,-3.57145c0.63135,-0.63134 5.46548,-0.78454 3.57144,-2.67858c-1.26269,-1.26272 -3.57144,0 -5.35718,0c-1.78573,0 -4.83413,0.52302 -3.57144,1.78572c1.2627,1.26268 2.67859,0 5.35718,0c3.57144,0 4.46429,0 7.14288,0c0.89286,0 3.57144,0 4.46433,0c2.67856,0 1.36496,-1.30248 -4.46433,-2.67859c-3.47589,-0.82056 -9.02417,-0.82056 -12.50006,0c-1.94311,0.45871 -6.59546,1.71216 -8.92862,2.67859c-1.64981,0.68336 -2.30874,0.52302 -3.57144,1.78572c-1.26269,1.26271 -0.63135,-0.26151 0,-0.89286c0.63135,-0.63134 0.89285,-2.67858 3.57144,-2.67858c0.89286,0 0,-0.00002 -1.78573,1.78572c-1.78571,1.78572 -4.09446,0.52304 -5.35715,1.78572c-1.2627,1.26269 -1.2627,4.83417 0,3.57146c0.63135,-0.63135 -1.00119,-1.67742 0.89285,-3.57146c1.89405,-1.89405 3.57144,0 2.67859,0c-3.57144,0 -7.47507,-0.54904 -10.71435,1.78572c-2.04871,1.47662 -2.30875,2.30876 -3.57145,3.57146c-1.26269,1.26271 -3.57144,0 -2.67858,0c2.67858,0 3.77533,-0.76067 6.25003,-1.78572c1.16656,-0.48322 1.67739,-1.67742 3.57144,-3.57146c0.63138,-0.63136 1.67743,1.00119 3.57147,-0.89286c1.89404,-1.89404 0.2615,-2.9401 0.89285,-3.57145c1.89405,-1.89405 1.22895,-2.75029 2.67859,-6.25003c0.34168,-0.82491 0.89285,-0.89287 0.89285,-3.57145c0,-0.89286 0.41028,0.04778 0,1.78573c-0.45871,1.94308 -1.41589,2.30874 -2.67858,3.57144c-1.2627,1.26268 -2.30875,0.52301 -3.57145,1.78572c-1.26269,1.26271 1.78574,1.78573 5.35718,1.78573c0.89285,0 3.57144,0 7.14288,0c0.89286,0 3.60975,0.25875 4.46433,0c3.08112,-0.93289 3.57144,-1.78573 2.67856,-1.78573c-1.78571,0 -3.02399,0.8193 -5.35715,1.78573c-1.64981,0.68338 -3.57144,0.00002 -3.57144,1.78573c0,2.67855 6.25003,0 9.82147,0c3.57144,0 7.06055,-0.44307 10.71433,-0.89287c2.6585,-0.32729 4.35601,1.89403 6.25003,0c1.89404,-1.89405 -1.15436,-2.9401 -1.78571,-3.57144c-1.26269,-1.26272 -0.89285,0 1.78571,0c0.89288,0 3.57147,0 4.46432,0c2.67859,0 3.57144,0 2.67859,0c-1.78574,0 -3.57144,-2.67859 -5.35718,-2.67859c-1.78573,0 -3.57144,-0.89287 -5.35718,-0.89287c-1.7857,0 -5.35717,-1.78574 -5.35717,0c0,1.78573 2.04724,0.26152 2.67859,0.89287c1.89404,1.89404 3.57147,1.78572 7.14291,1.78572c2.67859,0 6.25003,1.78572 7.14288,1.78572c2.67859,0 3.57144,0 6.25003,0c0.89289,0 0.15735,-0.43416 -1.7857,-0.89285c-3.47592,-0.82056 -7.14292,-2.67859 -10.71436,-2.67859c-3.57144,0 -7.14288,0 -8.92862,0c-1.78573,0 -5.35717,-1.78574 -5.35717,0c0,1.78573 2.67858,0 6.25003,0c3.57147,0 7.14291,1.78572 9.8215,1.78572c0.89285,0 4.46429,0 7.14288,0c0.89286,0 0.54743,-0.81929 -1.78573,-1.78572c-1.64978,-0.68335 -3.48911,-0.44307 -7.14289,-0.89287c-1.77237,-0.21819 -3.57144,0 -5.35717,0c-1.78571,0 -3.13086,0.10843 -2.67859,-2.67858c0.14303,-0.88133 2.63083,-1.30314 0.89288,-0.89286c-1.94312,0.45871 -3.7074,0.20951 -5.35718,0.89286c-2.33316,0.96644 -5.35718,-0.00001 -5.35718,1.78573c0,1.78573 2.04724,-1.15438 2.67859,-1.78573c0.63135,-0.63134 -0.55118,-0.8249 -0.89285,0c-0.96643,2.33316 -2.41708,-0.26152 -1.78574,-0.89286c1.2627,-1.26271 1.78574,-2.67859 2.67859,-3.57145c2.67859,-2.67858 3.57147,-3.57144 6.25003,-6.25003c0.89286,-0.89286 0.46942,-0.75952 0,0c-2.09924,3.39664 -4.41836,2.05242 -5.35717,3.57145c-2.09925,3.39663 -3.70737,2.88806 -5.35718,3.57144c-2.33316,0.96643 -2.30875,4.83416 -3.57144,3.57145c-0.63135,-0.63134 -0.14304,-3.58299 0,-4.46431c0.45227,-2.78703 1.67743,-1.67742 3.57144,-3.57145c1.89404,-1.89405 0.26153,-2.9401 0.89288,-3.57144c1.89404,-1.89405 2.67859,0.89286 2.67859,2.67858c0,1.78573 -1.10236,3.70737 -1.78574,5.35717c-0.96643,2.33317 -1.78573,3.57145 -1.78573,2.67859c0,-2.67859 0,-3.57145 0,-6.25004c0,-0.89286 -1.00116,-1.67739 0.89288,-3.57144c1.89404,-1.89404 2.94009,-0.26152 3.57144,-0.89287c1.89405,-1.89404 2.67859,-2.67858 2.67859,-0.89286c0,1.78573 0,3.57145 0,1.78573c0,-0.89287 0.89285,-3.57145 0.89285,-4.46431c0,-2.67859 -1.89404,-4.356 0,-6.25004c1.89405,-1.89405 2.67859,-0.89286 2.67859,0c0,5.35717 -1.78573,8.92862 0,8.92862c1.78574,0 -0.85284,-2.27604 -1.78573,-5.35717c-0.25873,-0.85455 0,-3.57145 0,-4.46431c0,-2.67859 0,-0.89286 0,0.89286c0,1.78573 0,3.57145 0,5.35717c0,1.78573 -0.52301,2.30875 -1.78571,3.57145c-1.26269,1.26271 -1.15439,1.52421 -1.78573,0.89286c-1.2627,-1.26268 -0.89286,-3.57144 -1.78571,-3.57144c-0.89285,0 0,2.67858 0,4.46431c0,1.78572 0,3.57144 0,2.67858c0,-2.67858 0,-3.57145 0,-6.25003c0,-0.89286 0.89285,-4.46431 0,-4.46431c-0.89285,0 0.68338,2.81451 0,4.46431c-0.96643,2.33316 -0.52304,4.09448 -1.78574,5.35717c-1.26269,1.26271 -1.78573,1.78572 -1.78573,0.89286c0,-2.67858 0,-3.57145 0,-6.25003c0,-3.57145 0,-4.46431 0,-7.1429c0,-0.89286 -1.2627,0.52302 0,1.78573c0.63138,0.63137 0.89288,1.78572 0.89288,0.89286c0,-2.67859 0,-3.57145 0,-2.67859c0,1.78573 2.94009,4.72583 3.57144,5.35717c1.2627,1.2627 2.67859,3.57145 2.67859,1.78573c0,-0.89286 0.89288,-4.46431 0,-4.46431c-0.89288,0 0.89285,0.89286 0.89285,2.67858c0,1.78573 2.67859,1.78573 2.67859,3.57145c0,1.78573 0.7331,5.0905 3.57145,3.57145c1.57443,-0.8426 2.67858,-5.35717 0,-5.35717c-1.78571,0 0.2615,2.94009 0.89288,3.57145c1.26269,1.2627 0,0 0,-0.89287c0,-2.67858 0,-3.57144 0,-6.25003c0,-0.89286 0,0 0,1.78572c0,1.78573 0.78454,1.67742 2.67856,3.57145c1.26269,1.26271 0,0.89286 0,1.78573c0,1.78572 0,3.57144 0,5.35716c0,1.78573 -1.78574,5.35718 0,5.35718c0.89285,0 0,-3.57145 0,-4.46431c0,-2.67859 -0.52301,-2.30877 -1.78571,-3.57145c-1.89404,-1.89405 0,-3.57145 0,-6.25004c0,-0.89285 0,-3.57144 0,-4.46431c0,-2.67858 2.67859,-6.25003 0,-6.25003c-1.78574,0 -1.78574,8.92862 -1.78574,16.07152c0,1.78572 0,3.57144 0,5.35716c0,1.78574 -0.81927,3.02404 -1.7857,5.35718c-0.68335,1.6498 -1.78574,1.78572 -1.78574,3.57144c0,1.78572 -0.52304,2.30875 -1.78573,3.57146c-1.2627,1.26268 -3.57145,0 -3.57145,-1.78574c0,-0.89285 0,-3.57144 0,-4.46431c0,-2.67857 -0.89285,-2.67857 0,-2.67857c0.89286,0 0.13593,-2.88809 1.78574,-3.57146c1.16657,-0.48321 3.57144,-3.57144 4.46429,-3.57144c2.67859,0 -0.89285,0 -4.46429,0c-3.57144,0 -5.4931,1.10234 -7.14291,1.78572c-2.33313,0.96643 -3.57145,1.78572 -3.57145,3.57146l-1.7857,0l0,1.78572" id="svg_133" fill-opacity="0.5" stroke-opacity="0.1" fill="none"/>
   </g>
  </g>
  <path d="m505.045776,201.434128c0,0.561722 0.432678,0.576752 0.561737,1.123444c0.144287,0.611237 0.527649,0.527664 1.123444,1.123459c0.397186,0.397202 -0.116333,0.726242 0.280853,1.123444c0.595795,0.595795 0.924835,0.363129 1.123444,0.561722c0.397186,0.397202 0.84259,0.561722 0.84259,1.123444c0,0.561722 0.64563,0.230621 1.123444,1.123459c0.265045,0.495255 0.015839,0.628189 0.280884,1.123444c0.477844,0.892838 0.726257,1.287964 1.123444,1.685165c0.595825,0.595795 0.979126,0.512238 1.123413,1.123444c0.129028,0.546707 0.84259,0.561737 0.84259,1.123459c0,0.561722 0.280884,1.123444 0.280884,1.685165c0,0.561722 -0.397217,1.287979 0,1.685181c0.595825,0.595795 0.84259,0.561722 0.84259,1.123444c0,0.561722 0,1.123444 0,1.685165c0,0.561722 0,1.123444 0,1.685181c0,0.561722 0.280884,0.561722 0.280884,1.123444c0,0.561722 0,1.123444 0,1.685165c0,0.561722 0.129089,1.138474 0,1.685181c-0.144287,0.611237 0.149048,1.208954 -0.280884,2.246887c-0.304016,0.733917 -0.561707,1.123444 -0.561707,1.685165c0,0.561737 0,1.123459 0,1.685181l-0.561768,0l0,0.561722l0,0.561722" id="svg_153" fill-opacity="0.5" stroke-opacity="null" stroke-width="NaN" stroke="null" fill="none"/>
  <path d="m507.854401,204.804474c0.280853,0 0.154236,0.829987 1.123444,1.123444c0.268829,0.08139 0.154266,0.829987 1.123444,1.123444c0.268829,0.08139 0.527679,-0.034058 1.123474,0.561737c0.397186,0.397202 0.280853,0.561722 0.280853,1.123444c0,0.561722 0.924866,0.363144 1.123413,0.561722c0.397217,0.397202 0.84259,0.561722 0.84259,1.123444c0,0.561722 -0.116333,0.726242 0.280884,1.123444c0.595825,0.595795 0.979187,0.512222 1.123474,1.123459c0.129089,0.546692 0.84259,1.123444 0.84259,1.685165c0,0.561722 0.015747,0.628189 0.280823,1.123444c0.477844,0.892853 0.924866,0.92485 1.123474,1.123459c0.397217,0.397202 0.246765,0.527649 0.84259,1.123444c0.397217,0.397202 0.136536,1.073959 0.280823,1.685165c0.129028,0.546692 0.84259,1.123459 0.84259,1.685181c0,0.561722 -0.129089,1.138474 0,1.685165c0.144287,0.611237 0.280884,1.123444 0.280884,1.685165c0,0.561737 0.364746,1.354065 0.84259,2.246902c0.265076,0.495255 0,1.123444 0,1.685165c0,1.123459 0,1.685181 0,2.246902c0,1.123444 0,2.246887 0,2.808609c0,0.561737 0,1.685181 0,2.808624c0,1.123444 -0.838928,2.17868 -1.123474,3.932068c-0.269958,1.663406 -0.70575,2.694611 -1.123413,3.370346c-0.933899,1.511032 -0.642822,2.771622 -1.123474,3.932068c-0.679749,1.641113 -0.797852,2.856812 -1.123413,3.932053c-0.586914,1.938446 -1.297974,3.415436 -1.685181,5.055527c-0.288635,1.222473 -1.204529,2.771637 -1.685181,3.932068c-0.679779,1.641083 -1.005402,2.852692 -1.685181,4.493774c-0.480682,1.160431 -1.396606,2.709625 -1.685181,3.932068c-0.129059,0.546722 -0.561707,2.246887 -1.123444,3.370361c-0.561707,1.123444 -0.693542,1.77066 -1.123444,2.808594c-0.303986,0.733917 -0.561707,1.123474 -0.561707,1.685181l0,0.561737l-0.561737,0l0,0.561707" id="svg_154" fill-opacity="0.5" stroke-opacity="null" stroke-width="0" stroke="null" fill="none"/>
  <path d="m504.203217,208.17482c0,0.561722 0.16452,1.287964 0.561707,1.685165c0.198608,0.198593 0.527649,-0.034073 1.123444,0.561722c0.397186,0.397202 0.082275,0.924835 0.280884,1.123444c0.397217,0.397202 0.979126,1.073944 1.123444,1.685181c0.129059,0.546692 0.713501,0.576752 0.84256,1.123444c0.144318,0.611237 0.527679,0.527649 1.123474,1.123444c0.397217,0.397202 -0.116333,1.287979 0.280853,1.685181c0.595795,0.595795 0.979156,0.512222 1.123444,1.123444c0.129059,0.546692 0.246796,0.527649 0.84259,1.123444c0.397186,0.397202 0.082245,0.924866 0.280853,1.123459c0.397186,0.397202 0.84256,1.123444 0.84256,1.685165c0,0.561722 0.139404,1.097534 0.280884,2.246887c0.068665,0.557526 0.364746,0.792343 0.84259,1.685181c0.265076,0.495255 -0.129089,1.138474 0,1.685165c0.144287,0.611237 0.280884,1.123444 0.280884,2.246902c0,0.561722 0,1.123444 0,1.685165c0,0.561722 -0.265076,1.189911 0,1.685165c0.477844,0.892853 0.84259,1.123459 0.84259,1.685181c0,0.561722 0,1.123444 0,2.246887c0,1.123459 0,1.685181 0,2.246902c0,1.123444 0,1.685165 0,2.246887c0,0.561722 0,1.123459 0,1.685181c0,0.561722 0,1.123444 0,1.685165c0,0.561722 0,1.123444 0,1.685165c0,0.561737 0,1.123459 0,1.685181c0,0.561722 0,1.123444 0,1.685165c0,0.561722 0,1.123444 0,1.685181c0,0.561722 0,1.123444 0,1.685165l0,0.561722l-0.561768,0" id="svg_156" fill-opacity="0.5" stroke-opacity="null" stroke="null" fill="none"/>
  <path d="m492.687866,218.847565c-0.280853,0 -0.885345,-0.214951 -1.404297,0c-0.733948,0.304001 -1.123474,0.561722 -1.685181,0.561722c-0.561737,0 -0.951233,0.257721 -1.685181,0.561722c-1.037933,0.429916 -1.586151,0.273148 -2.808624,0.561737c-0.546692,0.129059 -1.512939,0.257721 -2.246887,0.561722c-0.518951,0.214951 -1.700195,0.432663 -2.246887,0.561722c-1.222443,0.288574 -1.51297,0.819443 -2.246887,1.123444c-0.518982,0.214966 -0.726257,0.16452 -1.123444,0.561722c-0.397217,0.397202 -0.726288,0.16452 -1.123474,0.561722c-0.397186,0.397186 -0.726227,0.16452 -1.123444,0.561722c-0.397217,0.397202 -0.16452,0.726257 -0.561707,1.123459c-0.397217,0.397202 -0.164551,0.726242 -0.561737,1.123444c-0.397186,0.397186 -0.819427,0.389511 -1.123444,1.123444c-0.214966,0.518967 -0.16452,0.726242 -0.561737,1.123444c-0.397217,0.397202 -0.16452,0.726273 -0.561707,1.123459c-0.397186,0.397202 -0.16452,0.726242 -0.561737,1.123444c-0.397186,0.397202 -0.257721,0.951248 -0.561707,1.685165c-0.214966,0.518967 -0.16452,0.726257 -0.561737,1.123459c-0.397186,0.397202 -0.257721,0.951248 -0.561707,1.685165c-0.214966,0.518967 -0.257721,0.951233 -0.561737,1.685165c-0.214966,0.518967 -0.346771,1.166214 -0.561737,1.685181c-0.303986,0.733917 -0.726227,0.726242 -1.123444,1.123444c-0.397186,0.397202 0.214966,1.166199 0,1.685165c-0.303986,0.733917 -0.819427,0.951248 -1.123444,1.685181c-0.214966,0.518967 -0.16452,0.726257 -0.561707,1.123444c-0.397186,0.397202 -0.561737,1.123444 -0.561737,1.685165c0,0.561722 -0.346741,1.166214 -0.561707,1.685181c-0.304016,0.733932 -0.561737,1.123444 -0.561737,1.685165c0,0.561722 -0.561737,1.123444 -0.561737,1.685165c0,0.561737 0,1.123459 -0.561707,1.685181l0,0.561722l0,0.561722l-0.561737,0" id="svg_157" fill-opacity="0.5" stroke-opacity="null" stroke="null" fill="none"/>
  <path d="m493.249603,219.409286c-0.561737,0 -0.715973,0.268265 -1.685181,0.561722c-0.268799,0.08139 -1.135498,0.480347 -1.404327,0.561737c-0.969177,0.293457 -1.076294,0.668091 -2.246887,1.123444c-1.905609,0.741257 -2.92627,1.241089 -3.370331,1.685165c-0.888153,0.888168 -2.372711,0.680481 -3.089478,1.123444c-0.534241,0.330185 -1.530182,0.680481 -2.246918,1.123459c-0.53421,0.33017 -0.726257,0.726242 -1.123444,1.123444c-0.198608,0.198593 -0.406708,0.118744 -1.123444,0.561722c-0.53421,0.33017 -1.205688,0.92485 -1.404297,1.123444c-0.397186,0.397202 -0.445374,0.726257 -0.84259,1.123459c-0.198608,0.198593 -0.527649,-0.034073 -1.123444,0.561722c-0.397186,0.397202 -0.015808,0.628189 -0.280853,1.123444c-0.477844,0.892838 -0.445404,1.287964 -0.84259,1.685165c-0.198608,0.198608 -0.679382,0.352936 -1.123444,1.685181c-0.177612,0.532898 -0.136566,1.073929 -0.280884,1.685165c-0.129059,0.546692 -0.84259,1.123444 -0.84259,1.685165c0,0.561737 -0.280853,0.561737 -0.280853,1.123459c0,0.561722 -0.84259,0.561722 -0.84259,1.123444c0,0.561722 -0.280853,1.123444 -0.280853,1.685165c0,0.561722 -0.246796,0.527664 -0.84259,1.123459c-0.397186,0.397202 0,1.123444 0,1.685165c0,0.561722 -0.280853,0.561722 -0.280853,1.123444c0,0.561722 -0.84259,0.561722 -0.84259,1.123444c0,0.561737 -0.082245,0.924866 -0.280853,1.123459c-0.397186,0.397202 0,1.123444 0,1.685165c0,0.561722 -0.84259,0.561722 -0.84259,1.123444c0,0.561722 -0.280853,1.123459 -0.280853,1.685181c0,0.561722 0,1.123444 0,1.685165c0,0.561722 0.397186,1.287964 0,1.685165c-0.595795,0.595795 -0.84259,0.561737 -0.84259,1.123444c0,0.561737 0,1.123444 0,1.685181c0,0.561737 0,1.123444 0,1.685181c0,0.561707 0,1.123444 0,1.68515c0,0.561737 0,1.123474 0,1.685181c0,0.561737 0.16452,0.726257 0.561707,1.123444c0.397217,0.397217 0,1.123444 0,1.685181c0,0.561737 0.16452,0.726227 0.561737,1.123444c0.397217,0.397217 0,1.123444 0,1.685181c0,0.561707 0.561737,1.123444 0.561737,1.68515c0,0.561737 0.257721,0.951263 0.561707,1.685181c0.214966,0.518982 0.257721,0.951233 0.561737,1.685181c0.214966,0.518951 0.257721,0.951263 0.561707,1.685181c0.214935,0.518951 0.561737,0.561707 0.561737,1.123444c0,0.561707 -0.397186,1.287964 0,1.68515c0.397186,0.397186 0.346741,0.604492 0.561707,1.123444c0.304016,0.733948 0.164551,1.287994 0.561737,1.685181c0.397186,0.397186 0.561707,0.561737 0.561707,1.123444c0,0.561737 0.561737,0.561737 0.561737,1.123444c0,0.561737 0.16452,0.726257 0.561737,1.123474c0.397186,0.397186 0.257721,0.951233 0.561707,1.68515c0.214966,0.518982 -0.397217,1.287964 0,1.685181c0.397217,0.397217 0.819458,0.389526 1.123444,1.123444c0.214966,0.518982 0.561737,0.561737 0.561737,1.123444c0,0.561737 0.819427,0.951233 1.123444,1.685181c0.214966,0.518951 0.346771,1.166199 0.561737,1.685181c0.303986,0.733917 0.726227,0.726227 1.123444,1.123444c0.397186,0.397186 0.16452,1.287964 0.561707,1.68515c0.397217,0.397217 0.164551,0.726257 0.561737,1.123444c0.397186,0.397186 0.726227,0.16452 1.123444,0.561737c0.397217,0.397217 0.561707,1.123444 1.123444,1.685181c0.561737,0.561707 0.726257,0.726257 1.123444,1.123444c0.397186,0.397186 0.16452,0.726227 0.561737,1.123444c0.397186,0.397186 0.726227,0.16452 1.123444,0.561737c0.397186,0.397186 0.726227,0.16449 1.123444,0.561707c0.397217,0.397217 0.164551,0.726257 0.561737,1.123444c0.397186,0.397186 0.726227,0.16452 1.123444,0.561737c0.397186,0.397186 1.123444,0 1.123444,0.561707l0.561707,0l0,-0.561707" id="svg_159" stroke-opacity="0.5" stroke="#009e9e" fill="none"/>
  <path d="m498.305115,202.557571c0,0.561737 0.16452,0.726257 0.561707,1.123459c0.397217,0.397202 0.726257,0.726242 1.123444,1.123444c0.397217,0.397202 0.726257,0.164536 1.123444,0.561722c0.397186,0.397202 0.561737,1.123428 1.123474,1.685165c0.561707,0.561722 0.726227,0.726257 1.123444,1.123459c0.397186,0.397202 0.16452,0.726242 0.561707,1.123444c0.397217,0.397202 0.164551,0.726242 0.561737,1.123444c0.397186,0.397186 0.819427,0.389511 1.123444,1.123444c0.214966,0.518982 0.561737,1.123459 0.561737,1.685181c0,0.561722 0.346741,0.604477 0.561707,1.123444c0.304016,0.733932 0.726257,0.726257 1.123444,1.123444c0.397217,0.397202 0.16452,0.726257 0.561737,1.123459c0.397186,0.397202 -0.397186,1.287964 0,1.685165c0.397186,0.397186 0.561707,0.561722 0.561707,1.123444c0,0.561722 0.561737,0.561722 0.561737,1.123459c0,0.561722 0.561707,0.561722 0.561707,1.123444c0,0.561722 -0.397186,1.287964 0,1.685165c0.397217,0.397202 0.561737,0.561722 0.561737,1.123444c0,0.561737 -0.397186,1.287979 0,1.685181c0.397217,0.397202 0.561737,0.561722 0.561737,1.123444c0,0.561722 0,1.123444 0,1.685165c0,0.561737 -0.397186,1.287979 0,1.685181c0.397186,0.397186 0.561707,0.561722 0.561707,1.123444c0,0.561722 0,1.123444 0,1.685165c0,0.561737 0,1.123459 0,1.685181c0,0.561722 0,1.123444 0,1.685165c0,0.561722 -0.397217,1.287979 0,1.685181c0.397186,0.397202 0.561737,0.561722 0.561737,1.123444c0,0.561722 0,1.123444 0,1.685165c0,0.561722 0,1.123444 0,1.685181c0,0.561722 0,1.123444 0,1.685165c0,0.561722 0,1.123444 0,1.685165c0,0.561722 0,1.123459 0,1.685181c0,0.561722 0,1.123444 0,1.685165c0,0.561722 0,1.123444 0,1.685165c0,0.561737 0,1.685181 0,2.246902c0,0.561722 0.397217,1.287964 0,1.685165c-0.397217,0.397202 -0.561737,0.561722 -0.561737,1.123459c0,0.561707 0,1.123444 0,1.68515c0,0.561737 -0.280853,0.561737 -0.280853,1.123474c0,0.561707 0.265045,1.189911 0,1.68515c-0.477844,0.892853 -0.84259,1.123444 -0.84259,1.685181c0,0.561737 -0.082245,0.924835 -0.280853,1.123444c-0.397217,0.397217 0,1.123444 0,1.685181c0,0.561707 -0.246796,0.527649 -0.84259,1.123444c-0.397217,0.397217 0.397217,1.287964 0,1.685181c-0.198608,0.198608 -0.280853,0.561707 -0.280853,1.123444c0,0.561707 -0.246796,0.527649 -0.84259,1.123444c-0.397186,0.397186 0.397217,1.287964 0,1.685181c-0.198608,0.198608 -0.015839,0.628174 -0.280884,1.123444c-0.477814,0.892822 -0.924835,1.486542 -1.123444,1.68515c-0.397217,0.397217 0,1.123474 0,1.685181c0,0.561737 -0.364746,0.792358 -0.84256,1.685181c-0.265045,0.495239 -0.280884,1.123444 -0.280884,1.68515c0,0.561737 -0.84259,0.561737 -0.84259,1.123474c0,0.561707 -0.082245,0.924835 -0.280853,1.123444c-0.397186,0.397186 -0.84259,0.561707 -0.84259,1.123444c0,0.561707 -0.082245,0.924835 -0.280853,1.123444c-0.397217,0.397217 -0.246796,0.527649 -0.84259,1.123444c-0.397217,0.397217 -0.082245,0.924835 -0.280853,1.123444c-0.397217,0.397217 0.397217,1.287964 0,1.685181c-0.595795,0.595795 -0.445374,0.726227 -0.84259,1.123444c-0.198608,0.198608 0.116333,0.726257 -0.280853,1.123444c-0.595795,0.595795 -0.445404,0.726257 -0.84259,1.123444c-0.198608,0.198608 0.116333,0.726257 -0.280853,1.123444c-0.595795,0.595795 -0.445374,0.726257 -0.84259,1.123474c-0.198608,0.198608 -0.015839,0.628174 -0.280884,1.123444c-0.477814,0.892822 -1.123444,0.561707 -1.123444,1.123444c0,0.561707 -0.84256,0.561707 -0.84256,1.123444c0,0.561707 -0.015839,0.628174 -0.280884,1.123444c-0.477844,0.892853 -0.924835,0.924835 -1.123444,1.123444c-0.397217,0.397217 -0.246796,0.527649 -0.84259,1.123444c-0.397217,0.397217 0.116333,0.726257 -0.280853,1.123444c-0.595795,0.595795 -0.445374,0.726257 -0.84259,1.123474c-0.198608,0.198608 -0.527649,-0.034088 -1.123444,0.561707c-0.397217,0.397217 -0.280853,0.561737 -0.280853,1.123444c0,0.561737 -0.445404,0.726257 -0.84259,1.123444c-0.198608,0.198608 -0.527649,-0.034058 -1.123444,0.561737c-0.397217,0.397217 -0.280884,0.561737 -0.280884,1.123444c0,0.561737 -0.924835,0.363129 -1.123444,0.561737c-0.397186,0.397186 -0.445374,0.726227 -0.84259,1.123444c-0.198608,0.198608 -0.280853,0.561707 -1.123444,0.561707c-0.280853,0 -0.280853,0.561737 -1.123444,0.561737c-0.280853,0 -0.527649,-0.034088 -1.123444,0.561707c-0.397217,0.397217 -0.527649,-0.034058 -1.123444,0.561737c-0.397217,0.397217 -0.527649,-0.034058 -1.123444,0.561737c-0.397186,0.397186 -0.527649,-0.034088 -1.123444,0.561707c-0.397217,0.397217 0.116302,0.726257 -0.280884,1.123444c-0.595795,0.595795 -0.924835,0.363129 -1.123444,0.561737c-0.397186,0.397186 -0.445374,0.726227 -0.84259,1.123444c-0.198608,0.198608 -1.123444,0 -1.123444,0.561737c0,0.561707 0.116364,0.726227 -0.280853,1.123444c-0.595795,0.595795 -0.924835,0.363098 -1.123444,0.561707c-0.397217,0.397217 -0.445404,0.726257 -0.84259,1.123444c-0.198608,0.198608 0.116333,0.726257 -0.280853,1.123444c-0.595795,0.595795 -0.924835,0.363129 -1.123444,0.561737c-0.397217,0.397217 -0.84259,0.561737 -0.84259,1.123444c0,0.561737 0.116333,0.726257 -0.280853,1.123444c-0.595795,0.595795 -0.445404,0.726257 -0.84259,1.123444c-0.198608,0.198608 0.116333,0.726257 -0.280884,1.123474c-0.595795,0.595795 -0.713501,0.576721 -0.84256,1.123444c-0.144318,0.611206 -0.280884,1.123444 -0.280884,1.68515c0,0.561737 0,1.123444 0,1.685181c0,0.561737 0,1.123444 0,1.685181c0,0.561707 0,1.123444 0,1.68515c0,0.561737 0,1.123474 0,1.685181c0,0.561737 0,1.123444 0,1.685181l0.280884,0l0,0.561707l0,0.561737" id="svg_160" stroke-opacity="0.5" stroke="#009e9e" fill="none"/>
  <path d="m495.49649,332.315765c0.561707,0.561707 0.561707,1.123444 0.561707,1.685181c0,0.561707 -0.082245,0.198608 -0.280853,0c-0.397217,-0.397217 -0.246796,-0.527679 -0.84259,-1.123474c-0.397186,-0.397186 0.116333,-1.287964 -0.280853,-1.68515c-0.595795,-0.595795 -0.707825,-0.652649 -1.123444,-1.123444c-0.670197,-0.759186 -0.979156,-1.073975 -1.123444,-1.685181c-0.129059,-0.546722 -0.246796,-0.527649 -0.84259,-1.123444c-0.397217,-0.397217 -0.280853,-0.561737 -0.280853,-1.123444c0,-0.561737 -0.246796,-0.527649 -0.84259,-1.123444c-0.397217,-0.397217 -0.082275,-0.924866 -0.280884,-1.123474c-0.397186,-0.397186 0.397186,-1.287964 0,-1.68515c-0.595795,-0.595795 -0.84256,-0.561737 -0.84256,-1.123444c0,-0.561737 0.397186,-1.287994 0,-1.685181c-0.198608,-0.198608 -0.280884,-0.561737 -0.280884,-1.123444c0,-0.561737 -0.246796,-0.527649 -0.84259,-1.123444c-0.397217,-0.397217 0,-1.123444 0,-1.685181c0,-0.561737 -0.280853,-1.123444 -0.280853,-1.685181c0,-0.561707 0,-1.123444 0,-1.68515c0,-0.561737 -0.84259,-0.561737 -0.84259,-1.123474c0,-0.561707 0,-1.123444 0,-1.68515c0,-0.561737 0,-1.123444 0,-1.685181l0,-0.561707l0,-0.561737" id="svg_161" stroke-opacity="0.5" stroke="#009e9e" fill="none"/>
  <path d="m492.126129,221.094467c0,-0.561722 0.561737,-0.561722 1.123474,-0.561722c0.561707,0 0.561707,-0.561737 1.123444,-0.561737c0.561707,0 1.287964,0.397186 1.68515,0c0.397186,-0.397202 0.561737,-0.561722 1.123474,-0.561722c0.561707,0 0.726257,-0.16452 1.123444,-0.561722c0.397186,-0.397186 1.123444,0 1.68515,0c0.561737,0 1.166199,0.214966 1.685181,0c0.733948,-0.304001 1.123444,-0.561722 1.685181,-0.561722c0.561707,0 1.123444,0 1.68515,0l0.561737,0l0.561737,0l0.561707,0" id="svg_162" stroke-opacity="0.5" stroke="#009e9e" fill="none"/>
  <path d="m500.552002,212.66861c0,0 -0.082245,-0.198593 -0.280853,0c-0.397186,0.397202 -0.924866,0.363113 -1.123474,0.561722c-0.397186,0.397202 -0.589203,0.793274 -1.123444,1.123444c-0.716736,0.442947 -1.123444,0.561722 -1.966034,0.561722c-0.280853,0 -0.406708,0.118744 -1.123444,0.561722c-0.534241,0.330185 -1.205688,0.363144 -1.404297,0.561737c-0.397186,0.397202 -0.924835,0.363129 -1.123444,0.561722c-0.397186,0.397202 -0.854645,0.480331 -1.123444,0.561722c-0.969208,0.293457 -1.370239,-0.034058 -1.966034,0.561722c-0.397186,0.397202 -0.527679,-0.034073 -1.123474,0.561722c-0.397186,0.397202 -0.280853,0.561722 -1.123444,0.561722c-0.280853,0 -0.280853,0.561722 -1.123444,0.561722c-0.280853,0 -1.205688,0.363129 -1.404297,0.561722c-0.397217,0.397202 -0.924835,0.363144 -1.123444,0.561737c-0.397186,0.397202 -0.924835,0.363129 -1.123444,0.561722c-0.397186,0.397202 -0.924866,0.363113 -1.123474,0.561722c-0.397186,0.397202 -0.924835,0.363113 -1.123444,0.561722c-0.397186,0.397202 -0.924835,0.363129 -1.123444,0.561722c-0.397186,0.397202 -0.854645,0.480331 -1.123444,0.561722c-0.969208,0.293457 -0.996826,0.829987 -1.966034,1.123444c-0.268799,0.08139 -1.205688,0.363144 -1.404297,0.561737c-0.397186,0.397202 -0.589233,0.793274 -1.123444,1.123444c-0.716736,0.442978 -0.854645,0.480331 -1.123474,0.561722c-0.969177,0.293457 -1.370239,-0.034073 -1.966034,0.561722c-0.397186,0.397202 0.116333,0.726242 -0.280853,1.123444c-0.595795,0.595795 -0.924835,0.363129 -1.123444,0.561722c-0.397217,0.397202 -0.445404,0.726257 -0.84259,1.123459c-0.198608,0.198593 -0.527649,-0.034073 -1.123444,0.561722c-0.397186,0.397202 0.116333,0.726242 -0.280853,1.123444c-0.595795,0.595795 -0.979156,0.512222 -1.123444,1.123444c-0.129059,0.546692 -0.445404,1.287979 -0.84259,1.685181c-0.198608,0.198593 0.116333,0.726242 -0.280853,1.123444c-0.595795,0.595795 -0.713531,0.576752 -0.84259,1.123444c-0.144318,0.611237 -0.64563,0.792343 -1.123444,1.685181c-0.53009,0.990524 -0.136566,1.635651 -0.280884,2.246887c-0.129059,0.546692 0.265045,1.189911 0,1.685165c-0.477844,0.892853 -0.84259,1.123459 -0.84259,1.685181c0,0.561722 -0.136566,1.073944 -0.280853,1.685165c-0.129059,0.546692 -0.364746,0.792328 -0.84259,1.685181c-0.265045,0.495255 0,1.123444 0,1.685165c0,0.561722 0.397186,1.287964 0,1.685165c-0.198608,0.198593 -0.280853,0.561722 -0.280853,1.123459c0,0.561722 0,1.123444 0,1.685165c0,0.561722 0,1.123444 0,1.685165c0,0.561722 0,1.123459 0,1.685165c0,0.561737 0,1.123444 0,1.685181c0,0.561737 0,1.123444 0,1.685181c0,0.561707 0,1.123444 0,1.68515c0,0.561737 0,1.123474 0,1.685181c0,0.561737 0,1.123444 0,1.685181c0,0.561707 0,1.123444 0,1.685181c0,0.561707 0,1.123444 0,1.68515c0,0.561737 0.280853,1.123444 0.280853,1.685181c0,0.561707 -0.214966,1.166199 0,1.685181c0.304016,0.733917 0.561737,1.123444 0.561737,1.68515c0,0.561737 0.561707,0.561737 0.561707,1.123444c0,0.561737 0.257721,0.951263 0.561737,1.685181c0.214966,0.518982 -0.214966,1.166199 0,1.685181c0.304016,0.733917 0.561737,1.123444 0.561737,1.68515c0,0.561737 0.561707,0.561737 0.561707,1.123474c0,0.561707 0.561737,0.561707 0.561737,1.123444c0,0.561707 0.561707,0.561707 0.561707,1.123444c0,0.561707 0.346771,0.604462 0.561737,1.123444c0.303986,0.733917 0.726227,0.726227 1.123444,1.123444c0.397217,0.397217 0.515442,0.779022 1.123444,2.246887c0.214966,0.518982 0.16452,1.287964 0.561737,1.685181c0.397186,0.397186 0.819427,0.389526 1.123444,1.123444c0.214966,0.518982 0.346741,0.604492 0.561707,1.123444c0.304016,0.733948 0.726227,1.287964 1.123444,1.685181c0.397217,0.397217 0.164551,0.726257 0.561737,1.123444c0.397217,0.397217 0.726257,0.164551 1.123444,0.561737c0.397186,0.397186 0.16452,0.726227 0.561737,1.123444c0.397186,0.397186 0.16452,1.287964 0.561707,1.68515c0.397217,0.397217 0.726257,0.164551 1.123444,0.561737c0.397217,0.397217 0.561737,0.561737 0.561737,1.123444c0,0.561737 0.346802,0.604492 0.561737,1.123444c0.303986,0.733917 0.726227,0.726227 1.123444,1.123444c0.397217,0.397217 0.16449,0.726257 0.561707,1.123474c0.397217,0.397217 0.726257,0.16452 1.123444,0.561707c0.397217,0.397217 0.164551,0.726257 0.561737,1.123444c0.397186,0.397186 0.726227,0.16452 1.123444,0.561737c0.397186,0.397186 0.16452,0.726227 0.561737,1.123444c0.397186,0.397186 0.726227,0.16452 1.123444,0.561737c0.397186,0.397186 0.16449,0.726227 0.561707,1.123444c0.397217,0.397217 0.561737,0.561707 1.123444,0.561707c0.561737,0 1.123474,0.561737 1.685181,0.561737l0,0.561707" id="svg_163" stroke-opacity="0.5" stroke="#009e9e" fill="none"/>
  <path stroke="#009e9e" d="m498.305115,207.051361c-0.280884,0.561737 -1.205719,0.92485 -1.404327,1.123459c-0.397186,0.397202 -0.84259,1.123444 -1.123444,1.123444c-0.84259,0 -0.924835,0.363129 -1.123444,0.561722c-0.397186,0.397202 -0.589233,0.793274 -1.123444,1.123444c-0.716736,0.442978 -0.924835,0.363129 -1.123444,0.561722c-0.397217,0.397202 -0.924835,0.363144 -1.123444,0.561737c-0.397186,0.397202 -0.84259,0.561722 -1.123474,0.561722c-0.84256,0 -0.854614,0.480331 -1.123444,0.561722c-0.969208,0.293457 -1.370239,-0.034073 -1.966034,0.561722c-0.397186,0.397202 -0.406708,0.118744 -1.123444,0.561722c-0.53421,0.33017 -0.870087,0.793274 -1.404297,1.123444c-0.716736,0.442978 -0.726227,0.164536 -1.123444,0.561737c-0.595795,0.595795 -1.249268,-0.442963 -1.966034,0c-0.534241,0.33017 -0.870087,0.793274 -1.404327,1.123444c-0.716766,0.442963 -0.726257,0.16452 -1.123444,0.561722c-0.595795,0.595795 -1.249298,-0.442978 -1.966034,0c-0.53421,0.33017 -0.726257,0.726242 -1.123444,1.123444c-0.198608,0.198593 -0.726257,0.16452 -1.123444,0.561722c-0.198608,0.198593 -1.205688,-0.198593 -1.404297,0c-0.397186,0.397202 -0.589233,0.793274 -1.123474,1.123459c-0.716736,0.442947 -0.84256,0.561722 -1.123444,0.561722c-0.84259,0 -0.726257,0.16452 -1.123444,0.561722c-0.595795,0.595795 -1.249298,0.118744 -1.966034,0.561722c-0.53421,0.33017 -0.726257,0.726242 -1.123444,1.123444c-0.198608,0.198593 -0.726257,0.16452 -1.123444,0.561722c-0.198608,0.198593 -0.870056,0.793274 -1.404297,1.123459c-0.716736,0.442978 -0.924866,0.363113 -1.123474,0.561722c-0.397186,0.397202 -0.979126,0.512207 -1.123444,1.123444c-0.129059,0.546692 -0.445404,0.726242 -0.84259,1.123444c-0.198608,0.198593 -0.527649,-0.034073 -1.123444,0.561722c-0.397186,0.397202 0.116364,0.726257 -0.280853,1.123459c-0.595795,0.595795 -0.445404,0.726242 -0.84259,1.123444c-0.198608,0.198593 -0.527649,-0.034073 -1.123444,0.561722c-0.397186,0.397202 0.116333,1.287964 -0.280853,1.685165c-0.595795,0.595795 -0.445374,0.726257 -0.84259,1.123459c-0.198608,0.198593 0.116333,0.726242 -0.280853,1.123444c-0.595795,0.595795 -0.445404,0.726242 -0.84259,1.123444c-0.198608,0.198593 0.116333,0.726242 -0.280853,1.123444c-0.595795,0.595795 -0.84259,0.561722 -0.84259,1.123459c0,0.561722 -0.280884,0.561722 -0.280884,1.123444c0,0.561722 0.397186,1.287964 0,1.685165c-0.595795,0.595779 -0.84256,0.561722 -0.84256,1.123444c0,0.561737 0,1.123459 0,1.685181c0,0.561722 -0.280884,0.561722 -0.280884,1.123444c0,0.561722 0.397186,1.287964 0,1.685165c-0.595795,0.595795 -0.84259,0.561737 -0.84259,1.123459c0,0.561722 -0.082245,0.92485 -0.280853,1.123444c-0.397186,0.397202 0,1.123444 0,1.685165c0,0.561722 0,1.123459 0,1.685181c0,0.561722 0,1.123444 0,1.685165c0,0.561722 0,1.123444 0,1.685165c0,0.561737 0,1.123444 0,1.685181c0,0.561707 0,1.123444 0,1.685181c0,0.561707 0,1.123444 0,1.68515c0,0.561737 0,1.123444 0,1.685181c0,0.561737 0,1.123444 0,1.685181c0,0.561707 0,1.123444 0,1.68515c0,0.561737 0,1.123474 0,1.685181c0,0.561737 0,1.123444 0,1.685181c0,1.123444 0.082245,1.486542 0.280853,1.68515c0.397217,0.397217 0,1.123474 0,1.685181c0,0.561737 0.561737,1.123444 0.561737,1.685181c0,0.561707 0.16452,0.726227 0.561737,1.123444c0.397217,0.397217 -0.397217,1.287964 0,1.685181c0.397186,0.397186 0.561707,0.561707 0.561707,1.123444c0,0.561707 0.561737,0.561707 0.561737,1.123444c0,0.561707 -0.214966,1.166199 0,1.685181c0.303986,0.733917 0.16452,1.287964 0.561707,1.68515c0.397217,0.397217 0.561737,0.561737 0.561737,1.123444c0,0.561737 0.561707,1.123474 0.561707,1.685181c0,0.561737 0.561737,1.123444 0.561737,1.685181c0,0.561707 0.561737,0.561707 0.561737,1.123444c0,0.561707 0.561707,0.561707 0.561707,1.123444c0,0.561737 0.16452,0.726227 0.561737,1.123444c0.397217,0.397217 0.16452,0.726257 0.561707,1.123444c0.397217,0.397217 0.16452,1.287964 0.561737,1.685181c0.397186,0.397186 0.16452,0.726257 0.561707,1.123444c0.397217,0.397217 0.819458,0.389526 1.123444,1.123444c0.214966,0.518982 0.561737,0.561737 0.561737,1.123444c0,0.561737 0.164551,0.726257 0.561737,1.123444c0.397186,0.397186 0.726227,0.16452 1.123444,0.561737c0.397217,0.397217 0.16449,1.287964 0.561707,1.685181c0.397217,0.397217 0.726257,0.16452 1.123444,0.561707c0.397217,0.397217 0.164551,0.726257 0.561737,1.123444c0.397217,0.397217 1.287964,0.16452 1.685181,0.561737c0.397217,0.397217 0.16452,0.726257 0.561707,1.123444c0.397217,0.397217 1.123444,0.561707 1.685181,1.123444c0.561737,0.561737 0.726257,0.726257 1.123444,1.123444c0.397217,0.397217 0.726257,0.164551 1.123444,0.561737c0.397217,0.397217 0.726257,0.164551 1.123444,0.561737c0.397186,0.397186 0.16452,0.726227 0.561737,1.123444c0.397186,0.397186 0.726257,0.16452 1.123444,0.561707c0.397217,0.397217 0.726257,0.164551 1.123444,0.561737c0.397186,0.397186 0.16452,0.726227 0.561737,1.123444c0.397186,0.397186 0.726257,0.16452 1.123444,0.561707c0.397186,0.397186 0.726227,0.16452 1.123444,0.561737c0.397217,0.397217 0.561707,0.561737 1.123444,0.561737l0,0.561707l0.561737,0" id="svg_164" stroke-opacity="0.5" fill="none"/>
  <path d="m496.058197,205.366196c0,0.561722 -0.527649,-0.034073 -1.123444,0.561722c-0.397186,0.397202 0.116333,0.726242 -0.280853,1.123444c-0.595795,0.595795 -0.726227,0.164536 -1.123444,0.561737c-0.595795,0.595795 -1.370239,-0.595795 -1.966034,0c-0.397186,0.397202 -0.280853,0.561722 -1.123444,0.561722c-0.280884,0 -0.280884,0.561722 -1.123444,0.561722c-0.280884,0 -0.280884,0.561722 -1.123474,0.561722c-0.280853,0 -1.205688,-0.198593 -1.404297,0c-0.397186,0.397202 -0.854645,0.480331 -1.123444,0.561722c-0.969208,0.293457 -1.123444,1.123444 -1.966034,1.123444c-0.280853,0 -0.726257,0.16452 -1.123444,0.561722c-0.198608,0.198593 -1.135498,-0.081406 -1.404327,0c-0.969208,0.293457 -1.123444,0.561737 -1.966034,0.561737c-0.280853,0 -1.123444,0.561722 -1.404297,0.561722c-0.84259,0 -0.726257,0.16452 -1.123444,0.561722c-0.595795,0.595795 -0.996826,0.268265 -1.966034,0.561722c-0.268799,0.08139 -0.726257,0.16452 -1.123444,0.561722c-0.198608,0.198593 -0.870087,0.231552 -1.404327,0.561722c-0.716736,0.442947 -0.84256,0.561722 -1.123444,0.561722c-0.84259,0 -1.249298,0.118759 -1.966034,0.561737c-0.53421,0.33017 -0.726257,0.726242 -1.123444,1.123444c-0.198608,0.198593 -0.280853,0.561722 -1.123444,0.561722c-0.280853,0 -0.406708,0.118744 -1.123444,0.561722c-0.53421,0.33017 -0.726257,0.726242 -1.123444,1.123444c-0.198608,0.198593 -0.870087,0.793274 -1.404327,1.123459c-0.716736,0.442947 -0.854614,0.480331 -1.123444,0.561722c-0.969208,0.293457 -0.996826,1.391708 -1.966034,1.685165c-0.268799,0.08139 -0.453247,0.364273 -1.123444,1.123444c-0.415619,0.47081 -1.205688,0.924866 -1.404297,1.123459c-0.397186,0.397202 -0.445404,0.726242 -0.84259,1.123444c-0.198608,0.198593 -0.154236,0.829987 -1.123444,1.123444c-0.268799,0.08139 -0.154236,0.829987 -1.123444,1.123444c-0.268829,0.08139 -0.154236,0.830002 -1.123444,1.123459c-0.268829,0.081406 -0.527679,-0.034073 -1.123474,0.561722c-0.397186,0.397202 0.116333,0.726242 -0.280853,1.123444c-0.595795,0.595795 -0.924835,0.363129 -1.123444,0.561722c-0.397186,0.397202 -0.445404,0.726242 -0.84259,1.123444c-0.198608,0.198593 -0.645599,0.230606 -1.123444,1.123459c-0.265045,0.495255 -0.015808,0.628189 -0.280853,1.123444c-0.477844,0.892838 -0.979156,1.073944 -1.123444,1.685165c-0.129059,0.546692 -0.84259,0.561722 -0.84259,1.123444c0,0.561737 -0.280853,1.123459 -0.280853,1.685181c0,0.561722 -0.84259,0.561722 -0.84259,1.123444c0,0.561722 -0.082275,0.924835 -0.280884,1.123444c-0.794403,0.794403 -0.84256,1.685181 -0.84256,2.246902c0,0.561722 -0.280884,0.561722 -0.280884,1.123444c0,0.561722 0,1.123444 0,1.685165c0,0.561737 -0.84259,0.561737 -0.84259,1.123459c0,0.561722 0,1.123444 0,1.685165c0,0.561722 -0.082245,0.92485 -0.280853,1.123444c-0.397186,0.397202 0,1.123459 0,1.685181c0,0.561722 0,1.123444 0,1.685165c0,0.561722 0,1.123444 0,1.685165c0,0.561737 0,1.123444 0,1.685181c0,0.561707 0,1.123444 0,1.685181c0,0.561707 0,1.123444 0,1.68515c0,0.561737 0.280853,1.123444 0.280853,1.685181c0,0.561737 -0.214966,1.727936 0,2.246887c0.304016,0.733948 0.561737,1.123444 0.561737,1.685181c0,0.561737 0.561737,0.561737 0.561737,1.123444c0,0.561737 0,1.123444 0,1.685181c0,0.561707 0.257721,0.951233 0.561707,1.68515c0.214966,0.518982 0,1.685181 0,2.246918c0,0.561707 0,1.123444 0,1.68515c0,0.561737 0.561737,0.561737 0.561737,1.123474c0,0.561707 0,1.123444 0,1.68515c0,0.561737 -0.214966,1.166199 0,1.685181c0.303986,0.733917 0.561707,1.123444 0.561707,1.685181c0,0.561707 -0.397186,1.287964 0,1.68515c0.397217,0.397217 0.561737,0.561737 0.561737,1.123444c0,0.561737 0.561707,0.561737 0.561707,1.123474c0,0.561707 -0.397186,1.287964 0,1.68515c0.397217,0.397217 0.561737,0.561737 0.561737,1.123444c0,0.561737 0.16452,0.726257 0.561707,1.123444c0.397217,0.397217 -0.397186,1.287994 0,1.685181c0.397217,0.397217 0.346771,0.604492 0.561737,1.123444c0.304016,0.733948 0.16452,1.287964 0.561737,1.685181c0.397186,0.397186 0.16452,0.726257 0.561707,1.123444c0.397217,0.397217 0.561737,0.561737 0.561737,1.123444c0,0.561737 0.561707,0.561737 0.561707,1.123444c0,0.561737 0.16452,1.287964 0.561737,1.685181c0.397186,0.397186 0.726227,0.16452 1.123444,0.561737c0.397186,0.397186 0.726257,0.726257 1.123444,1.123444c0.397186,0.397186 0.164551,1.287964 0.561737,1.68515c0.397186,0.397186 0.726227,0.16452 1.123444,0.561737c0.397217,0.397217 0.389526,0.819458 1.123444,1.123444c0.518982,0.214966 0.726257,0.164551 1.123444,0.561737c0.397186,0.397186 0.726257,0.16452 1.123444,0.561707c0.397217,0.397217 0.561737,0.561737 1.123444,1.123444c0.561737,0.561737 0.951233,0.819458 1.685181,1.123474c0.518982,0.214966 0.726257,0.16452 1.123444,0.561707c0.397217,0.397217 0.951233,0.257721 1.685181,0.561737c0.518951,0.214966 0.726257,0.16452 1.123444,0.561707c0.397217,0.397217 1.287964,-0.397217 1.685181,0c0.397217,0.397217 0.561707,0.561737 1.123444,0.561737c0.561707,0 1.123444,0.561707 1.68515,0.561707c0.561737,0 0.561737,0.561737 1.123474,0.561737c0.561707,0 0.561707,0.561707 1.123444,0.561707c0.561707,0 0.561707,0.561737 1.123444,0.561737c0.561707,0 0.951233,0.257721 1.685181,0.561737c0.518951,0.214966 0.726257,0.16452 1.123444,0.561707c0.397186,0.397186 0.726227,0.16452 1.123444,0.561737c0.397186,0.397186 1.166199,-0.214935 1.68515,0c0.733917,0.303986 1.287994,0.16452 1.685181,0.561707c0.397217,0.397217 0.561737,0.561737 0.280853,0.561737l0,-0.561737l-1.123444,-1.123444" id="svg_165" fill-opacity="null" stroke-opacity="0.5" stroke-width="null" stroke="#009e9e" fill="none"/>
  <path d="m496.900787,203.68103c-0.84259,0 -1.370239,-0.595795 -1.966034,0c-0.397186,0.397202 -0.280853,0.561722 -1.123444,0.561722c-0.280853,0 -0.280853,0.561722 -1.123444,0.561722c-0.280853,0 -1.123444,0.561722 -1.404297,0.561722c-0.84259,0 -0.84259,0.561722 -1.123474,0.561722c-0.84256,0 -1.123444,0 -1.966034,0c-0.280853,0 -0.726257,0.16452 -1.123444,0.561722c-0.198608,0.198593 -1.123444,0 -1.404297,0l0,0.561722l-0.84259,0l-0.280853,0" id="svg_166" fill-opacity="null" stroke-opacity="null" stroke-width="null" stroke="null" fill="none"/>
  <path d="m483.419434,314.340607c0,0.561707 -0.713531,1.138458 -0.84259,1.685181c-0.144287,0.611206 -0.280853,1.123444 -0.280853,1.68515c0,0.561737 -0.364746,0.792328 -0.84259,1.685181c-0.265045,0.495239 0,1.123444 0,1.685181c0,0.561707 0,1.123444 0,1.68515c0,0.561737 0,1.123444 0,1.685181c0,0.561737 0.16452,0.726257 0.561707,1.123444c0.397217,0.397217 -0.397217,1.287964 0,1.685181c0.397217,0.397217 0.16452,0.726227 0.561737,1.123444c0.397186,0.397186 0.561707,0.561707 0.561707,1.123444l0.561737,0" id="svg_167" fill-opacity="null" stroke-opacity="0.5" stroke-width="NaN" stroke="#009e9e" fill="none"/>
 </g>
</svg>