<svg width="503.99001464843747px" height="186.09002685546875px" xmlns="http://www.w3.org/2000/svg" viewBox="-1.995007324218733 -18.045013427734375 503.99001464843747 186.09002685546875" style="background: rgba(0, 0, 0, 0);" preserveAspectRatio="xMidYMid"><defs><filter id="editing-hole" x="-100%" y="-100%" width="300%" height="300%"><feFlood flood-color="#000000" result="black"></feFlood><feMorphology operator="dilate" radius="2" in="SourceGraphic" result="erode"></feMorphology><feGaussianBlur in="erode" stdDeviation="4" result="blur"></feGaussianBlur><feOffset in="blur" dx="2" dy="2" result="offset"></feOffset><feComposite operator="atop" in="offset" in2="black" result="merge"></feComposite><feComposite operator="in" in="merge" in2="SourceGraphic" result="inner-shadow"></feComposite></filter></defs><g filter="url(#editing-hole)"><g transform="translate(71.58342599868774, 108.04000091552734)"><path d="M3.95 0L3.48-9.59L10.34-11.47L10.34-47.28L10.34-47.28Q10.34-49.73 9.96-50.52L9.96-50.52L9.96-50.52Q9.59-51.32 7.99-51.98L7.99-51.98L3.10-54.71L3.67-62.42L3.67-62.42Q17.77-64.48 30.83-64.48L30.83-64.48L30.83-64.48Q40.98-64.48 47.19-62.46L47.19-62.46L47.19-62.46Q53.39-60.44 56.26-56.16L56.26-56.16L56.26-56.16Q59.13-51.89 59.13-44.84L59.13-44.84L59.13-44.84Q59.13-39.01 56.12-34.64L56.12-34.64L56.12-34.64Q53.11-30.27 47.56-27.92L47.56-27.92L62.60-3.67L62.51 0L45.40 0L31.49-25.10L27.35-25.19L27.35-14.66L27.35-14.66Q27.35-12.41 27.68-11.80L27.68-11.80L27.68-11.80Q28.01-11.19 29.33-10.43L29.33-10.43L33.37-8.08L32.99 0L3.95 0ZM33.37-35.72L33.37-35.72Q38.35-35.72 40.70-36.66L40.70-36.66L40.70-36.66Q41.64-40.04 41.64-44.74L41.64-44.74L41.64-44.74Q41.64-49.44 39.62-51.42L39.62-51.42L39.62-51.42Q37.60-53.39 32.90-53.39L32.90-53.39L32.90-53.39Q30.27-53.39 27.54-53.11L27.54-53.11L27.54-36.28L27.54-36.28Q29.99-35.72 33.37-35.72L33.37-35.72ZM87.70 1.13L87.70 1.13Q76.70 1.13 70.73-5.55L70.73-5.55L70.73-5.55Q64.77-12.22 64.77-23.97L64.77-23.97L64.77-23.97Q64.77-32.15 67.68-38.02L67.68-38.02L67.68-38.02Q70.59-43.90 75.95-47L75.95-47L75.95-47Q81.31-50.10 88.45-50.10L88.45-50.10L88.45-50.10Q99.08-50.10 104.76-43.33L104.76-43.33L104.76-43.33Q110.45-36.57 110.17-24.06L110.17-24.06L81.59-18.80L81.59-18.80Q82.91-14.85 85.31-13.02L85.31-13.02L85.31-13.02Q87.70-11.19 91.65-11.19L91.65-11.19L91.65-11.19Q94.38-11.19 98.14-11.98L98.14-11.98L98.14-11.98Q101.90-12.78 105.75-14.19L105.75-14.19L107.91-4.89L107.91-4.89Q104.43-2.26 98.89-0.56L98.89-0.56L98.89-0.56Q93.34 1.13 87.70 1.13L87.70 1.13ZM80.65-28.11L94.75-31.96L94.75-31.96Q94.56-35.53 92.73-37.18L92.73-37.18L92.73-37.18Q90.90-38.82 87.61-38.82L87.61-38.82L87.61-38.82Q84.88-38.82 82.44-38.07L82.44-38.07L82.44-38.07Q80.46-33.46 80.65-28.11L80.65-28.11ZM132.92 1.60L132.92 1.60Q125.49 1.60 115.71-1.03L115.71-1.03L115.71-1.03Q116.28-10.25 116.94-14.66L116.94-14.66L122.29-15.70L128.22-9.40L128.22-9.40Q131.32-8.46 135.17-8.46L135.17-8.46L135.17-8.46Q137.33-8.46 138.56-8.74L138.56-8.74L138.56-8.74Q138.84-9.49 138.84-10.81L138.84-10.81L138.84-10.81Q138.84-11.94 138.32-12.69L138.32-12.69L138.32-12.69Q137.80-13.44 136.02-14.48L136.02-14.48L136.02-14.48Q134.23-15.51 129.81-17.67L129.81-17.67L129.81-17.67Q124.27-20.59 121.35-22.89L121.35-22.89L121.35-22.89Q118.44-25.19 117.17-27.64L117.17-27.64L117.17-27.64Q115.90-30.08 115.90-33.46L115.90-33.46L115.90-33.46Q115.90-40.98 121.49-45.40L121.49-45.40L121.49-45.40Q127.09-49.82 136.68-49.82L136.68-49.82L136.68-49.82Q140.62-49.82 145.00-48.93L145.00-48.93L145.00-48.93Q149.37-48.03 152.84-46.53L152.84-46.53L152.84-46.53Q152.84-40.42 152.00-32.90L152.00-32.90L147.11-32.15L140.81-38.92L140.81-38.92Q138.37-39.67 133.67-39.67L133.67-39.67L133.67-39.67Q132.92-39.67 130.66-39.48L130.66-39.48L130.66-39.48Q130.38-38.92 130.38-37.69L130.38-37.69L130.38-37.69Q130.38-36.38 131.13-35.39L131.13-35.39L131.13-35.39Q131.88-34.40 133.81-33.23L133.81-33.23L133.81-33.23Q135.74-32.05 139.97-29.89L139.97-29.89L139.97-29.89Q146.17-26.88 149.32-24.68L149.32-24.68L149.32-24.68Q152.47-22.47 153.74-20.21L153.74-20.21L153.74-20.21Q155.01-17.95 155.01-14.76L155.01-14.76L155.01-14.76Q155.01-7.05 149.13-2.73L149.13-2.73L149.13-2.73Q143.26 1.60 132.92 1.60L132.92 1.60ZM178.13 1.32L178.13 1.32Q170.61 1.32 166.94-3.15L166.94-3.15L166.94-3.15Q163.28-7.61 163.28-16.64L163.28-16.64L163.28-33.46L163.28-33.46Q163.28-35.53 162.95-36.14L162.95-36.14L162.95-36.14Q162.62-36.75 161.30-37.51L161.30-37.51L157.07-39.76L157.54-46.81L157.54-46.81Q158.86-47 159.42-47.19L159.42-47.19L159.42-47.19Q160.46-47.38 166.80-48.50L166.80-48.50L166.80-48.50Q173.15-49.63 177.38-49.82L177.38-49.82L177.38-49.82Q178.41-47.47 178.98-44.37L178.98-44.37L178.98-20.68L178.98-20.68Q178.98-16.54 179.21-14.85L179.21-14.85L179.21-14.85Q179.45-13.16 180.72-12.27L180.72-12.27L180.72-12.27Q181.98-11.37 185.09-11.37L185.09-11.37L185.09-11.37Q189.60-11.37 193.83-12.97L193.83-12.97L193.83-33.46L193.83-33.46Q193.83-35.53 193.55-36.14L193.55-36.14L193.55-36.14Q193.26-36.75 192.04-37.51L192.04-37.51L187.91-39.76L188.28-46.81L188.28-46.81Q195.90-48.22 200.17-48.97L200.17-48.97L200.17-48.97Q204.45-49.73 208.02-49.82L208.02-49.82L208.02-49.82Q209.06-47.47 209.62-44.37L209.62-44.37L209.62-13.54L209.62-13.54Q209.62-11.84 209.90-11.19L209.90-11.19L209.90-11.19Q210.18-10.53 211.22-9.87L211.22-9.87L214.98-7.71L214.70-1.88L214.70-1.88Q210.65-0.85 205.39-0.05L205.39-0.05L205.39-0.05Q200.13 0.75 195.61 0.94L195.61 0.94L195.61 0.94Q195.24-0.19 194.77-1.88L194.77-1.88L194.77-1.88Q194.67-2.63 194.30-3.67L194.30-3.67L194.02-3.67L194.02-3.67Q190.16-1.41 185.88-0.05L185.88-0.05L185.88-0.05Q181.61 1.32 178.13 1.32L178.13 1.32ZM219.21 0L218.74-8.93L224.57-10.62L224.57-33.46L224.57-33.46Q224.57-35.53 224.28-36.14L224.28-36.14L224.28-36.14Q224.00-36.75 222.78-37.51L222.78-37.51L218.64-39.76L218.93-46.81L221.46-47.28L221.46-47.28Q233.03-49.63 238.57-49.82L238.57-49.82L238.57-49.82Q239.32-47.85 239.79-45.78L239.79-45.78L239.79-45.78Q244.87-48.13 248.49-49.12L248.49-49.12L248.49-49.12Q252.11-50.10 255.12-50.10L255.12-50.10L255.12-50.10Q258.78-50.10 261.98-48.74L261.98-48.74L261.98-48.74Q265.17-47.38 266.77-45.12L266.77-45.12L266.77-45.12Q272.13-47.75 276.41-48.93L276.41-48.93L276.41-48.93Q280.68-50.10 284.54-50.10L284.54-50.10L284.54-50.10Q292.25-50.10 295.91-45.68L295.91-45.68L295.91-45.68Q299.58-41.27 299.58-32.24L299.58-32.24L299.58-13.72L299.58-13.72Q299.58-11.75 299.86-11.09L299.86-11.09L299.86-11.09Q300.14-10.43 301.46-9.68L301.46-9.68L305.97-7.05L305.59 0L280.03 0L279.56-8.93L284.07-10.25L284.07-28.01L284.07-28.01Q284.07-32.05 283.83-33.79L283.83-33.79L283.83-33.79Q283.60-35.53 282.28-36.52L282.28-36.52L282.28-36.52Q280.97-37.51 277.86-37.51L277.86-37.51L277.86-37.51Q275.42-37.51 269.69-36.66L269.69-36.66L269.69-36.66Q269.87-35.16 269.87-32.24L269.87-32.24L269.87-13.72L269.87-13.72Q269.87-11.75 270.16-11.09L270.16-11.09L270.16-11.09Q270.44-10.43 271.85-9.68L271.85-9.68L276.45-7.05L276.08 0L250.32 0L249.85-8.93L254.36-10.25L254.36-28.01L254.36-28.01Q254.36-32.15 254.13-33.89L254.13-33.89L254.13-33.89Q253.89-35.63 252.58-36.57L252.58-36.57L252.58-36.57Q251.26-37.51 248.25-37.51L248.25-37.51L248.25-37.51Q244.96-37.51 240.26-36.66L240.26-36.66L240.26-13.72L240.26-13.72Q240.26-11.75 240.55-11.09L240.55-11.09L240.55-11.09Q240.83-10.43 242.05-9.68L242.05-9.68L246.66-7.05L246.28 0L219.21 0ZM331.26 1.13L331.26 1.13Q320.26 1.13 314.29-5.55L314.29-5.55L314.29-5.55Q308.32-12.22 308.32-23.97L308.32-23.97L308.32-23.97Q308.32-32.15 311.23-38.02L311.23-38.02L311.23-38.02Q314.15-43.90 319.51-47L319.51-47L319.51-47Q324.86-50.10 332.01-50.10L332.01-50.10L332.01-50.10Q342.63-50.10 348.32-43.33L348.32-43.33L348.32-43.33Q354.00-36.57 353.72-24.06L353.72-24.06L325.15-18.80L325.15-18.80Q326.46-14.85 328.86-13.02L328.86-13.02L328.86-13.02Q331.26-11.19 335.20-11.19L335.20-11.19L335.20-11.19Q337.93-11.19 341.69-11.98L341.69-11.98L341.69-11.98Q345.45-12.78 349.30-14.19L349.30-14.19L351.47-4.89L351.47-4.89Q347.99-2.26 342.44-0.56L342.44-0.56L342.44-0.56Q336.90 1.13 331.26 1.13L331.26 1.13ZM324.21-28.11L338.31-31.96L338.31-31.96Q338.12-35.53 336.28-37.18L336.28-37.18L336.28-37.18Q334.45-38.82 331.16-38.82L331.16-38.82L331.16-38.82Q328.44-38.82 325.99-38.07L325.99-38.07L325.99-38.07Q324.02-33.46 324.21-28.11L324.21-28.11Z" fill="#00ceff"></path></g></g><style>text {
  font-size: 64px;
  font-family: Arial Black;
  dominant-baseline: central;
  text-anchor: middle;
}</style></svg>