<svg width="846.6250244140625px" height="175.54999999999998px" xmlns="http://www.w3.org/2000/svg" viewBox="-173.31251220703126 -12.774999999999991 846.6250244140625 175.54999999999998" style="background: rgba(0, 0, 0, 0);" preserveAspectRatio="xMidYMid"><defs><filter id="editing-hole" x="-100%" y="-100%" width="300%" height="300%"><feFlood flood-color="#000000" result="black"></feFlood><feMorphology operator="dilate" radius="2" in="SourceGraphic" result="erode"></feMorphology><feGaussianBlur in="erode" stdDeviation="4" result="blur"></feGaussianBlur><feOffset in="blur" dx="2" dy="2" result="offset"></feOffset><feComposite operator="atop" in="offset" in2="black" result="merge"></feComposite><feComposite operator="in" in="merge" in2="SourceGraphic" result="inner-shadow"></feComposite></filter></defs><g filter="url(#editing-hole)"><g transform="translate(-53.967496395111084, 121.06749725341797)"><path d="M1.19-6.92L1.19-6.92L1.19-6.92Q1.19-8.38 2.41-9.53L2.41-9.53L2.41-9.53Q3.64-10.68 4.31-11.11L4.31-11.11L4.31-11.11Q4.98-11.55 5.22-11.79L5.22-11.79L5.22-11.79Q5.62-4.59 14.95-4.59L14.95-4.59L14.95-4.59Q22.31-4.59 32.12-9.18L32.12-9.18L32.12-9.18Q39.08-12.34 41.45-15.66L41.45-15.66L41.45-15.66Q42.24-16.69 42.24-17.36L42.24-17.36L42.24-17.36Q42.24-18.04 42.00-18.43L42.00-18.43L9.18-25.79L9.18-25.79Q7.75-26.10 6.41-27.13L6.41-27.13L6.41-27.13Q3.96-28.87 3.96-30.30L3.96-30.30L3.96-30.30Q3.96-35.75 11.71-40.18L11.71-40.18L11.71-40.18Q20.25-45.01 34.57-47.46L34.57-47.46L34.57-47.46Q37.81-48.01 39.39-48.09L39.39-48.09L39.39-48.09Q39.87-47.94 40.86-47.82L40.86-47.82L40.86-47.82Q41.84-47.70 42.87-47.46L42.87-47.46L42.87-47.46Q45.33-46.91 44.93-45.40L44.93-45.40L44.93-45.40Q44.93-42.71 34.65-41.13L34.65-41.13L34.65-41.13Q21.36-39.16 18.07-37.81L18.07-37.81L18.07-37.81Q14.79-36.47 13.33-35.04L13.33-35.04L13.33-35.04Q11.87-33.62 11.79-31.64L11.79-31.64L11.79-31.64Q11.79-31.25 13.61-30.77L13.61-30.77L13.61-30.77Q15.42-30.30 17.96-29.62L17.96-29.62L17.96-29.62Q20.49-28.95 24.52-27.84L24.52-27.84L24.52-27.84Q34.33-25.15 48.57-21.04L48.57-21.04L48.57-21.04Q49.36-19.30 49.36-17.80L49.36-17.80L49.36-17.80Q49.36-13.61 44.46-9.73L44.46-9.73L44.46-9.73Q38.92-5.38 29.11-2.37L29.11-2.37L29.11-2.37Q20.96 0.08 16.14 0.08L16.14 0.08L16.14 0.08Q12.10 0.08 8.46-1.34L8.46-1.34L8.46-1.34Q4.83-2.77 3.01-4.11L3.01-4.11L3.01-4.11Q1.19-5.46 1.19-6.92ZM56.32-37.18L61.30-37.18L61.30-37.18Q62.33-22.39 63.04-2.93L63.04-2.93L63.04-2.93Q62.57-0.47 59.25-0.47L59.25-0.47L59.25-0.47Q58.38-0.47 57.47-0.83L57.47-0.83L57.47-0.83Q56.56-1.19 56.32-1.82L56.32-1.82L56.32-37.18ZM53.95-47.94L53.95-47.94L53.95-47.94Q53.95-50.70 57.19-50.70L57.19-50.70L57.19-50.70Q59.33-50.70 60.67-49.75L60.67-49.75L60.67-49.75Q60.91-48.88 60.91-48.05L60.91-48.05L60.91-48.05Q60.91-47.22 60.28-46.43L60.28-46.43L60.28-46.43Q59.64-45.64 58.38-45.64L58.38-45.64L58.38-45.64Q57.11-45.64 55.85-46.23L55.85-46.23L55.85-46.23Q54.58-46.83 53.95-47.94ZM73.01-1.27L73.01-1.27L73.01-1.27Q69.77 0.08 68.70 0.08L68.70 0.08L68.70 0.08Q67.63 0.08 67.24-0.16L67.24-0.16L67.24-0.16Q66.84-0.40 66.37-1.27L66.37-1.27L66.37-1.27Q66.37-3.88 66.56-7.83L66.56-7.83L66.56-7.83Q66.76-11.79 66.92-16.29L66.92-16.29L66.92-16.29Q67.08-20.80 67.08-25.39L67.08-25.39L67.08-25.39Q67.08-29.98 66.60-33.78L66.60-33.78L66.60-33.78Q66.60-36.31 70.00-36.31L70.00-36.31L70.00-36.31Q70.80-36.31 71.23-33.46L71.23-33.46L71.23-33.46Q71.67-30.61 71.86-29.03L71.86-29.03L71.86-29.03Q72.06-27.45 72.22-26.74L72.22-26.74L72.22-26.74Q74.28-30.45 80.37-32.59L80.37-32.59L80.37-32.59Q83.61-33.62 86.46-33.62L86.46-33.62L86.46-33.62Q89.31-33.62 91.48-32.95L91.48-32.95L91.48-32.95Q93.66-32.27 95.20-30.49L95.20-30.49L95.20-30.49Q96.74-28.71 96.74-25.79L96.74-25.79L96.74-25.79Q98.80-29.66 106.00-32.75L106.00-32.75L106.00-32.75Q112.56-35.67 117.78-35.67L117.78-35.67L117.78-35.67Q125.30-35.67 125.14-29.98L125.14-29.98L126.80-0.55L126.80-0.55Q126.80-0.16 124.51 0L124.51 0L124.51 0Q120.08 0.32 120.08-0.79L120.08-0.79L120.08-0.79Q120.00-2.37 120.00-3.96L120.00-3.96L120.39-16.69L120.39-16.69Q120.39-25.63 118.65-30.85L118.65-30.85L118.65-30.85Q113.43-30.45 110.62-29.15L110.62-29.15L110.62-29.15Q107.82-27.84 105.68-25.91L105.68-25.91L105.68-25.91Q103.54-23.97 101.88-20.72L101.88-20.72L101.88-20.72Q98.17-13.45 98.17-1.42L98.17-1.42L98.17-1.42Q97.69 0.24 95.08 0.24L95.08 0.24L95.08 0.24Q93.34 0.24 92.23-0.36L92.23-0.36L92.23-0.36Q91.13-0.95 91.36-1.42L91.36-1.42L91.36-1.42Q92.87-9.81 92.87-14.48L92.87-14.48L92.87-14.48Q92.87-18.19 92.11-21.56L92.11-21.56L92.11-21.56Q91.36-24.92 90.25-29.27L90.25-29.27L90.25-29.27Q78.86-29.27 74.91-20.17L74.91-20.17L74.91-20.17Q73.17-16.14 72.97-12.62L72.97-12.62L72.97-12.62Q72.77-9.10 72.77-6.60L72.77-6.60L72.77-6.60Q72.77-4.11 73.01-1.27ZM168.33-28.87L168.33-28.87L168.33-28.87Q165.01-31.25 159.79-31.25L159.79-31.25L159.79-31.25Q154.88-31.25 150.69-29.43L150.69-29.43L150.69-29.43Q142.78-26.10 139.85-20.88L139.85-20.88L139.85-20.88Q138.59-18.51 138.59-15.82L138.59-15.82L138.59-15.82Q138.59-15.35 138.59-13.17L138.59-13.17L138.59-13.17Q138.59-11.00 139.38-7.32L139.38-7.32L139.38-7.32Q140.17-3.64 140.17 0.16L140.17 0.16L140.17 0.16Q138.51 0.24 137.48 0.55L137.48 0.55L137.48 0.55Q136.45 0.87 135.74 0.87L135.74 0.87L135.74 0.87Q135.03 0.87 134.51 0.24L134.51 0.24L134.51 0.24Q134.00-0.40 133.37-2.21L133.37-2.21L133.37-2.21Q133.29-2.69 133.05-4.90L133.05-4.90L133.05-4.90Q132.81-7.12 132.46-10.28L132.46-10.28L132.46-10.28Q132.10-13.45 131.66-17.20L131.66-17.20L131.66-17.20Q131.23-20.96 130.83-24.60L130.83-24.60L130.83-24.60Q129.96-32.51 129.49-36.23L129.49-36.23L129.49-36.23Q129.49-38.13 132.26-38.13L132.26-38.13L132.26-38.13Q133.92-38.13 134.87-36.74L134.87-36.74L134.87-36.74Q135.82-35.36 136.37-33.58L136.37-33.58L136.37-33.58Q136.92-31.80 137.12-30.06L137.12-30.06L137.12-30.06Q137.32-28.32 137.48-27.61L137.48-27.61L137.48-27.61Q147.92-36.94 163.42-36.94L163.42-36.94L163.42-36.94Q165.16-36.94 167.06-36.86L167.06-36.86L167.06-36.86Q167.54-36.94 168.25-36.94L168.25-36.94L168.25-36.94Q168.96-36.94 169.67-35.99L169.67-35.99L169.67-35.99Q170.54-34.88 170.54-33.30L170.54-33.30L170.54-33.30Q170.54-29.35 168.33-28.87ZM205.27-13.13L205.27-13.13L205.27-13.13Q199.34-3.80 189.45-1.58L189.45-1.58L189.45-1.58Q187.15-1.11 185.30-1.11L185.30-1.11L185.30-1.11Q183.44-1.11 182.21-1.15L182.21-1.15L182.21-1.15Q180.98-1.19 179.48-1.50L179.48-1.50L179.48-1.50Q177.98-1.82 176.71-2.53L176.71-2.53L176.71-2.53Q173.79-4.19 173.79-7.20L173.79-7.20L173.79-7.20Q173.47-8.62 173.47-10.40L173.47-10.40L173.47-10.40Q173.47-12.18 174.26-15.11L174.26-15.11L174.26-15.11Q175.05-18.04 177.15-21.44L177.15-21.44L177.15-21.44Q179.24-24.84 182.25-27.69L182.25-27.69L182.25-27.69Q188.50-33.70 195.78-35.44L195.78-35.44L195.78-35.44Q197.91-35.91 199.69-35.91L199.69-35.91L199.69-35.91Q201.47-35.91 202.90-35.67L202.90-35.67L202.90-35.67Q207.48-35.67 209.07-29.43L209.07-29.43L209.07-29.43Q210.09-25.47 210.29-18.39L210.29-18.39L210.29-18.39Q210.49-11.31 210.69-7.48L210.69-7.48L210.69-7.48Q210.88-3.64 211.68-0.47L211.68-0.47L207.01-0.47L207.01-0.47Q206.69-2.61 206.53-4.27L206.53-4.27L206.53-4.27Q206.38-5.93 206.22-7.36L206.22-7.36L206.22-7.36Q205.82-10.68 205.27-13.13ZM204.95-25.39L204.95-25.39L204.95-25.39Q204.95-29.98 200.44-29.98L200.44-29.98L200.44-29.98Q199.89-30.06 199.34-30.06L199.34-30.06L199.34-30.06Q193.56-30.06 187.15-24.52L187.15-24.52L187.15-24.52Q184.15-21.99 182.01-18.83L182.01-18.83L182.01-18.83Q178.85-14.32 178.85-10.76L178.85-10.76L178.85-10.76Q178.85-6.09 184.23-5.22L184.23-5.22L184.23-5.22Q191.35-5.38 197.83-11.71L197.83-11.71L197.83-11.71Q200.60-14.48 202.42-17.72L202.42-17.72L202.42-17.72Q204.95-22.07 204.95-25.39ZM246.16-12.50L246.24-17.32L246.24-17.32Q246.24-26.74 245.21-31.17L245.21-31.17L245.21-31.17Q245.85-32.35 243.32-32.35L243.32-32.35L243.32-32.35Q240.63-32.35 236.36-31.01L236.36-31.01L236.36-31.01Q232.08-29.66 229.39-28.32L229.39-28.32L229.39-28.32Q222.99-25.23 222.28-22.31L222.28-22.31L222.28-0.79L216.98-0.79L216.98-0.79Q215.95-3.48 215.95-15.90L215.95-15.90L215.95-15.90Q215.95-26.97 216.38-32.19L216.38-32.19L216.38-32.19Q216.82-37.42 217.05-38.13L217.05-38.13L217.05-38.13Q219.11-39.47 220.38-39.47L220.38-39.47L220.38-39.47Q222.35-39.47 222.35-34.80L222.35-34.80L222.35-34.80Q222.35-32.99 222.16-31.28L222.16-31.28L222.16-31.28Q221.96-29.58 221.96-28.95L221.96-28.95L221.96-28.95Q234.77-38.36 241.81-38.36L241.81-38.36L241.81-38.36Q249.80-38.36 250.91-25.47L250.91-25.47L250.91-25.47Q251.38-20.96 251.38-12.97L251.38-12.97L251.31-6.72L251.31-6.72Q251.31-3.24 251.46 0L251.46 0L251.46 0Q250.67 0.47 250.20 0.47L250.20 0.47L250.20 0.47Q249.96 0.40 249.17 0.24L249.17 0.24L249.17 0.24Q248.38 0.08 247.11 0L247.11 0L247.11 0Q246.32-3.16 246.24-6.45L246.24-6.45L246.24-6.45Q246.16-9.73 246.16-12.50L246.16-12.50ZM267.44 15.82L267.44 15.82L267.44 15.82Q267.44 29.03 260.48 29.03L260.48 29.03L260.48 29.03Q259.77 29.03 258.70 28.99L258.70 28.99L258.70 28.99Q257.63 28.95 255.54 28.67L255.54 28.67L255.54 28.67Q253.44 28.40 251.31 27.69L251.31 27.69L251.31 27.69Q246.16 25.95 244.74 22.62L244.74 22.62L244.74 22.62Q244.74 22.39 245.14 21.52L245.14 21.52L245.14 21.52Q245.85 19.93 245.85 19.70L245.85 19.70L245.85 19.70Q248.46 21.67 251.46 23.41L251.46 23.41L251.46 23.41Q254.47 25.15 257.87 25.15L257.87 25.15L257.87 25.15Q260.17 25.15 261.51 21.83L261.51 21.83L261.51 21.83Q262.78 18.98 262.78 16.14L262.78 16.14L262.78 16.14Q262.78 8.46 261.67-3.80L261.67-3.80L261.67-3.80Q260.09-22.23 260.09-27.25L260.09-27.25L260.09-27.25Q260.09-32.27 260.24-35.44L260.24-35.44L260.24-35.44Q260.01-37.34 261.98-38.29L261.98-38.29L261.98-38.29Q263.49-39.00 265.31-39.00L265.31-39.00L265.31-39.00Q264.59-34.09 264.59-31.25L264.59-31.25L264.59-31.25Q264.59-28.40 264.63-25.35L264.63-25.35L264.63-25.35Q264.67-22.31 265.11-16.45L265.11-16.45L265.11-16.45Q265.54-10.60 266.10-4.75L266.10-4.75L266.10-4.75Q267.44 7.99 267.44 15.82ZM262.46-55.92L262.46-55.92L262.46-55.92Q263.72-55.05 263.72-53.16L263.72-53.16L263.72-53.16Q263.72-51.26 262.30-50.86L262.30-50.86L262.30-50.86Q262.22-50.86 261.71-50.86L261.71-50.86L261.71-50.86Q261.19-50.86 260.01-51.89L260.01-51.89L260.01-51.89Q260.01-54.42 261.19-55.53L261.19-55.53L261.19-55.53Q261.67-55.92 262.46-55.92ZM286.43-5.54L286.43-5.54L286.43-5.54Q293.39-5.54 307.39-11.87L307.39-11.87L307.39-11.87Q308.26-11.87 308.81-11.27L308.81-11.27L308.81-11.27Q309.37-10.68 309.37-9.89L309.37-9.89L309.37-9.89Q306.20-4.51 297.26-1.50L297.26-1.50L297.26-1.50Q288.33 1.50 280.57-0.47L280.57-0.47L280.57-0.47Q271.79-2.77 269.89-10.36L269.89-10.36L269.89-10.36Q269.74-11.87 269.74-14.40L269.74-14.40L269.74-14.40Q269.74-16.93 271.04-21.08L271.04-21.08L271.04-21.08Q272.35-25.23 275.51-28.95L275.51-28.95L275.51-28.95Q278.67-32.67 282.95-34.80L282.95-34.80L282.95-34.80Q287.22-36.94 292.04-36.94L292.04-36.94L292.04-36.94Q296.63-36.94 302.33-33.78L302.33-33.78L302.33-33.78Q305.02-32.27 306.60-30.38L306.60-30.38L306.60-30.38Q308.18-28.48 308.18-26.50L308.18-26.50L308.18-26.50Q308.18-25.95 308.10-25.39L308.10-25.39L308.10-25.39Q307.94-20.57 303.43-19.30L303.43-19.30L303.43-19.30Q301.46-18.75 298.85-18.75L298.85-18.75L287.46-19.22L287.46-19.22Q281.76-19.22 278.75-16.77L278.75-16.77L278.75-16.77Q277.01-15.42 276.30-12.74L276.30-12.74L276.30-12.74Q278.28-5.54 286.43-5.54ZM300.55-29.98L300.55-29.98L300.55-29.98Q298.77-31.25 296.87-31.80L296.87-31.80L296.87-31.80Q294.97-32.35 293.70-32.35L293.70-32.35L293.70-32.35Q292.44-32.35 289.59-31.52L289.59-31.52L289.59-31.52Q286.74-30.69 284.53-29.66L284.53-29.66L284.53-29.66Q279.07-27.13 279.07-24.36L279.07-24.36L279.07-24.36Q285.40-23.81 288.56-23.81L288.56-23.81L288.56-23.81Q297.34-23.81 300.43-25.31L300.43-25.31L300.43-25.31Q302.33-26.10 302.33-27.29L302.33-27.29L302.33-27.29Q302.33-28.71 300.55-29.98ZM330.25-5.54L330.25-5.54L330.25-5.54Q337.21-5.54 351.21-11.87L351.21-11.87L351.21-11.87Q352.08-11.87 352.63-11.27L352.63-11.27L352.63-11.27Q353.19-10.68 353.19-9.89L353.19-9.89L353.19-9.89Q350.02-4.51 341.09-1.50L341.09-1.50L341.09-1.50Q332.15 1.50 324.40-0.47L324.40-0.47L324.40-0.47Q315.62-2.77 313.72-10.36L313.72-10.36L313.72-10.36Q313.56-11.87 313.56-14.40L313.56-14.40L313.56-14.40Q313.56-16.93 314.86-21.08L314.86-21.08L314.86-21.08Q316.17-25.23 319.33-28.95L319.33-28.95L319.33-28.95Q322.50-32.67 326.77-34.80L326.77-34.80L326.77-34.80Q331.04-36.94 335.87-36.94L335.87-36.94L335.87-36.94Q340.45-36.94 346.15-33.78L346.15-33.78L346.15-33.78Q348.84-32.27 350.42-30.38L350.42-30.38L350.42-30.38Q352.00-28.48 352.00-26.50L352.00-26.50L352.00-26.50Q352.00-25.95 351.92-25.39L351.92-25.39L351.92-25.39Q351.76-20.57 347.26-19.30L347.26-19.30L347.26-19.30Q345.28-18.75 342.67-18.75L342.67-18.75L331.28-19.22L331.28-19.22Q325.58-19.22 322.58-16.77L322.58-16.77L322.58-16.77Q320.84-15.42 320.12-12.74L320.12-12.74L320.12-12.74Q322.10-5.54 330.25-5.54ZM344.37-29.98L344.37-29.98L344.37-29.98Q342.59-31.25 340.69-31.80L340.69-31.80L340.69-31.80Q338.79-32.35 337.53-32.35L337.53-32.35L337.53-32.35Q336.26-32.35 333.41-31.52L333.41-31.52L333.41-31.52Q330.57-30.69 328.35-29.66L328.35-29.66L328.35-29.66Q322.89-27.13 322.89-24.36L322.89-24.36L322.89-24.36Q329.22-23.81 332.38-23.81L332.38-23.81L332.38-23.81Q341.17-23.81 344.25-25.31L344.25-25.31L344.25-25.31Q346.15-26.10 346.15-27.29L346.15-27.29L346.15-27.29Q346.15-28.71 344.37-29.98ZM369.88-7.59L369.88-7.59L370.04-20.25L370.04-20.25Q370.04-23.26 369.48-25.39L369.48-25.39L357.22-25.39L357.06-30.85L368.93-30.85L368.93-51.26L368.93-51.26Q369.17-51.97 369.88-52.68L369.88-52.68L369.88-52.68Q370.99-53.79 371.74-53.79L371.74-53.79L371.74-53.79Q372.49-53.79 373.04-53.63L373.04-53.63L373.04-53.63Q373.60-53.47 374.23-52.52L374.23-52.52L374.23-52.52Q375.50-47.30 375.50-36.78L375.50-36.78L375.50-36.78Q375.50-34.17 375.73-31.64L375.73-31.64L375.73-31.64Q378.26-31.96 380.79-31.96L380.79-31.96L380.79-31.96Q380.79-31.96 384.91-31.96L384.91-31.96L384.91-31.96Q386.41-31.96 387.68-32.12L387.68-32.12L387.44-26.42L375.89-26.74L376.29 0.55L376.29 0.55Q374.86 1.19 373.83 1.19L373.83 1.19L373.83 1.19Q369.88 1.19 369.88-7.59ZM422.17-6.92L422.17-6.92L422.17-6.92Q422.17-8.38 423.39-9.53L423.39-9.53L423.39-9.53Q424.62-10.68 425.29-11.11L425.29-11.11L425.29-11.11Q425.96-11.55 426.20-11.79L426.20-11.79L426.20-11.79Q426.59-4.59 435.93-4.59L435.93-4.59L435.93-4.59Q443.29-4.59 453.09-9.18L453.09-9.18L453.09-9.18Q460.05-12.34 462.43-15.66L462.43-15.66L462.43-15.66Q463.22-16.69 463.22-17.36L463.22-17.36L463.22-17.36Q463.22-18.04 462.98-18.43L462.98-18.43L430.15-25.79L430.15-25.79Q428.73-26.10 427.39-27.13L427.39-27.13L427.39-27.13Q424.93-28.87 424.93-30.30L424.93-30.30L424.93-30.30Q424.93-35.75 432.69-40.18L432.69-40.18L432.69-40.18Q441.23-45.01 455.55-47.46L455.55-47.46L455.55-47.46Q458.79-48.01 460.37-48.09L460.37-48.09L460.37-48.09Q460.85-47.94 461.83-47.82L461.83-47.82L461.83-47.82Q462.82-47.70 463.85-47.46L463.85-47.46L463.85-47.46Q466.30-46.91 465.91-45.40L465.91-45.40L465.91-45.40Q465.91-42.71 455.63-41.13L455.63-41.13L455.63-41.13Q442.34-39.16 439.05-37.81L439.05-37.81L439.05-37.81Q435.77-36.47 434.31-35.04L434.31-35.04L434.31-35.04Q432.84-33.62 432.76-31.64L432.76-31.64L432.76-31.64Q432.76-31.25 434.58-30.77L434.58-30.77L434.58-30.77Q436.40-30.30 438.93-29.62L438.93-29.62L438.93-29.62Q441.47-28.95 445.50-27.84L445.50-27.84L445.50-27.84Q455.31-25.15 469.55-21.04L469.55-21.04L469.55-21.04Q470.34-19.30 470.34-17.80L470.34-17.80L470.34-17.80Q470.34-13.61 465.43-9.73L465.43-9.73L465.43-9.73Q459.90-5.38 450.09-2.37L450.09-2.37L450.09-2.37Q441.94 0.08 437.12 0.08L437.12 0.08L437.12 0.08Q433.08 0.08 429.44-1.34L429.44-1.34L429.44-1.34Q425.80-2.77 423.98-4.11L423.98-4.11L423.98-4.11Q422.17-5.46 422.17-6.92ZM477.30-37.18L482.28-37.18L482.28-37.18Q483.31-22.39 484.02-2.93L484.02-2.93L484.02-2.93Q483.55-0.47 480.23-0.47L480.23-0.47L480.23-0.47Q479.36-0.47 478.45-0.83L478.45-0.83L478.45-0.83Q477.54-1.19 477.30-1.82L477.30-1.82L477.30-37.18ZM474.93-47.94L474.93-47.94L474.93-47.94Q474.93-50.70 478.17-50.70L478.17-50.70L478.17-50.70Q480.30-50.70 481.65-49.75L481.65-49.75L481.65-49.75Q481.89-48.88 481.89-48.05L481.89-48.05L481.89-48.05Q481.89-47.22 481.25-46.43L481.25-46.43L481.25-46.43Q480.62-45.64 479.36-45.64L479.36-45.64L479.36-45.64Q478.09-45.64 476.82-46.23L476.82-46.23L476.82-46.23Q475.56-46.83 474.93-47.94ZM518.19-12.50L518.27-17.32L518.27-17.32Q518.27-26.74 517.25-31.17L517.25-31.17L517.25-31.17Q517.88-32.35 515.35-32.35L515.35-32.35L515.35-32.35Q512.66-32.35 508.39-31.01L508.39-31.01L508.39-31.01Q504.11-29.66 501.42-28.32L501.42-28.32L501.42-28.32Q495.02-25.23 494.31-22.31L494.31-22.31L494.31-0.79L489.01-0.79L489.01-0.79Q487.98-3.48 487.98-15.90L487.98-15.90L487.98-15.90Q487.98-26.97 488.41-32.19L488.41-32.19L488.41-32.19Q488.85-37.42 489.08-38.13L489.08-38.13L489.08-38.13Q491.14-39.47 492.41-39.47L492.41-39.47L492.41-39.47Q494.38-39.47 494.38-34.80L494.38-34.80L494.38-34.80Q494.38-32.99 494.19-31.28L494.19-31.28L494.19-31.28Q493.99-29.58 493.99-28.95L493.99-28.95L493.99-28.95Q506.80-38.36 513.84-38.36L513.84-38.36L513.84-38.36Q521.83-38.36 522.94-25.47L522.94-25.47L522.94-25.47Q523.42-20.96 523.42-12.97L523.42-12.97L523.34-6.72L523.34-6.72Q523.34-3.24 523.49 0L523.49 0L523.49 0Q522.70 0.47 522.23 0.47L522.23 0.47L522.23 0.47Q521.99 0.40 521.20 0.24L521.20 0.24L521.20 0.24Q520.41 0.08 519.14 0L519.14 0L519.14 0Q518.35-3.16 518.27-6.45L518.27-6.45L518.27-6.45Q518.19-9.73 518.19-12.50L518.19-12.50ZM550.78 33.86L550.78 33.86L549.68 33.78L549.68 33.78Q547.30 33.78 544.61 34.09L544.61 34.09L541.61 34.09L541.61 34.09Q536.86 34.09 534.17 32.27L534.17 32.27L534.17 32.27Q532.75 31.32 532.75 29.43L532.75 29.43L550.94 28.56L550.94 28.56Q559.33 28.32 559.33 19.54L559.33 19.54L559.33 19.54Q559.33 19.22 559.33 18.47L559.33 18.47L559.33 18.47Q559.33 17.72 559.33 15.19L559.33 15.19L559.72-10.28L559.72-10.28Q559.72-11.63 559.64-12.50L559.64-12.50L559.64-12.50Q546.83-0.55 534.96-0.55L534.96-0.55L534.96-0.55Q533.94-0.55 532.91-0.63L532.91-0.63L532.91-0.63Q527.61-0.63 527.61-5.30L527.61-5.30L527.61-5.30Q527.77-8.94 529.74-13.33L529.74-13.33L529.74-13.33Q531.72-17.72 534.85-21.79L534.85-21.79L534.85-21.79Q537.97-25.87 541.92-29.11L541.92-29.11L541.92-29.11Q548.02-34.09 553.71-34.09L553.71-34.09L553.71-34.09Q560.36-34.09 564.63-27.05L564.63-27.05L564.63-27.05Q565.89-8.23 565.89-0.32L565.89-0.32L565.89-0.32Q565.89 7.59 565.66 12.66L565.66 12.66L565.66 12.66Q565.42 17.72 564.59 21.91L564.59 21.91L564.59 21.91Q563.76 26.10 562.41 28.56L562.41 28.56L562.41 28.56Q561.07 31.01 559.25 32.12L559.25 32.12L559.25 32.12Q556.24 33.86 550.78 33.86ZM555.53-28.32L555.53-28.32L555.53-28.32Q554.58-28.63 552.88-28.63L552.88-28.63L552.88-28.63Q551.18-28.63 548.49-27.21L548.49-27.21L548.49-27.21Q545.80-25.79 543.35-23.53L543.35-23.53L543.35-23.53Q540.90-21.28 538.76-18.51L538.76-18.51L538.76-18.51Q533.54-11.71 533.54-7.67L533.54-7.67L533.54-7.67Q533.54-6.41 534.25-5.77L534.25-5.77L534.25-5.77Q534.81-5.46 535.64-5.46L535.64-5.46L535.64-5.46Q536.47-5.46 538.05-5.73L538.05-5.73L538.05-5.73Q539.63-6.01 542.36-7.16L542.36-7.16L542.36-7.16Q545.09-8.31 548.02-10.13L548.02-10.13L548.02-10.13Q550.94-11.94 553.32-14.16L553.32-14.16L553.32-14.16Q558.85-19.22 558.85-24.05L558.85-24.05L558.85-24.05Q558.85-26.97 555.53-28.32ZM606.87-1.11L606.87-1.11L606.87-1.11Q606.16 0.24 603.19 0.24L603.19 0.24L603.19 0.24Q600.22 0.24 600.22-1.90L600.22-1.90L600.22-1.90Q600.22-11.23 599.83-14.71L599.83-14.71L599.83-14.71Q599.12-22.39 596.82-22.94L596.82-22.94L596.82-22.94Q591.13-24.05 587.53-24.05L587.53-24.05L587.53-24.05Q583.93-24.05 581.59-21.87L581.59-21.87L581.59-21.87Q579.26-19.70 578.03-14.67L578.03-14.67L578.03-14.67Q576.81-9.65 576.25-0.55L576.25-0.55L570.16-0.55L570.16-0.55Q570.32-5.06 570.32-8.94L570.32-8.94L570.32-8.94Q570.32-12.81 570.16-18.15L570.16-18.15L570.16-18.15Q570.01-23.49 569.77-29.82L569.77-29.82L569.77-29.82Q569.37-37.10 569.37-42.12L569.37-42.12L569.37-42.12Q569.37-47.14 570.01-51.34L570.01-51.34L570.01-51.34Q570.80-52.84 572.30-52.84L572.30-52.84L572.30-52.84Q574.12-52.84 575.15-51.53L575.15-51.53L575.15-51.53Q576.18-50.23 576.25-49.20L576.25-49.20L575.86-36.15L575.86-36.15Q575.86-28.79 576.57-25.15L576.57-25.15L576.57-25.15Q583.69-29.90 591.28-29.90L591.28-29.90L591.28-29.90Q593.74-29.90 596.50-29.50L596.50-29.50L596.50-29.50Q602.44-26.42 604.26-22.94L604.26-22.94L604.26-22.94Q605.13-21.12 605.36-19.06L605.36-19.06L605.36-19.06Q605.60-17.01 605.68-14.40L605.68-14.40L605.68-14.40Q606.16-5.38 606.87-1.11Z" fill="#00a4f9"></path></g></g><style>text {
  font-size: 64px;
  font-family: Arial Black;
  dominant-baseline: central;
  text-anchor: middle;
}</style></svg>